<mxfile host="65bd71144e">
    <diagram id="0ZwvnpUJmRtWsC9fx4WV" name="Page-1">
        <mxGraphModel dx="1312" dy="865" grid="1" gridSize="10" guides="1" tooltips="1" connect="1" arrows="1" fold="1" page="1" pageScale="1" pageWidth="850" pageHeight="1100" math="0" shadow="0">
            <root>
                <mxCell id="0"/>
                <mxCell id="1" parent="0"/>
                <mxCell id="3" value="" style="shape=image;verticalLabelPosition=bottom;labelBackgroundColor=default;verticalAlign=top;aspect=fixed;imageAspect=0;image=data:image/png,iVBORw0KGgoAAAANSUhEUgAAAy4AAAIvCAYAAACSmI+6AAAAAXNSR0IArs4c6QAAAARnQU1BAACxjwv8YQUAAAAJcEhZcwAAFiUAABYlAUlSJPAAAIMgSURBVHhe7d3viyTffdj7z9x/Io4UWQnqngfLgCARvqEaPQjImO4Fs4ZkDILrJcJUGwKe5qLF4KwxxmuDGWOqDYFMEyTWFwSeBDQYthoTQx6IaWJjXxAM+2CqRaKrK0X3r+j7OVWnun53V3VX91TPvF9SfXem5vSpX6fOrzqn+mylBAAAAAA67H+z/wIAAABAZ9FwAQAAANB5NFwAAAAAdB4NFwAAAACdx+R8vHA/l8Wf/6H8/g/Mz1+U33z3u/LrvxT+AU/t774rv3z999HPX3flO7/9VflS9NuL9ZPv/7F863s/DX/+yjdd+Y+/9tXwZ+CpkCYBHBNPXPDi/eT/sT/IT+V/2p/QMf/Pz+0P25mK1C//m38XLr/1/R/atc/Pj35if8CTesr01rW0TpoEcGh7PnH5ofzJv5nJ39jfyn1N/uA//1tx7G/Y089+Lou/nctf3P8v+dGPo16u2Fe+/EWRX/wX8q/+5Vfl13/pF+xabPZz+ctv/6H8px9Hv33j3X+Q3+GJSzekn7h8+VflO3/6KzWeuGSvZ/3PnYZ077Z5CvVff5ve7Xq0rPq2llVxusj4ouad/1j+1eVwh3zzKdNbN9L6fmny5/KTv/uhfO/2H/TapMozLcu+omXZb/zrXxHnC3YdXoaf/VD+8r98kv/0A5sedkzXP/m7vy6kq698+Wvhfe7off5cyoSXaL8nLlqJ/h/2x24xGXrUC/XL/+aP5S//zq4+aXpMf/7H8stXfyi//72/LzRaDLPuRz/4K/lP138of/IsjhloSgukgTbgra8MKKCgTFlV2mgxNN/88d+H+eYvf/u7srBr63nK9Hbiaf1nf62NyT+Ub13/VbbRYtiy7PevtPz+mV2Hjtuz3mU6ZcM6zixptOzExPPvStNVfJ9/j/rRSXsBQ8Wew/Af01v4h3vezMDL4Pza78p//c//IVwYb49GtGLz+3/ebMjVU6a3k03r2mj5rStTsbS/45lpWO8K04OZa7p/Hecn3/+OnbNa7X/8tP7QY3RPiw2XL8pvTqMMNLswTGxfiz/PDXH48tfkN9/9nnwnc57196krv/nNr8lXbDAAQF6urNJ88xv2L6Ef/N8Nn7qgmZ/LX/7ZX8mP7G/GV77+q/IHmWvye/IHlGUvjhnKZeo2f/B1u6Kxn8viPtX4McPM4jSly3fe/ap848si/+yLDKU/ZfvNcbG9JlEGZAqD35VfrzMe9Wc/lD/5s0/Zx3hf/qJ84/Jb8jtlY4zNmMe//b/lv92bIVJ2nWE/883UeEXziLC6tZ3s40/+7rvyrco3FqXfNJWd95CM543eQOXId+WPNJ7wHOTjaXqcZdLj/I0d3q7UbJ/12P/Ld+QvfvDTbMGiGcpv/J9Dcb6Q3e9dz2P6uML1/yTabtLj8kUtzF7Lvy85VvM4OQrXIM0ps69/dJukIVNY/sa//qr85M+2zHFpch0Lx5X/rH7uXfw5Pebvz+UvzNA/+7eqYw41vDYRcw2Kn8nQ62bGpddOJw3ux9Cu1zr1uWics+6jHkv6c9/45mv55q9lP5cec1/6liN7Pf+HXpP4nMRjn1uZG9Yk/qb3W8V8gvbuwxbSa0mcmTHrFdctVLjXzDb+hW5jz7kb28qqdFpL/b3OPSFV6W2f82DUSEeVab2w7Zr3nNHw/q5Kk5Uy51rV+Uxa03yw5Dq0n8YbnF+jhWPYJS3tWoZt21bdelddmfgazXHJzvv6yjd/T++J3PHldD3v3DtOY+d7uizf+1X5TfkrTQ/ml4pznDqO9P29a90t7+hDxcwJMWMYMzeQob//jRljnH9Mb06AGfNoLk76hBv2M9+q/Wj/p/I//9/4x/9lf1AlbyxK3jRV5afy32714sYX00jF0/g4Kyz+u734oa/JH1RlhLVs3mdzruPHteu/W2Zs6O/r334rv997n0f107LHxLoPP5jJt77915J9Uc0P5QfrcHo8f1vvkW805jWbhqIx1KnJrSX2uY7/47+b85n/bPS53/p+NL47nK9k/7I+5rI4d7k24cszyj+Todcte443pJN978dG1zrlx/8gf2SPJaHb+17F+bLybzlKX8/0OYnGPn9n7/H0jeLf6ZpWaOE+bDW9xmyc2WGuFdfNpq389s19unEbR7El77Qq36rV5DyoXdJp5bab3HP73t81ZMs0rcD86waNlj3vmYOk8aZ52r73/R5pKcNez411kYbbKpeqdx3Zj773HfmTv9tSR+ho3tlanHvd02X5nsiXvpTMrfvR/Q8LaTx9j3/lS//I/rRb3a3McRsuP/tr+aO4Z6aKnvjGE8t/8KlmheOL8k//if2xBWUT5EOtHadWKFM3zVe+OdSW73427fNvpRNnBXNjtD3x/2++lx02kPHjv5I/+v7uCTykN251b9AGe17HH/2g+nz+SI+5cnx3Pj3veG3CIYb2Z9MrEj0u/z35zS/blbFfLE7qrUwndWy4H3e/1sVCfq3u/V/neu6jSfxPeL9VaS29pvzNhjizn/u5/OVtukJ7PObtQ+ZarH35X0jZm6z2uSfqnwfVcjptPX+te7+VypZpVee6VAv3zEHSeJPz28IxtJ6W2tpWpXbrXZv9gvz65dfsz4ZtnH37j/UY8x107TlEujpEnJU27UdJvvel//1fJMM4f/wPssh81jRQ7I967f/V/775idcuWmy4/FT+01X8RonUkmrJLf5L6gb/cnpMa3ZM49/cZnspvqIH/41vuvKdzBjYX02Nf01a9M5vR/GlK2fmkVv0ud0fTVVKHUf8OHPX4yz6/+R/phJndlxm+g0e+WXLm1i27bPpBXsXV3SjcaHpscbb97u5zBjnzLXVGyfTov+qfP3rcWu/3k1R6OFbb8eV31zHVdTKdVx/zozZzm/LPPaNzvN33qXHc2d7qHa7NukKwtfkN9aPcrMZe3hv2Me4BSXpxGhyP5apf61zvvy1ZH/0fCXq9ehtPo/7j6dvEv9T32+VWkivBbWuWzqvS92j4b32xb2vTVa2rDJvH0quhabPwYan2hX3RC010+8h0mmTe27f+3uzbJlW1mlSpbV75gBpvO75be8YdkhLqbTbrAzbvq2j17s2+aV/G+YZGVr5Dp8saN1o6xOYXR0k72wnzr3v6Xy+94Wvyr9aX2vNT/9L6onNz1JvG850TDSvu1U54hOXdCtME/Vl+v3svyDOv06dxB//LLmJNBH+R034v2PGU6YTf+bEydO8JUIvprmI8XFEGfCOx9mqDYmwdJ/zT3a+lRmL/6Vf+hX5j+kMq+391n0yY9jX5+kLvyL/Pn2T5rbn/Hb8Jp06GWL2eoTHtt7OV+XXf/tbxScQoRauY+Zc62fSvRTqG+80Xdvz/KVfGlak58Nem8r7pjSdqH3vx4bXes0Unn/6b5P90fOVvm7b7/9t5zE6rt0L2CbxP/H9VqWV9JpT+7r9I/mn6/VaEP7Zd+UvwwqG7ofe7/+xqnHdsq983cwTSa5FRtU9UUft83CAdNrknutsedvSPXOQNF73/LZ1DHXTUhtl2L757tMweYZpCJqJ+FnxUKuW9/tA6aqVOFsos4v5Xu7JVuqFJj/5239YN5bznUDN6m7Vjj7HJfY31+knBLqsJ06WMBPZvv9d+a1v/3HqM5vnJhxFjd6iRse5RSuZROk+Z3s7S1vC/+QLmZvm0L70xX9sfzL+l/yk6aPPUru38lu5jl/4Bfln9kezL9nH53pdftH+mLHrtUnH9/fyF3FGbSbppYbkVL5dZVPabvl+rHetv5Dbn6rzVaXGedxLk/i7d7+V2im95tW9blFBuD7mcC7HH2q6+uNwvH9ppaotXzaTWqMexY0NpAZPB4rqnodDp9PIxnvuoOVtuoGqCvPrqhzonmkljReVn9+2jmG3vHC3MmzffPfpmIbg7/ypebLgagMm1ZBUP/re/LBvDjxEutonzn3u6ap875f+eeptjH8vPwiHG+p21m91O1z+1WLDJf14P7Xs0lP25dTNEk9kCycWtTfutxPSx1nKPFqzP6rszaYFvbkp4/Ocezz9vPzjbE9B12y9jk8j3aP2o++ZSqAprGZJZvV1VwpvUNvm4Pdjx681Dsf0DBYqGdsnsTaXK6v+1DzRSfdGvzSpe+7g93euglXV0/+snECe1tEyrBVf+Ko2YH5XvpMZahVXtF+Ag93T2frp3/x3zaN/9kP5b3H9osn8tYae6IlLRSMnXv40HjscTdiMewXi8XzRUjLJuIFsj8ih1D3Oas6/TD2O05ut6ZejNVfxtof/92elvTOHOo8/Sb/pozW7vsli/+vYjmbXJhnf/EX5SvpeMa9ANPdS406Fw9yPh7nWm+z3RpPtmsTf7JpWOU5+dgS2khGO6U6PU99lwunJO1w6Lb/nDlfepqXfSJR5GlxbO/fMIW3P0459DF0pw57Ol37tdfb7mqxnk3eWOuw9nRluaPLov03S78a5gns6YsOlOIY5+yaCn4dvd/mTb/+71PjD7KPVf/pPksdOP/m7edKy2yIZYlWRQf74r+R78YStn+mF/vPv7PFYfJfj3CA3ptS8AeSXv/3dcPx3pqdKM7zd5Z/sfMeOL48U3rrz9X9e/nazXc+jefPKn//1+jyZ7WXehJLbnnkXePSoc8tLCELZoQnhU6v4M2bY1LerHpe2fB13tuO1+dlfy1/E45vN92Ckn85pxTAeG9tMC/djw2vdnu3n8U++XSc9VWkSf0v3W5VW87NjMa/uTr/5x8xtSc8/S8/b+3n4evM4DzjWW9eO4wDptPY91055u82XchVI8zQ4HA6YPqZ4aMs6jz/wPbOP2uf32MfwtGXY1nrXIZi3tsXDS3PHuvjzT+u3bEbp2/6YdpJ55yYHvqcz82Q0jX0vTr/lw8Sa1d2qHbHhkpvME76vPC58zPKH4dtdKl/xZk5K5k0wSStym/UwGd3GupDLjSUNX5lnwlxpRTbzzvKm9j3OPI3v/8wNA7Pjv7+1jlOXBuejTPbJjp7r+Hzokn3rzhez791v6TxG36lStj2Rb/zL9JMBM+EwjrdOj2TuepinVvH1SA+bKmj7Ou5u52sTM9+Dsd5vs2jGrpWfP/n+PnMH9rgfa1/rdm07j/teyybx731N8w6Wnx1T/Oaf6Dxkx2BnKxrJJOeftjP3r0MOkU6b33O739/bfVW+mRm2Y/ZvJt9K56/x0Bb7d6P1e6ZFdc/vcY/hacuw0npXJdNxkexb5usLtDGxzhM2fdfXmh1emjvWzPfsfP11Mjn8WeSddRzinv4FcQbZezlUOkysad2t2nGHiv1SyWvqNipmcPVUnMy0L/yK/Eaq9yPri/KNRvuZ0/g4t9B9jcZ+29+3quhN2ET3OTsGtIwZYpR7G0Qr53HD6053mYeRl39qlaEFxDfThUlK29dxV7tcm43XRTN283pI8yVi3/5ug0mKu96PaQe+1psc+no2iX/X+63KIfOzDgjfwFRxHipfMHGqWk+nde+5Nu7ver70a/k5BzW0fc+0pkGeduxjaD0tbVKj3lXlZ6lX6G7Sxpwo85as9DDpZ513Hv6ezj9BNQ45TMw4+hyX8DV1dgJm9mbX38M3u/xe5nWUYQb37mvZMfphWDf3TvGsKGNMv9taaYL9eioTMe8ez4eJ9uF35Xf+ZcW4x5rjIZse51bh2G/dX43TfPdI9nwYZt3X7Lu6c5lezX0Oz9nGfTZDjOyqlJ3OY5q2zv+9Pa61ynkY5nF7HK7uWyt+QX79T8170Mv38dc33Nd7XcdfbK9Ctcu1yY4lr/Dj1BjzGulk1/txrdG1ru+fVRzqV3K5Z/KazOwHzL3zm++qK8d1NYl/1/stVjy2Pe/DFtNrXcl10wK28rzl77H08IevZfL0auk38jTQcPx7/prUlU+/u6TTym03uOf2vb+bHL/Z1n/V/DPMl/PlmbknwrTb7j1zkDTeME/b+xi2KE1LG7fXsC6Skt9WeGy5PChf7yqVeWPWBtteIqCNkPha5NNUnJeUzefpZN7ZUpw73dON8r3sEEgTd3m9bJe6W7mzlbI/A8fzd98Nh7eF7HvCdyzzUSZ9frVy9wf/+d8m46XN3J4/y75dbJ9Gw1Zca7ToJ9//Y/mWnUNgvuRun0res8U9d1icXyCxqb5xAE/0VjEAh7T473EmIvKVbw6zmcgXvpp5pP+VL/0j+xPQdT+U78UTn7XBTaMFAJ5S9OaytSO8GIOGC/DM/ej+h5m3yWTfenO4L4k6TdlJovWWJvOEsI+ffN++Gcj0ch/yKSEAYLv0d7eoQ75gJ0bDBXiGMu9X/3HyxhuzpN9es2nS84tUd5IonkQ4L+KFfO8EAHTdT/72H1JvJ6s753A/NFzw9J5gUvCz9wXzJrptE1//w86TMnfW9Wtdd5IocCrIXw+L84sX6+eyuE9eGf2Vbx7n+5OYnA8AAACg83jiAgAAAKDzaj1x+b/+ev01xQAAAADQyP/xK79of9odT1wAAAAAdB4NFwAAAACdx+R8AAAAAJ3HExcAAAAAnUfDBQAAAEDn0XABAAAA0Hk0XAAAAAB0Hg0XAAAAAJ1HwwUAAABA59FwAQAAANB5NFwAAAAAdB4NFwAAAACdR8MFAAAAQOfRcAEAAADQeTRcAAAAAHQeDRcAAAAAnUfDBQAAAEDn0XABAAAA0Hk0XAAAAAB0Hg0XAAAAAJ1HwwUAAABA59FwAQAAANB5NFwAAAAAdB4NFwAAAACdR8MFAAAAQOfRcAEAAADQeTRcAAAAAHQeDRcAAAAAnUfDBQAAAEDn0XABAAAA0Hk0XAAAAAB0Hg0XAAAAAJ1HwwUAAABA59FwAQAAANB5NFwAAAAAdB4NFwAAAACdR8MFAAAAQOfRcAEAAADQeafdcJmP5ezsTAbTpV1xqpYyHZzpsYxlbtcAAAAASOzecFlOZaCNBtNwKFtOoTGxnA5OZl+N+Tg6t+ONrZvDNYJO7XwBz8NS7/1BJr8dDPT+3uU21Hx7vCl/2JivFz+zXM41vihfiJaBjKdz3eO0OE/atAwkna3UixcA8NLs/8TFccR13cJyed6zAdCW4Rs3/Hd2t6FJsvwktwv9130jw2gNgJNlKv19Gc0WsojzWv13sZjJqJ+t7G8Tdjz0J6JRbeU4xTzd1Tylb/9umPj6/VEYnxP+3dG1C5lNRtLP9a6cX+bjShbzKZELiYuMJvECAF6Y1a4Cb6XFyUpc3654Ar67MofgeIFdcaqClefouRR3tflsbg8XeE54Tp7ysgBoR3w/5/PZwOZ99fLfON8weaW/OQ+x+XqdaM2+mfgyuW9cLoizqpUtlxxHK/ECAJ4lJueflJ68vjS9jzMpf+iylE/R4xZ5w+MW4MTF97Mj3rvsDd0bvhNtgJjHr9uHhIZPYTWOYCX3V+lnJvvpXd1rfEPNlVJ6ryXMomQhn4NwzUbzu5n+N3t8bcQLAHieDt9wsRPozwbT7PjkeCx1en0YNhr+sNSfB6lx0YNx3fHNy8Jno/HRJZ8um9xv15kRCWE82+IINRiDvpzLVMPG4c4ajlXvvb4Mh1bMPuTOp1E6TKz5+TDHbo4nDjuNa0Zl52vH+Juc28z50rDFtFD3/M9lbOOo3BzQGYF8Dtstl/K6MPK2J+cX5t8HedyWlntXcr+6l6ujjt515NW2NpKWAR/CdkvZ8VWpES8A4Nk6fMNleCO+mZqxmMh1qmtwfj2Rhelp+3iV7VlTt28H0h+ZEi0ZA72Y1RvfvJy+XX/W833xfU9cx4yP7jeaVD77YPchHOvt6D5UxRGPQdcfXU+3p9v09IBLx6Brxbk/kkk0eNsemwnXl4mpoNQR9zwubuVTbleWn251L027JdVs2eF8zEZn4fE4Znx52MtZbaf4a59b09DQc5M6XyZukxbersM2Of/ACVk+arNEXZwX8kij/yrMCA7yBOLhcS7zuV2WTW4i29hKzVmpEpUBetu+L5YBRfXjBQA8Y3bIWHPxmGPHWWmFMrv4+UHI/kqrksm46qq5KfF458I45vjzufVl8QT+KshvPv6842XHTZd9vmof1sebjaNyTkkcPjd2u7A9tR7HvnWOS6Q8nor5Lzucj+L5t1o6303Pbf58mW369iCbnH/gpGxJw5Vpf6Mt8+TibRYWzedLM4WsdV62dadyZcIW9eMFADxn+z9xWSxkNptll7t8F+BQbsLHLjMZjccyDnvbPflYMXbB8T7mhjUM5V04oHsht/nHDHm9ofQK0fYl6pz8LHU7Jwv7sH7SkY7DjkF3XHnTX8pymVrkXC5M+IdH/TkVVlx5nzvu3tXHaLx6TfFwscXtJxu3qnqb2A7no3j+N2gj/k3ntuR8mW0Ow4Nscv4BbBUOK1uZDq31Evje+qnoxofey6m8DR8du+LfZHKhguX0g5YGJi94t/3thw3iBQA8b/s3XFw/U8iFS1nhEg8ZMw0bLQbLhoht0osGdNekFdf5VKamkRQu11GlvnV2+EI4LKkv/cwSvc4zEY9Xf5V5pehOSoaLlQ0TSxz6fBwi/jrnq8n5B7CL3lAbM2HmbYZ5lsytC5lhsHb4b3CzpTEyl2vbECl0ShQ0iRcA8Nwd8a1iS3kMB2wbB3wzTDjpWyuuo4lMUk+BDlqHdTzxg0CCsuW+WQOtnvjtYvETqPjJgye5lw8d/nw8xfnOO/r5B46gdy7R/Pvyp4ZB1LI/zmT1/ivdUhUzz2wUPkFx/RovAZjfhWG3f9dUw3gBAM/e0RouZhK36WRzPV/CBy+jim9urrC0rZ6LjTMztaD7YCrNjhZ0QeopUNBoKFZ9yZAoM16qV7ZEAVXz4WqbZIaL2WFizuXrXCX90OfjCOd74/lqcv6BU7Mpz5hL+CbhJ5+sbhoX0ctFXH8l20dyRXmGaXDlX/Gc1TReAMBLcJyGSzxG2TwRuErPdylvuiwmbwtv44qGFmzrXYyHF13Ku2G6NNf19qd2Jd+r8qHs9VXhfAv7s4aNRrvlw5pX+UaNukZ6V/LenMbFrVxfm2FijlwW3il66PNxyPiH8iYcnVJybs0rpcN3HTc5/8CpqU7f8RyRzFOL+BXzhdeF70sbEW+jN4BlO0fSjYugXuNifh3ldRtfgbxDvACAl2G1q/WboEreKqaLt36zWPwWm+ybpLTtEr4lJvOSmPVbp6LFcUxczvotN4W3S5W85SqO13G9le/7K89zU2/Jyb3BpuwtWWXrQlVv44nfjhNt09Nt+r7+q/tdiCf1xp7o2OJ902Pc9KafKunzlX+Dl7X3+Ug7xPkOVb0RLfWGI3u+3DCcLuuE0+D8a9iytAh0V5K+C/dAxf1VzEcC/ZP9bDrPidetv6Vet6VxO5k83b7NK9x+No+J7/31fuUXjTevNN/P2SVeAMDLsH/DpWKJK4zVr7SNP58qZFMV2yBTAdaCtPCKZVVaEdZKcLqwtZ+NCsMaFemmleuQiT9pYIWLFrpJ4y0liCoHcbiwwq/BSvdvq1SlvbC/sT3PR9ohzndow7kNz1c2fkdrPdkY6p7/+HzRcMEJ0Xsgf4+ZfKOQhOM8tXB/JPlE+ZLcd4E2+rP3my6mIVO4l+J7dsOS70yJ96+ikyWyQ7wAgBfjzPxHC4NuMN+sPpppuRTIPTMxAQAAAFhHfKsYAAAAAOyGhgsAAACAzqPhAgAAAKDzujXHBQAAAABK8MQFAAAAQOfRcAEAAADQeTRcAAAAAHQeDRcAAAAAnUfDBQAAAEDn0XABAAAA0Hk0XAAAAAB0Hg0XAAAAAJ1HwwUAAABA59FwAQAAANB5NFwAAAAAdB4NFwAAAACdR8MFAAAAQOfRcAEAAADQeTRcAAAAAHQeDRcAAAAAnUfDBQAAAEDn0XABAAAA0Hk0XAAAAAB0Hg0XAAAAAJ1HwwUAAABA59FwAQAAANB5NFwAAAAAdB4NFwAAAACdR8MFAAAAQOfRcAEAAADQeTRcAAAAAHQeDRcAAAAAnUfDBQAAAEDn0XABAAAA0Hk0XAAAAAB0Hg0XAAAAAJ1HwwUAAABA59FwAQAAANB5NFwAAAAAdB4NFwAAAACdR8MFAAAAQOfRcAEAAADQeTRcAOxsOR3I2dmZLgOZLu1KdNtyLuPwmp3JgIsGwEry87HMnyRrWMp0EOVNZ4Op/oZGXkjeTsMFODFJ4ZJfBjIYT5+owEHevLONukd5sD8lshWGuV0L7Ko6n4qWMYnseJZTGaTO/WC67eQ/aC6BKuTtT4uGC3Bigs8L+1PeQhaziYz6PP3ohMrr1EVBsruLW3kk/eDkJb3PZy+8lbT8dKulQ2IxuXvmnRMHvvbk7U+KhgtwshzxgpWsVmYJxPccu34hk+uXXVCjqb68ipOPcymve/ZnoAWuH+dTyXIztH/Egc3lehLVXB0nvslnckcR8UI8v7ydhgvwLPRkePVeXPubPDwyPhgN9OTq3lYq76/0NwDPwvxOmymGI5cfkzJiRsvlhXh+eTsNF+AFWM6nMh5kx5wPBsUJmOtx6ebx+nIu03HqMxq+3hC0pczXn2PY2nZ6vqZjvR72PNvzVjVfqe61DJnJmql4w3CB/VtG+aTYXdLDcp4/lvSi27fhgESUZ2TmYVSk6Trpfz4260e2wq5mIxs2yY+iMGbJpcnUfJD0BOfsvWD2IQ6T/nT94ziW+Z09C2Fve6r3fbZluFhQcr8XDsTmXVuPt1kel9fkWtW59pFjXKtmx03eXpO2wgCcEN+Vlbl1tSRaeYFduQpS62XlJH/IrC8u6Tg0Fs9Zr9fyLRUuXqrDx+ur9uOlKb9Oef7KdZLzVVyyn21yLfXiVFzDZEmuT7Dy4v1wPP3Nrt05PVQtrh4xXoJ0WnA3XnS9BzJpJL04mc/WTf/V4crC5NJk6r5J51/r43Fy98J6B+sfx/Ek+xQfy6brsv3+zX6m8jyn8pBwH2rnceX5UJNrVefap89LWbht1yrZRjb/y2py3Jv22yy57bzwvJ0nLsDJWsikH/d29GUUd6y5vtxfpR8IO1rWuuIHwXp8eaC5ZGQht5/KunMW+j/zGRs+NX+mPHzE9OKs98MLcvuBvPl4JDM7cdLxfNFyonB9Jm/TrwWtfy3n1xNdE3F9Gz7wNIZd1EkPyVh63aA9lkDWQXXdanUjTG14eWajdM+sWZLe2fAeCH9yxFunU98OaVrI7EPz9D+8MX+L41Bh2jPr7mXvLGlh7oVkfmFgJ+s0O44jSQ8Ts5Mbeq8v9bfI5uFi6ft9fSaT41hO5UMqr4/ObxCGTecxzfO4/dS59se4VuTtB6Q7CuCEaF5W0tsRLdposaG2SfU4pT6T7oXJ9PDUCe+59udsT+VLlVyn/LmMpc5ppocyknx+W09W2bXZEHdpj/L2Xrnt6SFZl06G6zhKjhHPV5J2ypY4TZelo0h12suriqM6bqPy/tr2xEWXYnRtHEf71seYufdS93ru2Kv3tewzqWN2dF3psaXD1Mnj9n/iEtl07fe/Vsn+VIVretxVyvZ1Q9wvJG/niQtwsuJev0A0IwwtZqOSL55a2rGp6bGzcY9TWxYymcQxJr172GCZeuf+xXlh0mR/PRj9IfUKy5rXckvch2Z6cqNdXsqn27hvEC+VVnbC3txksb2z6XS6nosQLf24hzfjGHnZNo686tsfY42P4xjmkkxveZ3KA3ry+jLOW+q+Xawn5xf2x3V+NJR3WiMOLWYyCp/+D2Q8je99tVMed2DHuFY7HTd5e100XICT15PhTfJofDG5Tk2SMxPz+tIfzWSxOGQmo42o9XCCdh/9I3asa7mrVEVGKwT9sODty3qEwXveVoZ9dD39d8x6mJgpE/qpynC2gr7P28V6V/cSmCFW69csL2Q20Xufb71viLy9CRouwLOQyljSvWjLT7LuFHG99TjbVXoMcFte3yTjYxcTeVv2WhIkeueSdGLmX1+d7s26kHNTKjS5lhvjPpRkn5Pvi1COG44j53s7UJBOp+u5CPnFzk04WF7WQm9/k+M4kvXbxLbZ9nax0FIek27+KD+yer2h3Nzf6/ElT/5N/h9+lVjTPG6rE7lWTY+bvL0RGi7AM5GZdFkyudB5FT9WNq9o/HCQ4RW9q4/rCXuml+8QX1r8fAzlTaqgTzf0lvPrdW+WuG80ZNb2a5l67WlYibBxm9eH9pOJna1a77P5vghTkbGF7/2NXA33qQXg+Uq/nvdD9nW7S/u62pLe+8Z5WUkFLxmuk5qEvPP9sdtxHE4yTKyqcr7uZNKz96HQybSQST95De9y+raYH5lzZV6buz7WXuqcxsPpds/j0va6VoVrf4xrRd5+ULpxACekemJgegJl/Lf0uoolNduu2YS9ivCZVzVum3z4fCXXqWyx5yVzrkoWM+k1jM1odi11B8rD6LVybDyHmsCZXxzHWbnZCPDMJWmnbDJ7yrZ7YP3hhulfFe/BqnwqG6Z4f2y6F6zax3EEqXu/crPp/MHe8+tjzL/yeb3UOX+6pCdr75rH1Yqj/FoZu117u2y5VuTtyfIUeTtPXIBTs+5uyUtPuox7psy35gbiuenPOKIZTfJYv229K7nXyKMtzmT0Qh+7JL2EG5hzFfjh9cmE1tLHNa/QvL9J9cg1vJbDm/AVmengjuuJH9zL+/VYgzb1k17GHDNuezbpl7w4Ai/etntgPQ6leV5m5v55Gs+akxqSFG63xfuj9nEcXjJMzJU3VZsdvkmGIS0+S+a7Cy/eh8eSPdXmlbmpIVR6vB9NPp89WA1m8q3UnIdGeVyFHa7V9mu/+7Uib088Rd5+Zlov9mcAAHZivsMnmvRr3naXquCYb3ju27fjOF62UgMA6LSu5e08cQEA7C34XD66ehmkXt8JADgpXcvbeeICANhb0itXJddbBwDovK7l7TxxAQDsLfxOB9+Mu86P/zbj3qPx1zRaAOC0dC1v54kLAAAAgM7jiQsAAACAzqPhAgAAAKDzaLgAAAAA6DwaLgAAAAA6j4YLAAAAgM6j4QIAAACg82i4AAAAAOg8Gi4AAAAAOo+GCwAAAIDOo+ECAAAAoPNouABA2nIqg7MzOStdxjK3wfazlPl4kNnOYKBxL+2fayvGczYYyDi/k8u5TDXcOowuAw1UurkmYRsdR9NjrnlswJ6WmubHmrbW6exM09m0Ks1XaeueRne0dU1r5mXk0/WsAACJwFs5mjU6jrty3fzirwIbbHfBynNkZbJfcZwoXv03/F2clVd7A/7KtZ9xXG/l+74unsanv3u+DWMUw3kaJtq+lzueJmGbHEfTY657bMCefHedDp3wHo/TpS56v9fT1j2N7iCf7mo+TcMFANJsw6V2naWhwLMFQW4DQVyBqrXhuIDZXoD6rglXPJ54vZOKoEnYJsfR7JjrHxuwL5M2TSUrk9RsHiDiatVsu3buaXQJ+XSia/k0DRcASDtow2VTZh//rUZlKX4qtLXEsD1ihV44FVfO1gfaJGyT42h4zLWPDTiUTWk2r2H6xglo6ZqSTx8Ec1wA4GgC+bzQf5xLed2L1iR6cn5h/n2Qxy1jqJefbmUhjlwWI8laPmpsFXrnEm3uMRoX3SRso+Nodsy1jw0dt5TlfCyDQWrsezh3pCxxL2U+1bCpcfKDwTQ3n6xJfMfUzj2NLiGfzupWPk3DBQBKPDzOZT63y3JLCVVXXOhcnGtRUNR/5eh/F/I5iH6vEoQljJYkwXSPScV9iTb3WYusbXJhmxxHw2Nu59jw1JbTt9IfzfQnVzzfF9/3xHUWMpv0ZZBrbMzHfRlNNKzraTgN67m69jZTMWwS397m1zIxydB9L1fb6mUt3dPoEPLpgi7l0zRcAKDEYjKS0cgu/b7NkA+ZHde1lMewhJnJZDSRh4vLXEVuJP34lS6913IZlje38mnbrjcJezANjg2d1nv9XoJgJff3N3I1HMpweCU39742O0wS+5Sq2Nhr7njy8eZKw2nYqxv93H2m0VA/vh0s406KafSmJtNAclzxb4Y2ANAU+fSh0HABgLTeldxH8//WS6AZsiNR72536s2ueKYip5W9pCIXiGcKtdmdHWbTk9dRKSeTftQTZipo03BYTj/qVV5rEvbQ6hwbOq03lF6h63ZD77GpiG16z2zT+BpYfvpgOykmMplFCd25eGXqZ8CeyKfbRsMFALboaYZ875u+Xc2PP0w7U585L1Tk4rHIM7mzpUbv6l4bXq44tifMVNAmtw9y4ZneMQ3gvNLqX6RJ2EOrc2zoOjMvxTzFGMs4XK7ltlCx6snVx6indjLqR98BUTnUpE58zZl0n3RUBOE9oDeAjLRi2ImHrDhp5NPtouECAHX0X4kpE/ZSmDyZFY0bduTVxlKnOFFym97QDL1JPUW6v5ebq3PTaVcY01wrbJPjaHTMzY8NHWUm0p/1pR8+xZjJzC7mahf0TE9t9GTT1RDhUJOzXKOhSXx76UX3gGm8aOyT6y21r1buaXQK+XRBl/JpGi4AcDSbhrbM5c7MPdbio9iLlZWfKJmIxx7XqCjN7ySc6vymxjj+Qtgmx9HsmFs5NjyxpUw/mEaFI64fJJWrlR1GUsE82YwaMPlGw27xtaKiIpdo555Gl5BPZ3Usn9abHwCwUfwe+/3fWx9/yVc+ntIv/0q9lz8TOv5CsPy7/KvW58XxbgtnVIRtchyNjnnfY0MHVH3XhK7Pfx9EKfv5dbrYN74q5r52Vp6fT1HB+sv86tyPjdI3TkKja0o+nThCPk3DBQDWooqQo5UZ13XtYjPt1jJjWwkL47PbsI2iQgUsLgQKFbOkISVi91X3Of49Xe5EFbDU8aQ+lyufGoVtdByNwtY/NnRXXPF3XG/l+/7K89yoYpW/5mGFy1mH831vnTay9aSa8TVSktZ0qYy38n5skr5xGsinN4d9unyahgsApARhxSnVWDGL/u4WemX3EGjFK90g0ozeVMgKW6jqyQuZXmH93DoOW6nLBQy0UHXWBYxZzLbK4msWNlT3OIwmYWseG7pMKza5623uoajSla4EFa+1qTSVPQWpF19TGodpBKXTvbnfvZJ0v+l+bJS+cRLIpzeHrXlsbTsz/9GNAQAAAEBnMTkfAAAAQOfRcAEAAADQeTRcAADAMzCX8dmZnNVaxhoawKlhjgsAAACAzuOJCwAAAIDOo+ECAAAAoPNouAAAAADoPBouAAAAADqPhgsAAACAzqPhAgAAAKDzaLgAAAAA6DwaLgAAAAA6j4YLAAAAgM6j4QIAAACg82i4AMAm87EMzs7kTJfBdGlXHtNSd2Gw3odwPwZjmTfelWI8Z4OBjOf2z7HlXKYabh1Gl4EGKtvcUsOONY4krMY33T9spOb+AntqnjbLtHWfojteWN67nGb3MbPocdtg5nimg7Iw6WUgBysuVwCACsHKc2RlskqzOF5g1x9LavuOs3Jdd+Xqv9H+OKv6u+OvXPsZx/VWvu/r4ml8+rvn2zBGMZynYaLte7o3icBL9sMx+xWHM4ubjlP5bv2wobr7C+ynUTqu1NZ9iu54gXlv4K0cXe84Jlx+8VP7EKx8ryxMtJg4RFw9osOg4QIAFaICQgspzaRNRn/shsu6gMoVMEFcGNWqWMUF8PbC1ndNOFkVy75offr4zb6ZgjcTpS348tvaHDZfwNXfX2BfTdJxlXbuU3TJi8x77fq9kusR0jwNFwAoZXvATAZsM+PjNlw2FXrx32r0atnCaPu+2+PN9e6F4oJua2EU71edwq/i+GrvL3AoLaTjUIP7FB3S0jU90bx3++erRQ2tsvPWHua4AECJ+XgkM3HFvxnaNccWyOeF/uNcyutetCbRk/ML8++DPG4ZR7z8dCsLceSyGEnW8lFjq9A7l2hzj6VjqIscedW3PzZUe3/RcUtZmvlhmbHwZmx96Sh8mU+TuWRmGQymqTH1RpP42lInHbdzn6JLXmbeu7flVD7M9N/S89YeGi4AkGczYMd7J0/VbFkXZhfnWlQW9V85+t+FfA6i36sEYQmsRV8w3WMCcl+izX3WIn0TW+Dr9s63FVzza5mYsO57uUqFbWd/8dSW07fSH5lajCue74vve+I6C5lN+oWXXMzHfRlNNKzraTgN67m69jZTMWwS3/4apOOW7lN0yAvNe2MPj3OZz+2yrH9vza8nelZMtFel56019skLACBkH6OnH9s/xVCxLUME4jHYmx/rJ8MHwv13vZVW+qLJofH6dQQVwwdC8d82D4+oGhceCsx2o20nk07z8TXZX3SaXu+gkI7KhsSU3G9lase3v43pOK+V+xSd8iLzXhUfd2FxVu7Wss/ei0cYFknDBQDSbCMlk/8frOES2AIlvdhttFp4urUKxHXhFxZU0f6YFxMkhdmGQmld6JWHSeJOlvDtOZn9ara/ODVl1zBep5W2bGKo4QBpYks6LmjlPkWnvMi8t1ygjZ14HzYdb7yNY3TuMVQMANbmMjbDUVxfjjK1ZX4to9Eot1znxva3ozh8IB6rPZM7u8He1b0EvitOOAQn2p/J7YNceGZYjgZwXkn58Gk9b30zTMARL7gpHV5n4tYyxy5BuB3diIz65e/7r7O/6DozL2Uq0/FYxuFyLbfhcJa0nlx9jIZ9TUb96PstKofR1IlvH9vTMdDUqeW9ab3hldyb8Gr2YVpxX87lOhp7Ju/Lxp61TQ8EAKDWvUb599jH7++3672NPW1t2TwMRssS3aftb2/ZFC76W53eYLsvpQHj3sMdepVLXp3Zzv7iyem1TXqL80tFz3B6GE0+DewQXzO7puN27lN0ycvMeyvFT3SqhmQ2iasFPHEBgJzFYiazWWpZ2G5du/72KK8I2jQpcy53Zp5yjYmY1RNJl/IYzkCt8Raa+Z2E06Lf5PvzzDco98OJnlpm7f6UKvXGnFb2F09M08WHWdgL7PpBprdXK1qVTO/uzf0q6hHWT0+u40dru8VX3z7puJ37FF3yMvPe3UT3pjkW792uO9GQ3vwAgE1sj9Kxv1ukatzwesxyuocrNS47EzruDcv3llWtz6vsbUv39m2KwYRzSuYvBLoL0eczx7Hv/qIDqnqsdX2YZrY9Icn3Mu8b3yZ107GquMca3ac4CS8y7y2VbKu0/HuCfJmGCwBsYzPnYzdcwoqZKRTCgiEetmZ/z1fW4gKkUIlLCh4zbCEz9C03jCEe2pAMkUs+lz/0dcGXH1YXL+vxdCXb1yUskMNl9/1Fd8XpI5wEvGmicVg5c9bh0m9dStepasfXUP10rCrvsQb3KU7ES8t7o04AR/cviSveV10qGibxvhyzbU7DBQC2ebKGiwq0kpYuQLQAMpW3wp5U9fqFTA+bfm4dh60A5gIGepzOuqAzi9lWeXxJgVixZAo63b6paKY/YwpILWCLcRv19hddpmkkl25N73BU0UlXmIrX2lTIynqJ68XXRMN0vOkeq3uf4nS8sLw3mmOWPl4btirjrXwidFhn5j+6cwAAAADQWUzOBwAAANB5NFwAAAAAdB4NFwAA8AzMZXx2Jme1lrGGBnBqmOMCAAAAoPN44gIAAACg82i4AAAAAOg8Gi4AAAAAOo+GCwAAAIDOo+ECAAAAoPNouAAAAADoPBouAAAAADqPhgsAAACAzqPhAgAAAKDzaLgAAAAA6DwaLgCQs1zOZTwYyNnZmV0GMp7OZWn/vr+lzMcDGazjP5PBYCzzXTawnOq+mjj083bVRvPxeruD6YYN1oi39nnSuNLHml3S8S9lGm5z0zKQTbsN1JZOl+b+s6urmfQep8Oa9xtOGPl0sqTjf9p8+myl7M8AAC0wzkYz/cERx72QC3mQ2WwR/c31ZXUzjH7emcn0+zIxUTqOuBcXIg+6jUW4QrzgXq56YcCtltOB9MOIDFf81Y1s3rvUtpXjBXJfsrFa8TY5T6ZA7E80qCvmcLPeyDsNG+2FVhSm13L3Ofyl4GE2k0Wt4wRqsOkyTulV90Os+f2G00U+ndWhfNo0XAAAkcBzVo7nrwL7eyjwVo5ml5rTr3y7alcmfpP1aqFh10QC3y1dXy5YeY7ZHwn3Nfp5+75F23ZWnhdtSwtE+5dY/XgbnSe7vtahVWl0foAa4vTquivX/Ot42fSc4UdhXK/2/YbTRT69oyPk0wwVA4CU3tW93F/FPUtW77Vcao4u8iCPez3+XsqnW9tj9y7bF9UbvhMtgERmd9uHEiw/ye3C9PqtdF/7duU2c7k2vXPue7k6t6vyGsR72PNUNL+Leg3z5w3Y3xt5Z26+xUSuq26++Z2YFOi+eR39jmeMfHpXx8inabgAwNEE8jksDy/ldeHJf0/Ow8fzNQqT3pXcr+oPVTDm45FWvFzxNw112yHeo1hO5UNYHpadN3STGU6SjNM3y2AwLans1ZhHYIa7mL/p5zO3RjwmP79+B73Xl1rdMvXRsuroUqZhAnTlDe3mF4B8eidHyqdpuADANvPraLyx6QXbJ0NePmpxpy7Osz1gVv+VqTot5HMQ/d4aW6A43rvDjsnfcp4eHucyn9tlWb+qOb+O5iG4769Kzxu6Zz7uy2iiic71xPd98T1X197mKnvRWP5wCH463GImo35qcu/wRnzz8dwTkShdOOJ9bCFdxL3QZT3pYQ/3Ee4fdAP5dKfzaRouAJC3jDPuqUzHg2hyo7OlF6yztHL4VgsUx5OPbXfRNTxPi8lIRiO79PsSvd1mW8E4l3D0Ab3dJ2Qpj6bmZ9LczZUMh0MZXt3I/X22l3g5fRtWoFz/Xu7T4QJPmyMLmaRaKcMbX1OAtitG9u1G83HY4HG8jy31PPfk6n24BfmQS5NxA+mSx304GPLpumi4AEDO8tMHm3FPZGLfwOJcvDJly+mxvWuH6AWrfZ7CoQ0r8zKY9RL4UeV0NunLuGx0jrWcfgjnFtDbfYIWt/Kp8t2xdh6BVqDe9JeyXKYWOZcL06n98JhKSkO5CR+7zGQ0Hss4arW0W8kbvgkbR4vbT6nt2grZvk9bgU3Ip2uj4QIAOWZCY5J5B5p5a3VmNskOXzkJ86iC5/pyiIdF+5yn3lALybAiqh/5UDVHwU5U1erke2qNJ6QnVx89cZ2FTEZ9ORuUfW+EnUcQDgvrSz+zjCR+Y2tGPGRsNtNKUktDxDKG8iZsuSRD0uIKmcvjPhwM+XQTNFwAYKOeZt43NvPODl9prHcu0bzOdE9yIohmhMqrui+g2WLdC/ZwJ2PTSx0vH8IR3LK4vQ5/1zplC3Y4T/1XerQb2Dc5aa2Rpy2npnclN/dRj60b9tiOpF/2pXSOJ36glamy5T7fMLFD0EIHmGOghu9MD7NW0sJJ+vFTIU94md0LQj6d1bF8moYLADRRUZjV05doXudnKda54jHCF3LecqfVYjGTmemljpfwS9TMH6Lfb9t+J6ax13ky4jc5HfbVmjgs02MbNWDyFaXkXpCeVqbKlijg2npOjJeb79Km9CR9O3zHuXxd2Bc8Z+TT9R0/n6bhAgBrmgkPBjItjMtf2vfTq4o3zdTTk9dRragwATjudcv0WsWvex3nh9nUkx0ikFrso3/zjczm903fFl6ujfOkcZjJqPpTacUwfvMNr0B+Fnp2/kii+l4IhfNd7M+G3gtvw1aEJ++u0vNd2m66JPs1MsN3GKb4ApFPJzqYT+vJAACEkm8k1px45Zpv1NZFizC7ro1vy7bfwG0WJ4rfXW8zF3/8LcSF7Qb6J/vZ9f45Kydel/+m5Dwbb9k3MteLt8l50uPVsI6ThHNd+63UZqn4tnIts8O/80X5Jyj8Bm6TbryV7/u6eOs0nr2eyb1gwno2rGfTR5I+4/TmrNJJdu80sv7m/HwEqXu08Ld4X9rIC9Bd5NNdzadpuABAhhYKnmbu6wzfZNqamW8rZJoI/HXlLFqiSl4h/lTFKvu3VKFaumypVFUWiE3irX+egrDimj5eG9avOKPxcVcUlug6U7HSNJ253q42TMqu5vawgZdvyFhxOtmW3qtUNlw2VchouLwY5NOdzKfPzH905wAAAACgs5jjAgAAAKDzaLgAAAAA6DwaLgAA4MTNZWze7FRrOcBrlAEcBXNcAAAAAHQeT1wAAAAAdB4NFwAAAACdR8MFAAAAQOfRcAEAAADQeTRcAAAAAHQeDRcAAAAAnUfDBQAAAEDn0XABAAAA0Hk0XAAAAAB0Hg0XAAAAAJ1HwwUASi1lPh7I4OxMzuJlMJDx3P75aIr7MRiMZb60f25iOZXxwMShn7erippub9t5Wso03OamZSDTqvjn43Xcg8pAQEt2Tm8t3qc4QeTTu903zZ2tlP0ZABCay/hsJDNxxHEv5f2bc133KHd3t/Lw6r3cXw2jYAdnCpO+TBb6o+OIe3Eh8vAgs0W4QrzgXq56YcCtltOB9MOIDFf81Y0Uj6Lp9uqcJy0wp9dy9zn8QMHDbCaLOvujHC/QOGseMNDYrumtvfsUp4h8+qj5tGm4AABiwcpzZKXZ78oL7KonEniO6VhaievbNZHAd0vXl4uPR1aO59uf3VXZJ5ttr4XztOU4ov3R+L0onBaI9i9A+3ZNb+3cpzhV5NPHzadpuABAWuCtnCNkvtttKnDiv5UXbBnh8cRxbPpcw+21cJ58t2p7hr9y48LSFpw0XHA4u6a3lu5TnKiWrj/5dG3McQGAlOWnW1mII5evn3psRyCfwyf/l1LclZ6cX5h/H+Rx23Di3pXcr+oMVWi2vb3P03IqH2b6b+n2zJBpM7TBFf+mODABp2ApSzPuPTNufiDj0vHvZphKMkY+HCc/mObG9zeJr7nd01tL9ylOFPn0sfNpGi4AkBKEpYLm/oGZIDnIVZLmWn06kuWjFj/q4lyLo6L+K0f/u5DPQfT73hpub9/zNL+eaGwi7vur4vZsYel470rGU+MULKdvpT8yNR5XPN8X3/fEdRYym/QLk3fn476MJhrW9TSchvVcXXubqew1ia+xfdLbse9TdAv59NHzaRouALC2lMewVJjJZDSRh4vLXCVpJP3jv1asg/Y9T3O5M3VQrYS+KZR4S5m+1cLS8eTjISd44qB6r99LEKzk/v5GroZDGQ6v5Obe1yuu1arbT6kKk01L5nrfXGk4DXt1o5/L9j7Xj68p0hueq+eZT9NwAYACVzxTSdKKVFJJCsQznVmzu9wQlpdst/O0nH7QorSip25+Hb6dprSHD6ejN5Re4QL2JeoQ/iyFDujFrXza9O7YpvHVRXrDs/e88mkaLgBQ4ryQG8fjh2dyR8tlrfl5mst1+N5MV94XeurmMjbDgVxfmNryHJh5KVOZjscyDpdruTWXPqMnVx+jHuDJqB99t0TlEJY68TVBesPL8JzyaRouALDWYDLlofXOzchk3ZXH0kpcNHbZkVf96Pe9NdreHudpfhf24on7ptCLt+7he7izFVO7fAjHO8ji9jr8Xeu16LrwC+n60h9NZDKbycwupe2MnukBXklghrBoiHAIy1nuy+6axFdTK+nt2PcpuoV8erf7Zh/27WIAABW/I7/4yvpNr6E8hE2vxLSvoGz8mtU6r9mst73dztPmc7j+foItC69F7rrkOrt++lptSmOJ4vdR7BdflXbS26Z92PU+xek4xPXfFGez7T3HfJqGCwCkxZUmx9PsO6Vq/QHFBUS+AFgXHOnSyL6v36yr3r9NhV7D7e1ynnY9h/ZzNFhOha1AFa6zrt+Q/hL28+v0tm98DVWlt4p7rNF9g2en0fUnn94bDRcAyIgLDbM4K9d1tXJkC4SKHqjDsRW2sBDR/Qj3Jd63XKEWFzaFwi7QP9nP6hIWmnocTrzOSxegDba3w3mKvsisrPdviyMViGhPfK0d11v5vh9+q3aU9sySSkv2i/ficL7vrdNctv5VM742VKW3ynusyX2D54d8OnSkfJqGCwAUmEJEC40wc4+WsML0FPXmQCtpui/xfkSFWUlPWGVPXqqQK11yBV3d7YUanKd4/5r24hk0XE6QVphy6cgM84oqRek0V0xDpjLmFRJR3fhaUJXeNvWWN7pv8OyQTx8tnz4z/9ENAQAAAEBn8VYxAAAAAJ1HwwUAAABA59FwAQAAz8BcxmdnclZrGWtoAKeGOS4AAAAAOo8nLgAAAAA6j4YLAAAAgM6j4QIAAACg82i4AAAAAOg8Gi4AAAAAOo+GCwAAAIDOo+ECAAAAoPNouAAAAADoPBouAAAAADqPhgsAAACAzqPhAgBrS5kOzuTsbNMykOnSBt/ZUubjgQxS8Q4GY5k3ird+HMvlXMaDwTqcOYbxdK4xbLCc6mdMWI3TrirQeKe6D0m8ug/jqngPvL/ALjSdp9NkdtmQ9gvauKfRLeTTYdiu5dMrAIAVrHzPXblu+eJolinirnwbejfBynNMPLo4ThS3/hv+Ls7KC2ywjerHEXjJeic8jvh3XdzyI0k+Y5aq4/VX7jpeb+X7/sqL43Y83cO0Bsfsu+v1dfcX2Fnghfe145i0ll/8XDqu0sY9jW4hn954zE+YT9NwAYA64ox6z0x5Xdjk4gkaxN8kDhPW8XIVMFtZKxRGqYLLfCb6ubxA9N0oXH534/VOKuL29nffRiOQY9NWPh030cY9jW5p45q2l++RT6fRcAGAGqKMvm5PW5W4wCmLJ/7btky/zThyBVpY8MTxborL9uIVeuxUXHitI25zf/c9/0DO3g2XNtI3uuXQeVbTOMin05jjAgDbLKfyYab/Opfyuhet2k0gnxf6T2k8PTm/MP8+yOPGQcJtxBFz5FXf/mj0ruR+dS9X245x+ahbqNA7l2gXHu1Y5zb3F6djKcv5WAaZOWNmDHzZhV7KfKph1+HMuPppbsx+k/iOifT9/JBPZ3UrHdNwAYAt5tcTMXm6+/5Ks/A9xAXJxXlpPP1Xjv53IZ+D6PdSbcQRF1JadJ3vdUBl+hLtwmfdimpjf+fXMokuwPbCGp2wnL6V/si09l3xfF983xPXWchs0pdBrrExH/dlNNGwrqfhNKzn6trbTCWpSXy7eHicy3xul2WD+Fq5H9Ep5NMFXcqnabgAwEZzuTP1Ja0wvRmGK07ecvpBokN6IzsdUu+1XIbl2K18OkQP3DKuRE6jt+GYCqvjin/zTC7AC9B7/V6CYCX39zdyNRzKcHglN/e+3kUm2XyyvbzGUh5Njcnx5OPNlYbTsFc3+rlsj3L9+HazmIxkNLJLv9+Rpzl4yciny9FwAYAN4sLD8d7tVnh0zXIqb6NusT0KmJ68jkpEmfSjV2CaAmwaDvfpR71ue1h++mArkROZzKLInItX+ofwR5yC3lB6hV7XXC9vmqlcbXrPbNP46gqH3YTzfddL4HviaNo2T3PG9d+HDLSHfLoSDRcAqDSXa1t4vH8WY5TmMu6bYW+OeMHNXg2x3tW9VvBcccLhOlFP9eT2QS48M4RHAzivtFq5GxN3UpEMwu3oRmSkhS+d4KfEzEsxvbFjGYfLtdwWKks9ufoYDfuajPpyNogqWOWXuU58++sNtTFj0pyafZjSXsaRkU9vQsMFAKrM7/Z7VJ9XmBCZFUSzI7MTMfN2jsN8ueYoPB7XrzGxs4be0AzpiQsuXe7v5ebq3HTwJWOl9z7mXrSdsCKpldtrusBPgplIf9aXftgbO5OZXUrbGT0z7Ct60uFqCFPB6p/lKj9N4mtD/5WmyhrauKfRLeTTBV3Kp2m4AEApLUCiV4mJ966VZovaNLQlnkuzbSLmLnGYwjAaGuD6KznoEGTb2HPXE4LaOOaUioIVXRLdO6bH2PWDpMK0CsTb0BowTzqiBky+8rNbfMfRcvpGB5BPZ3Usn9abHwCQF3/pVtk78PcQf8lX+ou/jNIv/0q9az8dulEc63frm+8CaHIkdd/dnxLvb+6c1d9fs01n5RX2M1h/YVr22NBNVd8foetrpSn7+fW13je+ppJ7JpNmW7kfcQoaXVPyaes4+fSZ+Y9uBACQMh+fiXlJiua/Lfd8zWV8Fg0FMG9gcc3z+YeZRHMbXfFXqTHN83H0ppb8+gZxxMexDpf36o3cXMWhlxr+Wu7sbw/hUBxHP3oh4Uc17DsNazrdongdceNI19s347LzQxzq7m/S42jiieOO9sPInwd0VZzuHNeT92/O5fHxTm4nJddxOZVB/1ZXXYbhRB7l7sMkTBvpe692fI1ouhyM5EHT2sVFfHM8yCxKmLoxT4L71CvQW7gfcSrIp6v394nz6bD5AgBIVPRItSbwV55re7HCxVlphay4rYqevFCtOJJevMolc4y2Z7tySXr1At9dOZm4zfZL9jNW95h1je/l4naclettiBsdpGkvd71NT3LUI5vuHTbrNC2sw+niuKW9ufXiaybwvZWr6SuJVxeT3sp6vfe+H3FSyKdt+G7l0zxxAQAAANB5TM4HAAAA0Hk0XAAAAAB0Hg0XAADwDJjJxWdyVmsZa2gAp4Y5LgAAAAA6jycuAAAAADqPhgsAAACAzqPhAgAAAKDzaLgAAAAA6DwaLgAAAAA6j4YLAAAAgM6j4QIAAACg82i4AAAAAOg8Gi4AAAAAOo+GCwAAaNd8LGdnZzKYLu2KjujqfgGohYYLAOQsl3MZDwZhBSdaBjKezuVpqjpLrWsNZLDeF610DcYyb7QzTeJoEFbP07Qk7HTbzmnlMf5MaQXSxhvHGYYbP9X5R9csp1HaoPGB7iCfDsMdI59eAQDWAs9ZmaxRxFk5rrty3fh3XVzfhjqWYOU5dtuOo/ui+6P/xvvnBTbYRk3iaBLWX7l2veN6K9/3V77nrpxwnayqT1VqG7o4hYMoxuvF18Dx9NM4Cb5bcX33F9+jO8XdeL9seiTtoRL59DHzaRouAJBiKkWO52cz3sCzGX3dQqgd60ZUrnQJbOWrTkOqSRy7hC3sQnyuCn+IRJ/T86iFp/l8vkD0Xf1sSbzx+kNUhHEAB2y47IWGC1pGPp04Rj7NUDEASOld3cv91VB69vdQ77Vcai4vspDPQbjmCJby6Xah/zrivRtGq6ze8J14Zn9mdzKPVlVoEkez7QWfo7Cv+tHv9czleqKfc9/L1bldlTGXu5n+43iS2wUZvvN0a3oFjncBAGAL8um0Y+TTNFwAoLamBcA+AonKnEt5nWlFGT05vzD/PsjjxgHFTeJotr3+q7B4kttP2R1YfrrVtRpNyYmaj0cyE1f8m1xpF1s+6hYq9M4l2oVHLbpxSpZmrPwgHgdv5otVXcGa4/arJtgvpzJebye3jItVx237NR+b9SbNqsVE+hviwktFPp1xhHyahgsAbGULC82SzwuFxYHEhcPFuRZHRXGBtLFjq0kcDbfXu/oY9u4tJn0ZjKdaudRK53Qg/bCnzpePV7lYtFL5QWuAjvdOKorDLfoS7cJnvRo4FSZ99Eem6u+K6zra9F/IzKSZQuNlKdNBX6Kgnvi+L77nagQzGfUHUtnWiZnGTH8SVrg8+1mTXDTFaXT6e65ruM5+Dd/p5/yoB1kcG69Z8t3MeLnIp3MOn0/TcAGALZbTD1Gvq/tmx8z8OerJ1X0gvlb6FrOJVi610qmFoeMFsrrJDbUzldK3E1k4XrGgTIuH5C1uJddBiJPliBes5P7+Rm5u7uU+sENJbj9lemSX07cS1aU0zM2VDIdDGV7d2PALmVxvfsoxD8euuOLrdq5yn33QytSwkOxq7FdP4xnaHmR5Ja9NvGbZkISBbnl++TQNFwDYZDmVt6ZGtenR+c6WMp/Pc8sJ1diXn+TuwZwbRxzHlGRalk3eFocCza+jSun7q9JewkRPXkclokz60SuozTmZTs1rOfthHDgtjvdRMnWgdaUn3SNrx+07rrzpL2W5TC2iDQcTfuPQk6U8mm5o55U2UVLssJWy8fb19gt4Bp5ZPk3DBQAqzWXcn2j2bHpnb9p/2qIFxWg0yi3X64mVnbYemuOJH9zL/f29rAJfPCcacpPMA9BzaIbkuL7UafeZlyMEvqsFrIknOieT2we58DxxTVmZr5ziGbBDMcNhYX3pZ5aRzLZWhOzY/nyjY34XPiktG8cPvAjPMJ+m4QIApcyY+2hirhm+sunJ+c6GN+aV9LnFNpC2THKs9baYJnE02p4t5MKhOVfJ0JneMByWEL3Z5kM4LyEeZuc83Ml4PE6WD+FIbVncXoe/T1OttZ6el/v71DnRwvbGvN7G7ELF2G48A46pXAUSlC2azjZd9+EbV/+rDZ/wi/XmMje9v2EadeSyOIsZaAf59NHzaRouAFAQTRQOH5v7q1o9UO3bNMnRvo5Si7DNLwtoEkeDsPEE0dJetfjNNlmLxUxms9SyMKWb+UP0++3m1+7oLkS95+6bJ7kYOKgk7Umvp/8vWaKAFfR+DWcUu1pFm8nEPLmcRL+bXuaDdDoAIfLpjCPk0zRcACAj3WgJnqjRYsTjiGfyITcWufRlActp9BrZ8TzVE9ckjgZh416/0sLTzjewhacZUrDukUsvvukh1zLVTBLV3+831S7NsZmew5LvDcBzUJ32QuF8F/tzqWiomXPxRm5SPcBm4v3+E+k3VRQB8um1Y+XTuiMAACv+5l9x3JXrlixe+TcNH4b91u70/jj2d3H1rynxtybn1zeJo0HY9bc3O054TnxfF89dOTb81m9OrvgG8+j8a5zx+V5v31kd8MuY0baK66spZ+WF17Q67Tmut/JMevL1XzdKZ5l4CnHHceYWTZuOpmPP3/TZWNV+xWnSxGfSpMZZ8W3jeKnIp4+ZT9NwAYC1igpQenE8DXVEgb+uvEWLqTiV7EPgrRzzd61UFf9WMw6jQdhAK5auFohJWC3g8hXFKhUFYqDr40I1WqKKYo0Y0SU7NBDM33zTMFhfe13K0lNJ3FEFLVU508XTClUc17qtsdN+aUUxlSaLn8WLRz59tHz6zPxHNwoAAHB6zJuTRrNwOEthKIsZvmLeDOj64fdWADhtzHEBAAAnaxkN1peLshnQwefwJUe8Ehl4HnjiAgAATlf8VEUccdxLef/mPFz9ePdBbmcLXe+KH79mHMBJo+ECAABO23Iu47cfkte3hkxD5r18vBnK3i8XA9AJNFwAAAAAdB5zXAAAAAB0Hg0XAAAAAJ1HwwUAAABA59FwAQAAANB5NFwAAAAAdB4NFwAAAACdR8MFAAAAQOfRcAEAAADQeTRcAAAAAHQeDRcAAAAAnUfDBQDylnOZjgcyODuTM7sMBmOZzpc2wL6WMi+Jv1n0TeKoE3Yp00Hy9/JlINP0Zxqdpwb7e/DzD+QV0+fZYCDjuf3zVm3c0+iWNq5pkzjqhCWflhUAIMVfuZo1ijgrx/VWvu+vfM9dOeE6Wbm+DbazYOU5UVziOCvXdVeu/hv+rtv0AhtsoyZx1A0bhMcZ/r1kiY7f1bMTa3Kemuzvoc8/kFeS5nxP06n+7tVJcG3c0+gW8ukwzsr9fbp8moYLAKQEXpRRFzLewIsy5T1z5Dj+fDyB75auL9Mkjja2t9oQb+HjJedpl/2tEy+wv7iytnsDo5V7DJ3SxjXdJd/bZ3svJZ9mqBgApASfF/pfR171o9/btZRPt1H83rthtMrqDd+JVqBEZneyeXRKkzja2J7I/G6m/83GUf88NduHw55/IGf5SUzydLyPctWz6xpp5x5Dl5BPp3Utn6bhAgAp/Vcmh17I7afsON3lp1tdq1n1Xjl1IFF+fymvC5WknpxfmH8f5HHjEOEmcbSwveVUPoTlYTaO+uep2T4c9vzjeJaynI9lkBmPP5BxZvB9bCnzqYbNjJWf5ipqTeKrL0pXjlwWE2dNbdzT6Bby6ayO5dP2yQsAIJSM8w3H7gZmTHHyCH3H0SSRLY/RKx+/pzWJo4Xt+W50Lophap6nxvtwwPOPo4mvq+O4Ky+eMxJf19yYrDiNZcbKO9mhW03iayLatonTxGfTWbg4K9erkd7auKfRLeTTBcV9eLp8micuAJDRk6v7QHytFS1mExn1+zKaLEQrR7K6GepfX5K5hKMPxJU32dED6lDnifP/HPRevxety8j9/Y1cDYcyHF7Jzb2vKUlkcftJkn7apTw+6D+OJx9vrjSchr260c/dZ4Zu1Y+vCbttmclkNJGHi0vRRpFoo0hcZyGzyUj69V8rBjyRl5VP03ABgLzlJ7l7CB94i+M44arF5O3ew1JOzXL6Qat0pk75TgrloXGo88T5P309rbwUai99iUaYfJYgWpFY3MqnTa9RbRpfI654plGkDaekURQwPwUn4aXl0zRcACBtPpaz/kQLAk/84D7s+V0FvlZiTA9sX85eTA/sXK4nplBy5X3ZrOVDnSfO/zNi5qVMZToeyzhcrsOJ8Fk9ufoYPeGYjPT6mu9Omc4rnqDUiW8354UkHo/rn8kdSQ6d9QLzaTtkDACwfjd9+j34sXhM7+6vTV3H73ilY4Cjccrb4m8Sxx7b2/gazibnaYf9Pdj5x9Fo+nHCa1m2lF1fvcKpeSuF67xDfHVsugeiv22Zy9AofeM0tHFNd8j3yKdr4YkLAMSWjxIOeXdeSfGdKHEP7D42DW2JxylflPT+pjWJY9ftLWUavaKm8GrMUKPz1GAfDn7+cRxR+llo+nH9wHSQ2sUOv6rQC4dorSTQWpImGJlcx722u8VXR/x2pM+FxBnPf9n2ytc27ml0C/l0Vsfyab35AQChOj1Ju/fuGvHbWZxcd1S8PtNzlnrTSzp0kzgabS8W9+JV9L41PU/19+Hw5x/HUNV7q+trXUP7+Xy62Dm+DarSetn6Fu5HnIZG15R8OuXw+TQNFwBIWWfSTvQ61OT1rCYzLmbqzcWZvtmGu3JdXWzchcw+LpgKhUCDOBqFjUTDAjYPkWl2nurvw+HPP44hTkPxK449cw3D65275mGlz0lehZwaLpZOf7XjayyuaJlF01yYNm0azA93aeV+xGkgn960D0+ZT9NwAYCcaKx9XHmxGbFm5J7fUmYcaMXLTccfVdwKsVf05IXqxmE0Cmu3WdmLl2h0nhrsw8HPP45AGwS56+3q9YsqW+lKkFmnaSF1rU2lqXit68a3i+I+hA2kwi60dD/iNJBP61K9D0+VT5+Z/+jGAAAAAKCzmJwPAAAAoPNouAAAAADoPBouAADgGZjL+OxMzmotYw0N4NQwxwUAAABA5/HEBQAAAEDn0XABAAAA0Hk0XAAAAAB0Hg0XAAAAAJ1HwwUAAABA59FwAQAAANB5NFwAAAAAdB4NFwAAAACdR8MFAAAAQOfRcAEAAC/TfCxnZ2cymC7tCgBdRsMFAKospzIenGnFZixzu6odS60vDWSgFSZTaQorTgPdRqO6U5M4mm6vGP5sMJBx6UloM+xSpuH53rQMhDom0pbTQZg2aHygXU3zzTJN4mi6vTbz3rRtYZ82nz5bKfszAMAylaH+ZGF/c8Vf3cjQ/rYfk+n3JYzaccS9uBB5eJDZIlwhXnAvV70w4AZN4mi6vbmMz0Yy07857qW8f3Ou6x7l7u5WHl69l/ur9FloO6wWmNNrufscfqDgYTaTRavXAs9BfK86XqDpaOvNk2WeuIw0Vdb+rE3HjifB/ZU03BpOBvl0Z/Np03ABAMSCleeI6dBZOZ5vf3ZXvv3rvgLPCeMWNxtj4Lul68s0iaPZ9uJjd1ZeYFdVOlTYCg3OD1CbTVfacLErtvFXrkmHjqepGs8V+bRd1dQR8mkaLgCQFngrZ51xxxl5Ww2XTQVD3W01iaPh9sJjr1mJO1TYCr5bdRzAHmi4oKBhvlmqSRwNt/fC82nmuABAWu9K7ld1hgHsIpDP4ZP/S3ldiL8n5xfm3wd53Dg2uEkczba3/HQrC3Hkshi44FBhSy2n8mGm/5YeBzqnasK7Xsdw3PxgKvkkPh+XjYsvjrUvHfO/YXvRHLWSpWRw/1LjGazDD2Sciy/aRzOMRi0m0t8QF04Z+fROjpRP03ABgGNZPmrxoy7OtTgq6r9y9L8L+RxEv5dqEkfD7QVh6amlZGAqfNGE56QSN89UNg8Vtsz8eqJ7KeK+Z07BSei/0uqPpqx8Qg4+h9dR/6BVtbSlPJqEmqnwRGP+R6Yi5Hri+774nqufncmoX2Pir2nM9CfayHDFs581+6Qb0ej093fZ0feLSV/60cbEdR0NtZCZrks3hobv9HO+F8Xj2HjNkosLJ458utP5NA0XAICylUet6k1GE3m4uLQVM09cx1TiRtJf9ywfKmyZudyFXdyuvKF+eBp6r+XS1LVmd3r1EnNzIV1tGGhauEv/YflJbrXG41y+Xld4ltO34URl17+X+5srGQ6HMry6kfvANBwWMrnelGbstswE4fsbucp99kH6MizUrMwE6JXca/ibG91mGFari7efkgpbT+MZnpuqnXolr028ZjlkLQ3IIJ+m4QIASHGjCpxWFsMK3/BKbu4D8UoqoocLm1hOP2hRqtVK7x1vEjsZPXkdtVxSDZSoYuS8eiOmA3mWarkUh6gs5VPYktFKUH8py2VqEW04mKgfHvXnKrYS5rzSJkpKL2p0FJ4EKcf7mB0eGje+Ck+HgC54ufk0DRcAQMZ5oQc5Hmed6ylXhwobmct1+H5QV94fZtIRDqT3+jJ8YvGQDMyX24VpnAyjRk2q4REOUckME7Nj/sNhYX3pZ5aRzMzfNrLpKt/omN9FlatXmeYMcJJeaj5NwwUAjsX2+Fb1FkdjjB3ZWK9qEkej7cWF07ZJp8ahwubYiqa4b3jacmrsE4v1UCszv8U2TnomQSxu5VP4h2iISXqY2JrjiR8EEpQtW75DZfjG1f9qw2cwlul8LvPpWAbhHJY9Jh/jZSCfbubI+TQNFwA4mn44TKZ8+Ek8RviipMcrrUkczbbXz00CTcTjn5PC+lBhE0uZRq+oEY/JzyfIDhezDZRwzkk8+Xj4Rtw4PYSVnnxjIkm30uvp/0uWKGAFm3acaD7NZDSS0ST63a/1xYF42cinszqWT9vXIgMACuq+s7+++IvG8u/KL/0CMvtefbMuHbpJHI22F395WP47KsrWHypsbNPfcBps+nX96D7KJjW9tiZdm3RYco2r0m0oCMz/EzatJGGj71px0husUvhsrOrebz9PQPc0yjfJp8v/diA0XAAgI9C82F25dgkLJHG0EmTXednCqTn7BXZhZm/jDCtCZslVhuJCoVBJahBHo7Bxpcwsjg1rC87Cl4odKmwk+iKzbGUXp8Zed73WyZe6RqIKWZQWi40GI0m3juutPN9f+b7+60bpJvMZe58k69LpLbWY/dB7wNOG1Frhs7E4jmIDJU6b0f1k8gYS6fNDPr05bOQp8mkaLgCQkSpASpdiRaaxwF9XwKLFVH5KeqwqevJCdeMwmoTVtb6pjK3DRhXHdF0vcaCw8XEfsRcPh7HuMc5fy/ga61Jd6SmmGVOpyzQ8jJLGR7RdrXx5psETLZ5WxArb3KHhEuYR6wpe2WfxLJBPbw77RPn0mfmP7hgAAMDpM18+OZppfSqQ+/yEFvPt/f2JLFxfVjfMnQJODZPzAQDAs7GMZhLLRdnsafvt/bwSGThNPHEBAADPR/xURRxx3Et5/+Y8XP1490FuZwtd74q/uuEV28AJouECAACel+Vcxm8/yGxhnq/ETEPmvXy8GW55nTKArqLhAgAAAKDzmOMCAAAAoPNouAAAAADoPBouAAAAADqPhgsAAACAzqPhAgAAAKDzaLgAAAAA6DwaLgAAAAA6j4YLAAAAgM6j4QIAAACg82i4AAAAAOg8Gi4AULCU+Xggg7MzObPLYDCW+dL++aja2JcmceywveVUxgMTVsPZVUX1410u5xrfYB3u7Gwg4+lcYwCAY3l5ee9arXiNYtxnmnePN39oPysAQEqw8hxZmexRHGfluu7K1X/D38VZeYENdhRt7EuTOJpvL/Div5vFXfl2fVb9eJP4nJVjwrmp+N3y2AGgXS8v743Vi9fwV66Nx3G9le/7unhhnu14h8urabgAQMo6085VkgPfLV1/SG3sS5M4mm0vKRBNIRX9XF7INd0HE1+2TPdWjglXu8IAALt7iXlvk3iTsMfPk2m4AMDapsw4/tumHqg2tbEvTeJouL2wMRGH3bQ/DeMtFYeTVa78BYCWtZlnnVDeWzteZTuTnGLEB8ccFwBYC+TzQv9xLuV1L1qT6Mn5hfn3QR6PMtmijX1pEkfD7fWu5H51L1eFsHltnlNHXvXtj+i4pSznYxmE4+TjxcxVqrjQ6zH1JUtmwHwb8w6ATV5o3ls7Xr0LP93KQvPjy2LEB0fDBQBiy0fNxtXFuWbrRf1Xjv53IZ+D6PeDamNfmsRxqGNvJV5bAMuFnJdFgs5ZTt9KfzTTn1zxfF983xPXWchs0pdBvvGiDZyz/kRmcVjP1SqR4Yjr6e/vhuFvGqtMB32JovU0ziisLGYy6g+kqk0ENELeu1UQZsja8glMh8NxX6RCwwUA0GnL6Qet1Cr3jcRVWHRb7/V7CYKV3N/fyNVwKMPhldzc+9o00arS7adMxWZ+FzVw/Djs1Y3cB542WxZa8erL0Na6TGNoovUl17+X+5srjTMbdnJ9yFcZAYgs5TFsEc1kMprIw8VlrnNiJP0DvlaMhgsAPJmlzOfz3EK3ccZyKm9NbdVUbG9otpyM3lB6hW7evkSdvJ8l6eS1lSDnlf41pXdu+nM1aBxyKZ9uNR04rrzpL2W5TC2iYU28D4/6M4DjcMUznRM3V6nOiUA8cy/O7ra8Rnl3NFwA4KnMr2U0GuWW64Nl+KdnLuP+RMxYai+44WnLyTHzXKYyHY9lHC7XYtoeWXasfaYxo+Z34VM2Zz2pyQ4XDIeF9aWfWUYyK8QL4NCKQ3fjuTMzuTtQQUbDBQBitpe3quc2Gtfb4gTx4Y15s2NusRX0NvalSRyHOvad4zXzGbRCqj+ZoUF1JoyiQ8zE/DNtVIwmMpnNZGYXc7Xzhm/MADJtkAzGMjVPHaf62XAiS8nkX8cTPwgkKFvur0rH8gONvPi8d5uSif1HRMMFANbKhrLE5hIOxdei4DgTxNvYlyZxHOrYd4k3moQdzWdYCSPETo1evw+mkeLo9QtSjXI7jCQjCmuGgLnhmPmRjCbR736QbrAm6ciMQeuVLVFAYE8vOe+tp3pifzz/ZZcGUU2amQAArPgLu/Lvp6/6Iq9DarQv8Zc06rp06CZxNNpexuZ3/jeLN47LfGdLNjxOhf1GbcfLpMVwfSGdRGGdyrSVqEpHoSAw/wda0SjPejZ5b9qW73GJv8Ayf49XrW8RDRcAyLCVrjDzdVeuq4utSFdm4gfTYF/iAqOwj02Op0nYQDdpw+gSFtziaAXUrst8+339eH03Fy6/aLzovvg6Oq638n1/5XlxGslf86ShmlkcTUuaBrxM4zVJRyZeT+P1ff3XLa+cAbt7eXlvs3jT961j47WNofWXWB4GDRcAyAu0omUrQ3FGbCpKT1ItqrsvFb1+oSbHUztsqkAsXXKFYq14Kyqx6eWAPXlok17L3PU2T9CiBk02bUS9v/p3rRiZRk7Y0FlXnMyTNxswZOLQtLOOV5dCAwdowYvKe42G8WoM+XvRxHvoW/HM/Ec3BgAAcFzmyydHM22PBnKffwPDcioD81Y515cVE50AKCbnAwCAJ7GMZvLKRdkM4eBz+Bay5JXIAF46nrgAAICnET9VEUcc91LevzkPVz/efZDb2ULXu+LHrwgH8OLRcAEAAE9nOZfx2w8yW5jnKzHTkHkvH2+GvOYYwBoNFwAAAACdxxwXAAAAAJ1HwwUAAABA59FwAQAAANB5NFwAAAAAdB4NFwAAAACdR8MFAAAAQOfRcAEAAADQeTRcAAAAAHQeDRcAAAAAnUfDBQAAAEDn0XABAAAA0Hk0XAAAAAB0Hg0XAAAAAJ1HwwUAAABA59FwAQAAANB5NFwAAAAAdB4NFwAAAACdR8MFAAAAQOfRcAEAAADQeTRcAAAAAHQeDRcAAAAAnUfDBQAAAEDn0XABAAAA0Hk0XAAAAAB0Hg0XAAAAAJ1HwwUAAABA59FwAQAAANB5NFwAAAAAdB4NFwAAAACdR8MFAAAAQOfRcAEAAADQeTRcAAAAAHQeDRcAAAAAnUfDBQAAAEDn0XABAAAA0Hk0XAAAAAB0Hg0XAAAAAJ1HwwUAAABA53Wr4TIfy9nZmQymS7viFC1lOjjT4xjL3K4BGuv6vXDo/WsUf4v3nN3u+Alv3vmY/AMAgDL7NVyWcxkPBmFBHy7683h+yo2OI1tOZRCfu8IykJNuvz2ppSbNsQzCymyyDAZjmZI+UUkbQB9mIo4n74Z21dpSGxSDzP1q0lOT5LTM55d6j4+nc405a/jOE0dm8oEMAACAjN0bLqZi2B/JbLEQx3XF1cXRn2ejfsefmGjlwVQaBtNCheHJOE54/rLLpZz37N8PpoPnYm+mctiX/mgmi4WzTpuunuPFYiYTTZ9n42Jl8Wk8x/N/wpaf5Haht+Pla8neeuaJTl9Gs4Us4nvVpqdRv14Hw3I6kH6YX2r8YZp0dK3ml5OR9POPd3qv5VL/vLj9RLoAACBl54bL/E4rhuKIF6zk/uZGbnS5X60k8EyBjEYu3ofnL7tcSaHTF1uYCmZcOfQlWN2v0+bN/b2sAl/C5DkbyVt6s5Gz/HQb5mmXr3PNlulbmWiaEk1TK01HcXoKfFdXLmRyXW9Ql+Ol06RJj+bJipp9yDV+evI6arnIJ5IpAABrOzZclvL4YP69KDwV6F1pwXx18EcFQNH8OqpgOp58vBnmes1VbyhXH6PK4mJyzRwCpCzlU/S4RbLtFrvedNK8y3Yl9IbvbEP4bmtaivLFXJq0T1ZM4+dzEK5Z672+1C0u5JaWCwAAa3tOzp/JXa3a377jw5t8filTDRuHM+PIB3ZoUDTpdaR7rRYT6cdhMkM1GmxrOc9uq+GY92bq7lfZ/A4zlj4bcOu5qJykbJ5qmLC6bbsmlApv9jPe7jQTqP4xzKd6DJlw062VQ/MU0HDfXxUbLbHelbw3HeWptBudi4oJ2fa4ssMfax7HhnNSLy1GstezeC1DT3j+a+1fqBhv43lxje45OxTPnIdtm7DDxOTiPJd2AvkctlvyDRqjJ+cX5t8HeWxwCEWOvOrbH2O9czFRM1wMAICU1a58d2U+bhbH9VeBXV0UrDzHhHM0nLfyfX/le+7KCT/rrLz0B22cTmZlg8+v/JXWScM4xHFXrqtL+FkbZ6Cf9b3os/p3z8RllnUc+23LsduKFldDbBHYfdHzt1n9/Qo8J9y+sz4+L3sOYtvOhb0WxV2L9yV3fKn0EO2nOfe6b+tA9Y/Bd6N4MuFMXJnzn5fEvzlc6hzFATdch2hf0nE2SCObzknN8x8v5nq6rsYR/54/yGOf/6b7t96+LhpXeG+mw+fPvY0/G0/Tey4On9v3MqXbU1vu0Tgtbb2FS8X7V5ZXxOerRj4CAMALsXvDRQVa2McVj7DQNxWdQrlfUbCXVQhKKg9NPl+okMbCSqL9Oa4sOJ5WDbLa2Fa8vlHDZV2RSy1JjbPRfpljDfIHVnnM1ecivhaFbVZVqGz4qkpi/WOw8Zft00abKoFZxWtXVUksnp9G12LLOSmLf63qs+s0k/vMsc9/w/2Lt585P6H4uuXisfGX5QV73XMVGl3XlMrP1VB9TiLFRjMAAC/bXkPFekMzIT8Q33OjeQOzSfiWnWS0Szxu3JU3/aUsl6lFzuXCfOjhccNQiCafj8eiu/I+P8emN5Th1pnu7Wyrd/UxGvfehHkb22yWXW5z26p7DvVYe4UhLX15ZcItPktuKH3rHO+jFKc4NTwGw0xMbjKEaC92MnR+6OP8LhzKlbxlaofjUOXnpJ7CZ+N5ERXX8tjnv97+JfeLf5O/EYfyLrxhts3nSOJo5Z57asupvI1m/JecEwAAUGbPOS5GT4ZXcQMmqoDMRvH8Bzs+PHxtaF/6mSV6+9NmTT4fj0V/pdX0XRxzWznmbUXR069kuY/naexyDrVCOp/KdDyWcbhcR+P3n0yTY+iFE+hdZxG9utjMgSj5rosi2zhrMN/gIvVmiWgytJlnnbRcojkz6bdM7XItuuAY53+TzfdLL5ooom2dTc3qzXGclrmM+xPNKc1bGW94eyAAADW10HCJmQbMvYRvCM33XDue+EEgQdmyrqBvsO/nmzjmtpqou19movSZVkhHE5mknuB0ok5d9xh6V3Jzv5LA1wq0aQib77rYOsE6nihdfENTVtxzn5sQHT8pWL+adi5hu8V9X3yC0dU0ss1Bz/8zZSfJlz1JM4KoNVWcXF/JvrJbf3L9+52fxAEA8BK12HApkwxRMuOXemVLFLDCDp/feThUk20db+hVs/3SStGH6Pt1XD9IPcEJdh5K87Df65Ks3dJBbxhXoE1rePv3ZfTDjWSfmhTEb48qvCWqJ1fh68bskCU7TMx9k+4P3+04nt5xzn+1zffLMnq3ujgba/+b4zicTdu1jduS18KXM42WfvjKbtdfCSPEAABoZreGy3Ja/hrVZVyQuxLV95K5Ax/KumvDcfb251JNPj+UN/ZpTyGseYXqemerKiJNthX37ufDmtfN2i+ra02T/YqH01zKu2G6JqXr7U9Z2yuD+eE76y/ja2S/dNAbvtEUtV3v6n0UbjbKvb7Y0nQQDdExD1JKnozY7ZhX0E6jxy02Hcf2Tc95x6qMH+f8V6u6X5Rek+voy3cKX/yYddh7Lh6uVmyoV5+75fSDrlXum2S4l8kbzSuYx/nhdelGS1Cj0VL9XVkAALxYq13Eb9oxi30tqXm1afi7Ltm3/sRvDdL1rmdf+6r/2vCZsCVvEmr0+bL9Ct8WpUvqzT3x616jMOb1sPHfdttW9CrY5NWy0StaG7xVbOsriervV3xs4RveNJy3fuVt+T5Vn4v4TVvx3+JXz1YcX+m1S6t5DOE5MfthX8WrYeJruPU0Gek0EMYT7fs6HaS3VWJ9PsxSusF903NW5fmv/Ozmt7pVb6vl8990/1LbT78OOfy9LJ6y+Bvfc5r+w/U13sy18V5M73s+PZVfh/z67HUuWVJvEYzYbW57uxsAAC/Ibg0XI9BKgalohYV0tJjKhF98F68KtODOhjUFuJd/d/KGylCtzxu6X+b7K9bhwkpY/ntmTJgkruz2mm4rFY+p7GmwqJKSr0SV2FhZyqu7X1px1HDrMHr8roap3qcN58Jc49S5jK5vxfFtrTgbdY6hwfmvomkwjCN1XFE6KL6uu2Bd8dxU2a25j7XOScX533Av7NZwMVo8/033LxSlzXTcJk2VXtuq+Bvdcxo2DFfnlcJ2v6saCja/i7cbp6dC2NQ9nfwtPicblvx2bTybrycAAC/LmfmPFpwA8KLNx2cympk3fT39pPnldCD9ycK0f5gLAwCAdeDJ+QBwGobvPHHilzM8qfh7dzx5R6MFAIA1Gi4AYNhXYpuXMzxp08W++S754lMAAGAwVAwAYvOxnI1mTzpEKxqy5oq/uuHLKQEASKHhAgAAAKDzGCoGAAAAoPNouAAAAADoPBouAAAAADqPhgsAAACAzqPhAgAAAKDzaLgAAAAA6DwaLgAAAAA6j4YLAAAAgM6j4QIAAACg82i4ANjZcjqQs7MzXQYyXdqV6LblXMbhNTuTARcNgJXk52OZP0nWsJTpIMqbzgZT/Q2NvJC8nYYLcGKSwiW/DGQwnj5RgYO8eWcbdY/yYH9KZCsMc7sW2FV1PhUtYxLZ8SynMkid+8F028l/0FwCVcjbnxYNF+DEBJ8X9qe8hSxmExn1efrRCZXXqYuCZHcXt/JI+sHJS3qfz154K2n56VZLh8RicvfMOycOfO3J258UDRfgZDniBStZrcwSiO85dv1CJtcvu6BGU315FScf51Je9+zPQAtcP86nkuVmaP+IA5vL9SSquTpOfJPP5I4i4oV4fnk7DRfgWejJ8Oq9uPY3eXhkfDAa6MnVva1U3l/pbwCehfmdNlMMRy4/JmXEjJbLC/H88nYaLsALsJxPZTzIjjkfDIoTMNfj0s3j9eVcpuPUZzR8vSFoS5mvP8ewte30fE3Hej3sebbnrWq+Ut1rGTKTNVPxhuEC+7eM8kmxu6SH5Tx/LOlFt2/DAYkoz8jMw6hI03XS/3xs1o9shV3NRjZskh9FYcySS5Op+SDpCc7Ze8HsQxwm/en6x3Es8zt7FsLe9lTv+2zLcLGg5H4vHIjNu7Yeb7M8Lq/Jtapz7SPHuFbNjpu8vSZthQE4Ib4rK3Prakm08gK7chWk1svKSf6QWV9c0nFoLJ6zXq/lWypcvFSHj9dX7cdLU36d8vyV6yTnq7hkP9vkWurFqbiGyZJcn2DlxfvhePqbXbtzeqhaXD1ivATptOBuvOh6D2TSSHpxMp+tm/6rw5WFyaXJ1H2Tzr/Wx+Pk7oX1DtY/juNJ9ik+lk3XZfv9m/1M5XlO5SHhPtTO48rzoSbXqs61T5+XsnDbrlWyjWz+l9XkuDftt1ly23nheTtPXICTtZBJP+7t6Mso7lhzfbm/Sj8QdrSsdcUPgvX48kBzychCbj+Vdecs9H/mMzZ8av5MefiI6cVZ74cX5PYDefPxSGZ24qTj+aLlROH6TN6mXwta/1rOrye6JuL6NnzgaQy7qJMekrH0ukF7LIGsg+q61epGmNrw8sxG6Z5ZsyS9s+E9EP7kiLdOp74d0rSQ2Yfm6X94Y/4Wx6HCtGfW3cveWdLC3AvJ/MLATtZpdhxHkh4mZic39F5f6m+RzcPF0vf7+kwmx7GcyodUXh+d3yAMm85jmudx+6lz7Y9xrcjbD0h3FMAJ0byspLcjWrTRYkNtk+pxSn0m3QuT6eGpE95z7c/ZnsqXKrlO+XMZS53TTA9lJPn8tp6ssmuzIe7SHuXtvXLb00OyLp0M13GUHCOeryTtlC1xmi5LR5HqtJdXFUd13Ebl/bXtiYsuxejaOI72rY8xc++l7vXcsVfva9lnUsfs6LrSY0uHqZPH7f/EJbLp2u9/rZL9qQrX9LirlO3rhrhfSN7OExfgZMW9foFoRhhazEYlXzy1tGNT02Nn4x6ntixkMoljTHr3sMEy9c79i/PCpMn+ejD6Q+oVljWv5Za4D8305Ea7vJRPt3HfIF4qreyEvbnJYntn0+l0PRchWvpxD2/GMfKybRx51bc/xhofxzHMJZne8jqVB/Tk9WWct9R9u1hPzi/sj+v8aCjvtEYcWsxkFD79H8h4Gt/7aqc87sCOca12Om7y9rpouAAnryfDm+TR+GJynZokZybm9aU/mslicchMRhtR6+EE7T76R+xY13JXqYqMVgj6YcHbl/UIg/e8rQz76Hr675j1MDFTJvRTleFsBX2ft4v1ru4lMEOs1q9ZXshsovc+33rfEHl7EzRcgGchlbGke9GWn2TdKeJ663G2q/QY4La8vknGxy4m8rbstSRI9M4l6cTMv7463Zt1IeemVGhyLTfGfSjJPiffF6EcNxxHzvd2oCCdTtdzEfKLnZtwsLyshd7+JsdxJOu3iW2z7e1ioaU8Jt38UX5k9XpDubm/1+NLnvyb/D/8KrGmedxWJ3Ktmh43eXsjNFyAZyIz6bJkcqHzKn6sbF7R+OEgwyt6Vx/XE/ZML98hvrT4+RjKm1RBn27oLefX694scd9oyKzt1zL12tOwEmHjNq8P7ScTO1u13mfzfRGmImML3/sbuRruUwvA85V+Pe+H7Ot2l/Z1tSW9943zspIKXjJcJzUJeef7Y7fjOJxkmFhV5XzdyaRn70Ohk2khk37yGt7l9G0xPzLnyrw2d32svdQ5jYfT7Z7Hpe11rQrX/hjXirz9oHTjAE5I9cTA9ATK+G/pdRVLarZdswl7FeEzr2rcNvnw+UquU9liz0vmXJUsZtJrGJvR7FrqDpSH0Wvl2HgONYEzvziOs3KzEeCZS9JO2WT2lG33wPrDDdO/Kt6DVflUNkzx/th0L1i1j+MIUvd+5WbT+YO959fHmH/l83qpc/50SU/W3jWPqxVH+bUydrv2dtlyrcjbk+Up8naeuACnZt3dkpeedBn3TJlvzQ3Ec9OfcUQzmuSxftt6V3KvkUdbnMnohT52SXoJNzDnKvDD65MJraWPa16heX+T6pFreC2HN+ErMtPBHdcTP7iX9+uxBm3qJ72MOWbc9mzSL3lxBF68bffAehxK87zMzP3zNJ41JzUkKdxui/dH7eM4vGSYmCtvqjY7fJMMQ1p8lsx3F168D48le6rNK3NTQ6j0eD+afD57sBrM5FupOQ+N8rgKO1yr7dd+92tF3p54irz9zLRe7M8AAOzEfIdPNOnXvO0uVcEx3/Dct2/HcbxspQYA0Gldy9t54gIA2FvwuXx09TJIvb4TAHBSupa388QFALC3pFeuSq63DgDQeV3L23niAgDYW/idDr4Zd50f/23GvUfjr2m0AMBp6VrezhMXAAAAAJ3HExcAAAAAnUfDBQAAAEDn0XABAAAA0Hk0XAAAAAB0Hg0XAAAAAJ1HwwUAAABA59FwAQAAANB5NFwAAAAAdB4NFwAAAACdR8MFAAAAQOfRcAGAtOVUBmdncla6jGVug+1nKfPxILOdwUDjXto/11aM52wwkHF+J5dzmWq4dRhdBhqodHNNwjY6jqbHXPPYgD0tNc2PNW2t09mZprNpVZqv0tY9je5o65rWzMvIp+tZAQASgbdyNGt0HHfluvnFXwU22O6ClefIymS/4jhRvPpv+Ls4K6/2BvyVaz/juN7K931dPI1Pf/d8G8YohvM0TLR9L3c8TcI2OY6mx1z32IA9+e46HTrhPR6nS130fq+nrXsa3UE+3dV8moYLAKTZhkvtOktDgWcLgtwGgrgCVWvDcQGzvQD1XROueDzxeicVQZOwTY6j2THXPzZgXyZtmkpWJqnZPEDE1arZdu3c0+gS8ulE1/JpGi4AkHbQhsumzD7+W43KUvxUaGuJYXvECr1wKq6crQ+0Sdgmx9HwmGsfG3Aom9JsXsP0jRPQ0jUlnz4I5rgAwNEE8nmh/ziX8roXrUn05PzC/Psgj1vGUC8/3cpCHLksRpK1fNTYKvTOJdrcYzQuuknYRsfR7JhrHxs6binL+VgGg9TY93DuSFniXsp8qmFT4+QHg2luPlmT+I6pnXsaXUI+ndWtfJqGCwCUeHicy3xul+WWEqquuNC5ONeioKj/ytH/LuRzEP1eJQhLGC1Jgukek4r7Em3usxZZ2+TCNjmOhsfczrHhqS2nb6U/mulPrni+L77viessZDbpyyDX2JiP+zKaaFjX03Aa1nN17W2mYtgkvr3Nr2VikqH7Xq621ctauqfRIeTTBV3Kp2m4AECJxWQko5Fd+n2bIR8yO65rKY9hCTOTyWgiDxeXuYrcSPrxK116r+UyLG9u5dO2XW8S9mAaHBs6rff6vQTBSu7vb+RqOJTh8Epu7n1tdpgk9ilVsbHX3PHk482VhtOwVzf6uftMo6F+fDtYxp0U0+hNTaaB5Lji3wxtAKAp8ulDoeECAGm9K7mP5v+tl0AzZEei3t3u1Jtd8UxFTit7SUUuEM8UarM7O8ymJ6+jUk4m/agnzFTQpuGwnH7Uq7zWJOyh1Tk2dFpvKL1C1+2G3mNTEdv0ntmm8TWw/PTBdlJMZDKLErpz8crUz4A9kU+3jYYLAGzR0wz53jd9u5off5h2pj5zXqjIxWORZ3JnS43e1b02vFxxbE+YqaBNbh/kwjO9YxrAeaXVv0iTsIdW59jQdWZeinmKMZZxuFzLbaFi1ZOrj1FP7WTUj74DonKoSZ34mjPpPumoCMJ7QG8AGWnFsBMPWXHSyKfbRcMFAOrovxJTJuylMHkyKxo37MirjaVOcaLkNr2hGXqTeop0fy83V+em064wprlW2CbH0eiYmx8bOspMpD/rSz98ijGTmV3M1S7omZ7a6MmmqyHCoSZnuUZDk/j20ovuAdN40dgn11tqX63c0+gU8umCLuXTNFwA4Gg2DW2Zy52Ze6zFR7EXKys/UTIRjz2uUVGa30k41flNjXH8hbBNjqPZMbdybHhiS5l+MI0KR1w/SCpXKzuMpIJ5shk1YPKNht3ia0VFRS7Rzj2NLiGfzupYPq03PwBgo/g99vu/tz7+kq98PKVf/pV6L38mdPyFYPl3+Vetz4vj3RbOqAjb5DgaHfO+x4YOqPquCV2f/z6IUvbz63Sxb3xVzH3trDw/n6KC9Zf51bkfG6VvnIRG15R8OnGEfJqGCwCsRRUhRyszruvaxWbarWXGthIWxme3YRtFhQpYXAgUKmZJQ0rE7qvuc/x7utyJKmCp40l9Llc+NQrb6Dgaha1/bOiuuOLvuN7K9/2V57lRxSp/zcMKl7MO5/veOm1k60k142ukJK3pUhlv5f3YJH3jNJBPbw77dPk0DRcASAnCilOqsWIW/d0t9MruIdCKV7pBpBm9qZAVtlDVkxcyvcL6uXUctlKXCxhooeqsCxizmG2VxdcsbKjucRhNwtY8NnSZVmxy19vcQ1GlK10JKl5rU2kqewpSL76mNA7TCEqne3O/eyXpftP92Ch94ySQT28OW/PY2nZm/qMbAwAAAIDOYnI+AAAAgM6j4QIAAACg82i4AACAZ2Au47MzOau1jDU0gFPDHBcAAAAAnccTFwAAAACdR8MFAAAAQOfRcAEAAADQeTRcAAAAAHQeDRcAAAAAnUfDBQAAAEDn0XABAAAA0Hk0XAAAAAB0Hg0XAAAAAJ1HwwUAAABA59FwAYBN5mMZnJ3JmS6D6dKuPKal7sJgvQ/hfgzGMm+8K8V4zgYDGc/tn2PLuUw13DqMLgMNVLa5pYYdaxxJWI1vun/YSM39BfbUPG2Waes+RXe8sLx3Oc3uY2bR47bBzPFMB2Vh0stADlZcrgAAFYKV58jKZJVmcbzArj+W1PYdZ+W67srVf6P9cVb1d8dfufYzjuutfN/XxdP49HfPt2GMYjhPw0Tb93RvEoGX7Idj9isOZxY3Hafy3fphQ3X3F9hPo3Rcqa37FN3xAvPewFs5ut5xTLj84qf2IVj5XlmYaDFxiLh6RIdBwwUAKkQFhBZSmkmbjP7YDZd1AZUrYIK4MKpVsYoL4O2Fre+acLIqln3R+vTxm30zBW8mSlvw5be1OWy+gKu/v8C+mqTjKu3cp+iSF5n32vV7JdcjpHkaLgBQyvaAmQzYZsbHbbhsKvTiv9Xo1bKF0fZ9t8eb690LxQXd1sIo3q86hV/F8dXeX+BQWkjHoQb3KTqkpWt6onnv9s9XixpaZeetPcxxAYAS8/FIZuKKfzO0a44tkM8L/ce5lNe9aE2iJ+cX5t8Hedwyjnj56VYW4shlMZKs5aPGVqF3LtHmHkvHUBc58qpvf2yo9v6i45ayNPPDMmPhzdj60lH4Mp8mc8nMMhhMU2PqjSbxtaVOOm7nPkWXvMy8d2/LqXyY6b+l5609NFwAIM9mwI73Tp6q2bIuzC7Otags6r9y9L8L+RxEv1cJwhJYi75guscE5L5Em/usRfomtsDX7Z1vK7jm1zIxYd33cpUK287+4qktp2+lPzK1GFc83xff98R1FjKb9AsvuZiP+zKaaFjX03Aa1nN17W2mYtgkvv01SMct3afokBea98YeHucyn9tlWf/eml9P9KyYaK9Kz1tr7JMXAEDIPkZPP7Z/iqFiW4YIxGOwNz/WT4YPhPvveiut9EWTQ+P16wgqhg+E4r9tHh5RNS48FJjtRttOJp3m42uyv+g0vd5BIR2VDYkpud/K1I5vfxvTcV4r9yk65UXmvSo+7sLirNytZZ+9F48wLJKGCwCk2UZKJv8/WMMlsAVKerHbaLXwdGsViOvCLyyoov0xLyZICrMNhdK60CsPk8SdLOHbczL71Wx/cWrKrmG8Titt2cRQwwHSxJZ0XNDKfYpOeZF5b7lAGzvxPmw63ngbx+jcY6gYAKzNZWyGo7i+HGVqy/xaRqNRbrnOje1vR3H4QDxWeyZ3doO9q3sJfFeccAhOtD+T2we58MywHA3gvJLy4dN63vpmmIAjXnBTOrzOxK1ljl2CcDu6ERn1y9/3X2d/0XVmXspUpuOxjMPlWm7D4SxpPbn6GA37moz60fdbVA6jqRPfPranY6CpU8t703rDK7k34dXsw7TivpzLdTT2TN6XjT1rmx4IAECte43y77GP399v13sbe9rasnkYjJYluk/b396yKVz0tzq9wXZfSgPGvYc79CqXvDqznf3Fk9Nrm/QW55eKnuH0MJp8GtghvmZ2Tcft3KfokpeZ91aKn+hUDclsElcLeOICADmLxUxms9SysN26dv3tUV4RtGlS5lzuzDzlGhMxqyeSLuUxnIFa4y008zsJp0W/yffnmW9Q7ocTPbXM2v0pVeqNOa3sL56YposPs7AX2PWDTG+vVrQqmd7dm/tV1COsn55cx4/Wdouvvn3ScTv3KbrkZea9u4nuTXMs3rtdd6IhvfkBAJvYHqVjf7dI1bjh9ZjldA9Xalx2JnTcG5bvLatan1fZ25bu7dsUgwnnlMxfCHQXos9njmPf/UUHVPVY6/owzWx7QpLvZd43vk3qpmNVcY81uk9xEl5k3lsq2VZp+fcE+TINFwDYxmbOx264hBUzUyiEBUM8bM3+nq+sxQVIoRKXFDxm2EJm6FtuGEM8tCEZIpd8Ln/o64IvP6wuXtbj6Uq2r0tYIIfL7vuL7orTRzgJeNNE47By5qzDpd+6lK5T1Y6vofrpWFXeYw3uU5yIl5b3Rp0Aju5fEle8r7pUNEzifTlm25yGCwBs82QNFxVoJS1dgGgBZCpvhT2p6vULmR42/dw6DlsBzAUM9DiddUFnFrOt8viSArFiyRR0un1T0Ux/xhSQWsAW4zbq7S+6TNNILt2a3uGoopOuMBWvtamQlfUS14uviYbpeNM9Vvc+xel4YXlvNMcsfbw2bFXGW/lE6LDOzH905wAAAACgs5icDwAAAKDzaLgAAAAA6DwaLgAA4BmYy/jsTM5qLWMNDeDUMMcFAAAAQOfxxAUAAABA59FwAQAAANB5NFwAAAAAdB4NFwAAAACdR8MFAAAAQOfRcAEAAADQcSL/P8CNAk3g7dYPAAAAAElFTkSuQmCC;" parent="1" vertex="1">
                    <mxGeometry x="20" y="40" width="275.22" height="189" as="geometry"/>
                </mxCell>
                <mxCell id="4" value="" style="shape=image;verticalLabelPosition=bottom;labelBackgroundColor=default;verticalAlign=top;aspect=fixed;imageAspect=0;image=data:image/png,iVBORw0KGgoAAAANSUhEUgAAAykAAAJMCAYAAAD+JOk3AAAAAXNSR0IArs4c6QAAAARnQU1BAACxjwv8YQUAAAAJcEhZcwAAFiUAABYlAUlSJPAAAJGrSURBVHhe7d3viyzffdj5z+w/EUeKrAR1z4PLgGAjvKEaPQjImO4L5hqSMQjWlwhTbQi4m0UXg3ONMR4bzBhTbQhkmiBzvSDwxKDBMNWYGPJAdBMLOyAY7oOpEl5Fa0X7V/R+TtWp7vrZXdW/pmbm/ZLqe2dqTp/6fX7VOafPlkoAAAAAoCX+N/svAAAAALQClRQAAAAArUIlBQAAAECrUEkBAAAA0CpUUgAAAAC0CpUUAAAAAK3CFMRA5Gey+NPfl9/9vvn5i/LrH35bfvUXoj/gqf3gz+QXr/8u/vnrrnznN78qX4p/e7V+8r0/lG999x+jn7/yTVf+0698NfoZeCrckwAOjTcpgPWT/2l/kH+U/8f+hJb5nz+zP2xnCk2/+G//fbT8xvd+aNe+PD/6if0BT+op77e23evckwAO4UBvUn4of/Rvp/I39rdyX5Pf+y//Thz7G/b005/J4m9n8ufz/yU/+nHcepX4ype/KPLz/1L+9b/6qvzqL/ycXYvNfiZ/8e3fl//84/i3b3z4j/JbvElph/SblC//snznj3+pxpuU7PWs/7nnId1qbd4u/dffpNW6Hs2rvq15VXJfZHxR085/Kv/6sr9DuvmU91s77vX97smfyU9+8EP57u3f67VJ5Weal31F87Jf+ze/JM4X7Dq8bD/9ofzFX/4P+W//8++0bGPXqa98+Ws7PZs/+cFfF+6rJC5H43rtb+Xb7jBvUrTA/A/2x3YxiXfcuvSL//YP5S9+YFc/a3pMf/qH8ouj35ff/a55iLMVFMOs+9H3/0r+8/Xvyx+9iGMGmtLMp6eVdesrPTIjKJNXlVZQDE03f/x3Ubr5i9/+M1nYtfU85f32zO/1n/61Vhx/X751/VfZCoph87LfHWn+/VO7Di23e7kreiM4msp//n62gmIkz+ZvfK/u23TThfvfl95XSVzfpXzUeq+ou9dL6MJjWgF/Xx/gYsUEQJbzK78t//W//MdooX88GtFCzO/+abNuU095vz3be10rKL8xMoVI+ztemGblrp/8ZHvZ5kff/U6tCutPvvcdO8a02j/8Y/3uw3gaR6ikfFF+fRInltmFrl77WvxprpvCl78mv/7hd+Q7mfOsv09c+fVvfk2+YoMBAPJyeZWmm9+wf4l8/380fJuCZn4mf/EnfyU/sr8ZX/n6L8vvZa7J78jvkZe9Gl/6kuly+TW9B34ndQ/8cu76a8Xn/7U/VvqZLOapCo/pApnEp8t3PvyyfOPLIv/ii3SHb7vDjEmxrSFxYmMS/t+WX63Tf/SnP5Q/+pP77Ku4L39RvnH5Lfmtsn6Hpq/i3/4P+W/z3KtA+5lvpvoXmtd81bXo9T7+5Ad/Jt+qnDkoPeNTdpzCuv9tPBOUI38mf6DxROcgH0/T4yyT7pdv7DDLUbN91mP/y+/In3//H7OZiCYgv/Z/9cX5Qna/dz2P6eOK1v+zeLu/u3pbpInW19/Kfyg51sWf/qEN1+CeU2Zf/+B2fQ+ZjPHX/s1X5Sd/smVMSpPrWDiu/Gf1cx+Sz+kxf28mf26679m/VR1zpOG1iZlrUPxMhl4304+89n3S4HmM7HqtU5+L+9vrPuqxpD/3jW++lW/+SvZz6T7ypbMN2ev5D3pNknOya7/nUk3ib/q8pY4tuW7G4Z7DA9yvJXH+xV/ep94El1+3SOFZM9v4l7qNPcdabMur0vda6u91ngmput/2OQ9Gjfuo8l4vbLvmM2c0fL6r7slKmXOt6nwmrWk6WHIdDn+PNzi/xgGOYZd7adc8bNu26pa7msrcW+or3/wdvcdz+5uRHae1PXz708694zR2fqbL0r1fll+Xv9L7wfxScY5Tx5F+vpuU3Z6su5c5eNP3MPOwGPr735g+wflX7eZgTV9FcyHSJ9ewn/lW7dfzqZr4P/4v+4MqmTloPeNTlX+U/3arFzK5cEYqnsbHWWHx3+2FjnxNfq8q0atl8z6bc/0bZsxLLuE0TF/O39W//UZ+v/c+j+ofTQEi3u6a7sP3p/Ktb/+1ZCeM+aF8fxVOj+dv6722jfuoZu+huM9zauBpiX2u4z/8d3M+85+NP/cb34v7Y0fji+xfVsdcFucu1yaa2KL8Mxl63bLneMN9su/z2Ohap/z47+UP7LGs6fa+W3G+rPxsQ+nrmT4ncV/let0JNmkU/07XtMIBnsOD3q8JG2e2q2rFdbP3Vn775jnduI2T2JJ2WpWzWzU5D2qX+7Ry202euX2f7xqyeZoWVv5NgwrKns/MUe7xpmnavs/9HvdShr2eG8siDbdVrs4bkHL5bmBN34CYLmJ/9IMtZYSWpp0Hi3OvZ7os3YvffCV+NP9h4R5PP+Nf+dI/sT81K7s9TSXlp38tf5CqFZfSk9x40Pf372sWLr4o//yf2R8PoGzweuRgx6mFx9QD8pVv9rVGu59N+/wb6RuxgnkIDj0o/2++m331n/Hjv5I/qD1groI+pNWtPBvseR1/ZAYB2p/zfqTHXNkfO38/73htom6C9mfT2hG/8v4d+fUv25WJny8OuK28T+rY8Dzufq2LGfpK3ee/zvXcR5P4n/B5q3Kw+zXlbzbEmf3cz+QvbtOF19MxswCZa7Hy5X8pZTNK7fNM1D8P6sD36cHT17rPW6lsnlZ1rksd4Jk5yj3e5Pwe4BgOfi8daluVdi13mUKt/THyNfl6vpdDwc/Jr15+zf5s2IrYt/9QjzHfGHc4x7ivjhFnpU37UZLufen/+Jfrrng//ntZZD6bvm5flH/9fzSrWCaOUEn5R/nPo2Rmh9SSqqEt/jL1MH853Qf1d+T3vm7Xq7+5zbY+fEUP9BvfdOU7mT6r6f6K65q685txfOmCmHltFn9ut1eOG6WOI5n+cdfjLPr/5P9J3YjZVoT0TBr5ZcuMKNv22bRufVj3DTX9ONN9Q7fvd3OZPsm5vqjZmvpX5etfT2rx9R6AQsvdajuu/PoqrqKDXMfV50wf6/y2zKvb+Dx/50O6/3W25Wm3a5MuDHxNfm31OjabiEfPhn0VW1BynxhNnscy9a91zpdNn+X4c+Z8rdVrqdt8Hvfv/94k/qd+3iod4H4tqHXd0mld6hmNnrUv7n1tsrJ5lZkFaH0t9P7sbXhbXfFM1FLz/j3Gfdrkmdv3+d4sm6eVNZBUOdgzc4R7vO75Pdwx7HAvpe7dZnnY9m0do9z1k+/dZ77e4hsfao5v/oV/F6UZGVrQjt4YaNlo65uVXR0l7TxMnHs/0/l07wtflX+9utaanv5l6k3MT1Oz/mYaIZqV3Z7gTUq2VvyNy/T85z8nzr9JnbAf/3T9wOgN95/0Jv8t0/8xfaNnTpI8zWwNeuHMBUuOI05sdzzOg9pww5Xuc/6Nzbcyfee/9Au/JP8pnTgder91n0yf89V5+sIvyX9IP5C57Tm/mcxoUyfxy16P6NhW2/mq/Opvfqv4ZiFygOuYOdf6mXTrg/rGB72v7Xn+0i/0K+7n416byuem9D5R+z6PDa/1isko/1gzqWR/9Hylr9v253/beYyPa/dGjCbxP/HzVuUg92tO7ev2T+Sfr9ZrpvcnfyZ/ERUmdD/0ef9PVRXpA/vK1824jvW1yKh6JuqofR6OcJ82eeZam98e6Jk5yj1e9/we6hjq3kuHyMP2TXd39IM/y4xFMeMaCmNFNzBphqn0mUHyWUl3qQPv95Huq4PEeYA8u5ju5d5YpSYb+cnf/v2qYpxv8GlSdnuyMSmJv7lOt/zrshrUWMIMMvven8lvfPsPU5/ZPJbgJGq0AjU6zi0OkiCU7nO2FbO0hvvPvpB5QI7tS1/8p/Yn43/JT5q+viy1+6vHg1zHL/yc/Av7o9mX7CtwvS4/b3/M2PXapOP7O/nzJFE2A+hS3Woq+/huurcP/DzWu9ZfyO1P1fmqUuM87qVJ/O173krtdL/m1b1ucaa3OuZo7MXv6331h1H//NIC1KF82Qw4jVsKN1aGGrT6F9U9D8e+T2Mbn7mj5rfpyqgqjIercqRn5iD3eFH5+T3UMeyWFu6Wh+2b7jZnBrKvBl0bdjB7U6bS91t/bN4YuFpZSVUa1Y++OzvuDH7HuK/2iXOfZ7oq3fuF/z01K+LfyfejLoO6ndXsavulX0eopKRf0aeWXVrAvpx6MJJBZtGgn8P1022F9HGWMq/H7I8q+2Bppm4ewOQ8514xvyz/NNsC0DZbr+PTSLeU/ei7psBnMqbpOmFq2DoVOfrz2PJrjeMxLX6FAsX2AabN5fKqPzZvatKtzK9N6pk7+vOdK0xVteC/KM8gTWtJHpaZacuwFZS99u0LX9XKym/LdzLdpZJC9StwtGc6Wz79m/+uafRPfyj/LSlfNBlvVuKJ36RUVGiS5Y+Tvr7xYMqktp/0v4uXkgHADWRbOo6l7nFWc/5V6pWaPlhNv2isuYpZF/7fn5a2uhzrPP4kPePGwWyfUaLc/tfxMJpdm3V/5C/KV9LPipl20DxLjRsQjvM8Hudab7LrfVBXk/ibXdMqp0nPTsAWKKI+2Ol+5bsMBn32jneflj9zx8tv09IzA2Xe8tZ2mGfmmLanaac+hrbkYdXMLGTpCorpemnyqEPt15d+5W32+5CsF5N2ljruM53pMmjS6L9d378bx/bV8ASVlGKf4+yMAD+LZln5o2//+1R/wezr0X/+z9avjn7yg9m6xrbFuptURWL447+S7yaDqX6qF/VPv7PHq+1djnODXB9QMxPHL377z6L+2pkWKE3cdpd/Y/Md2x88Vpj95uv/e/kAtl3Po5kB5U//enWezPYyM5Lktmfm2o5fV26ZICCS7V4QvY1KPmO6Pn276pXnga/jzna8Nj/9a/nzpD+y+Z6J9Fs3LQQmfVmbOcDz2PBaH8728/hH365zP1VpEv+BnrcqB03PTsVMl52egceMRUmPF0uPs/tZNKV4kgacavaz0zjCfVr7mTtMfrvNl3KFRfOWN+rSlz6mpHvKKo0/8jOzj9rn99TH8LR52NZyV5p5g5I6Z9HYsF164ZjZ05IuorljXfxpeiB+vruU9SzTzk2O/ExnxrXoPfbd5P4t7+rVpOz2BJWU3ECbaD7wJKMxy+9Hs6xUTqtmTkBmRpZ17XCbVVcX3cYqQ8v1/YymqTNhRlpozcwJ3tS+x5mn8f1fua5ctr/2t1Zx6tLgfJTJvrHRc52cD12ys998MTuv/YHOY/ydJWXb09r/v0onVmYwYBJvnZbG3PUwb6OS65Hu+lRw6Ou4u52vTcJ8z8Rqv82iibgWdP7oe/v09d/jeax9rQ9r23nc91o2iX/va5p3tPTslJIZeOLzkO0znS1UrAcg/+Nhxuq1yDHu0+bP3O7P93ZflW9mut6Y/ZvKt9Lpa9I9xf7dOPgzc0B1z+9pj+Fp87DSclepuLU/zdwP6/1ML1rRsmGq2S6iuWPNfI/N19+uB26/iLSzjmM80z8nTi/7LEdKu3o1K7s9TXevXyiZGm6jYmJWT8WJS/vCL8mvpVo1sr4o32i0nzmNj3ML3de4r7b9fauKVoJNdJ+zfTbLmG5CuVkZDnIeN0wxusu4ibz826gMzQy+mc44Ug59HXe1y7XZeF00ETdTMpov5Pp2nUQ/sevzmHbka73Jsa9nk/h3fd6qHDM9a4FoJqSK89D0C95a7+D3ad1n7hDPdz1f+pX8GIEaDv3MHEyDNO3Ux3Dwe2mTGuWuUunW/hMws1Wl39K86LTz+M90/s2osW9XL+PJxqREU8PZwZHZB1t/j2ZYyX7FfpSYffhatk99FNbNzdmdFSeC6bmjld6c6S8DMnN758PE+/Db8lv/qqKfYs3+i02Pc6uor7bur8Zpvtsjez4Ms+5rdi7sXAJXc5+jc7Zxn003IbsqZafzmKa17v9gj2ulctyEeWWehKs7e8TPya/+sZlnvHwff3XDM7zXdfz5wxWedrk22b7fFX6c6hNe4z7Z9XlcaXSt6/sXFYf6lVxKuZ6aMvsB8+z8+ofqgnBdTeLf9XlLFI9tz+fwgPdrXevrpplp5XnLP2PpQk2dL3gz0jPjNNCwv3r+mtSVv393uU8rt93gmdv3+W5y/GZb/1XTzyhdzudn5pmI7t3DPjNHuccbpml7H8MWpffSxu01LIuk5LcVHVsuDcqXu4qyXbL3ohWO5Frk76kkLSkbf9PKtPNAce70TDdK97LdGE3c5eWyZmW3s6WyPwOn94PUNIN2Hu4d83eUSZ9fLcj93n/5d+v+zWYszp9kZ/nap4KwFdcaBxQNsLX9180Xxu1ToHuxeOaOi/MLrG0qb+zoiWf3AnBM6W/Z/8o3+9kE4wtfzbyW/8qX/on9CWi7H8p3kwG2WrmmggIATyk3puhAk1ZQSQFeiR/Nf5iZ1SU7+8x+X7j08phZptaDC+stTcb1YB8/+Z6doce0Xh/z7R8AYLv0d6OoQ01+QyUFeMEy85f/eD3zjFnSs8hsGpD8Kv30Z/IP9ke0TzSOoSXf6wAAr91P/vbvU7OE1R0juB2VFLTHEwzYffG+YGaE2zYo9T/uPGByZ22/1l/YcYA10Fakr8fF+cWr9TNZzNfTNH/lm4f7fiIGzgMAAABoFd6kAAAAAGiVRm9S/u+/Xn29LwAAAAA08n/+0s/bnzbjTQoAAACAVqGSAgAAAKBVGDgPAAAAoFV4kwIAAACgVaikAAAAAGgVKikAAAAAWoVKCgAAAIBWoZICAAAAoFWopAAAAABoFSopAAAAAFqFSgoAAACAVqGSAgAAAKBVqKQAAAAAaBUqKQAAAABahUoKAAAAgFahkgIAAACgVaikAAAAAGgVKikAAAAAWoVKCgAAAIBWoZICAAAAoFWopAAAAABoFSopAAAAAFqFSgoAAACAVqGSAgAAAKBVqKQAAAAAaBUqKQAAAABahUoKAAAAgFahkgIAAACgVaikAAAAAGgVKikAAAAAWoVKCgAAAIBWoZICAAAAoFWopAAAAABoFSopAAAAAFqFSgoAAACAVqGSAgAAAKBVqKQAAAAAaBUqKQAAAABa5WVUUmZDOTs7k94ktCueq1AmvTM9lqHM7BoAAADgtdm/khJOpKcVBFNJKFueQ8UhnPSezb4as2F8bocbazLHq/A8t/MFtFeoz3Mvk4b2evrM7vJoaVo83PLMh+FMw8TPb7z0ZDiZ6V6U2XHfZsPVZ7JpRJImbVp6kv3ITCYl+zDZ6QQBAJ6Tw71JcRxxXbewXJ53bAAcSv+dG/07vdtQ/Qjv5Xah/7rvpB+vAdAqptDelcF0IYsk/dR/F4upDLq5wvoWUcNBdywaVTWtPHS7gyiME6XPjq5cyHQ8kG6hxWPXfdPPXU011nLnl+u8Ib+YvRG5kHWWoRUq3d/xVH90PfF9X3xP0z7dh/Ggu6WRBgDw7C33FXhLzVyW4vp2xRPw3aU5FMcL7IrnKlh6jp5LcZebz+b2cIHnROfkKS8LgGrJM5pPOwObntVLU5O0wKR//sZ0wWzPhMmkkkn6nfvMrvsWf85Zel7DNLkk3so0rA15DgDg6Bg4/yx15O2laXecSvnLlFDu49co8o7XKEALJc+oI96H7EPa6X8QrWyYV6Xbu2pGb0w1jmAp81HXrizXGc01TF9Tj5TOW4mSEnmQx9XbkV33bSbXY/2c+1FG53ZVTbM787oku73gc7wPbzYfFgDghTpdJcUObj/rTTQLTEnGtKTXR2HjLgWh6d+c6sfcG1b1n84LC5+N+1+XfNruW6b/tF1nuhRE8WyLI9KgD7fta52EO2vYD73z9jLqHjG9yp1Po7SrV/PzYY7dHE8SdpKUSsrO147xNzm3mfOlYYv3Qt3zP5OhjaNyc8BRBRKXwS/lbaFHbEfOL8y/6YpDhc5I5su5jA7aq3a3fZsNBzIVV/ybhi0jmgdcRXWU7Pa6b0wKt5Db+9xTfn8bdSdzqL0AwMtm36jsrsGrd9/VcLnX9/E6Z5npFRC9+neWjhO/7nccd+m6ru2WULKtku5eSVcB81nP95e+7y3dVbeIXBeEks8n6ySzD7pPZl1ZHKtuFxrG9XR7uk0v2efc8S39pWvjkeTY7L7Fy7buXsZ6e/ldKesmscv5iBdzPLqPeh68JL4Dne/657Z4vopx73L+i+cOOIkt6WZlV6eNtncDLUiexWxi0Xzf7GdWz2NJGlGlLF+IpbqymWc6CPSZjrdt9o1HFwBetsNVUrTAGRUe04ufz0aSwqHNRKsysiTjrFu4LIsn0Ewsv/nk846XzeDKPl+1D6vjzcZRWagoyfBXBfrswa3W1y1klMdTUVDZ4XxUFuIPdL6bntv8+TLb1LpI/GOD8w88uS33ZeX9vFGNSkr0zMSNCJ5r0xut+GfCN943u930c1uWRpTK5QkFWjFJ9tMu2+MEALwEh+vutVjIdDrNLneB/WOiLze+ZkkylcFwKMPBVMupnnyq6KvgeJ9y3Rj68kFzw7IuAAWdvnQK0XYl7kHwWfJ7VqWwD0kf7kwctg+348q7bihhmFrkXC5M+IdH2zVpPV7kY+64O6NPcX/vmpIuX4vbexu3qprVa4fzUTz/Gxwi/k3ntuR8mW32o4Nscv6B1yu8v5LBYKDLWMZ2KjDn4o15hHY3u5Z4KMooO96lhnBypbmBSQs+lM9CqOnZ3YPZT0ccxzzImjyM32/oFgoAeCkOV0lxffNWJruU9U3u30hcT9FKjBko+alZxtaJO0TXpIXU2UQmpkIULddxAf7gbB/uaHrOrnQzSzzl51rS3/uNFuH3tCrU30pSZ0v6a7ulI+aPfT6OEX+d89Xk/AOvlxk8v06jAwlMYjwdN57yeG0WNzZp+t90KIr5bDTQvqwBwjBj18y0yuKJH8xlPtd9D3zxHDNtclfOzKA2AMCL9QSze4Xy+GB/1OL057qvNJqKBmRrITVqMVy/3TlqedUxmalm/GXLvHkr43bJLF/Jm6XkjYInuUl5jn8+nuJ85538/AM76pxLPP68/A3faWa26kinfyPzqNVoIeNrW+hvsG+rNyEPd7Zhwi5XcSK/uL2Ofl9NupE2u4s+W/5dTrbyYwbi67PbTx7eTl9G88DOMHbFxBcA8IKdvJISTt7HXQM8X7MfzWcG1d+OXCa0NZyLjV8SmXyhmCOuH2RaDpt0p6pv3a3J9HnqlC1xQNW8y9kmmS5ftquXc/k2VyA/9vk4wfneeL6anH+gDTalAzOJZuTNfLHhCawqJc33zXzJY9IwES0L2zxh198WpimL0wxT2clPcxwJHyVK6UvfoCYzjAEAXrLTVlLCibw3NRTT0j9Kj08pr6aYvsfZlrKke8C2Fsb1FJofVk1whq63Px3W+ntLrsqa9qLxEfbnVQabD2umz40rcI10RvIxagi9letr09XLkcvCvKHHPh/HjL8v8Rfsl5xbM41zNL9wk/MPtEH1PZu8nci8YUimai9Mu12XVgp6Zhrx/Kc13YlrHablR/fKqL9v2e5jqSVK201SHzdazPPduew4lvy0wyvJ25zSilLyNv7ElTgAwGlpBrKf1YxMJbN76eKtZvhKZp7JzuikeVk0Y0tmIpnV7E92NpdtU9SWzCSTxJtMR2u+ATn5vOaw2ZlkymaiqZydpmoGnWSWmnibyTS8yQw6mXiSc2bW2yl149/1GLfNzlMmfb7yM2lZe5+PtGOc70jVzGTr85WfglhWN06D869hy+5F4LTW92zhvq54Zoppg5n9yn42nY4k61bfMJ88W/Hfs+HL4m2wb2W2pCGl6X5OMotYlLfocaymFbf7UZk+AQBehMNVUiqWJCOpnkY2+Xwq40tlcEGmsKuZVWFaY1WaIWqmnJm6Mv5snDmWFwAyn6/MZKsqKUY8XWbmfGgGv66opQRaCFhl+rodU7jXYKX7t1WqgF7Y38Se5yPtGOc7suHcRucrG7+jJZxsDHXPf3K+qKTgiel9nX9uTFpQuC2TdLJwz6cqE6VL+lnS5yNVyI8WWwEofQzq7luZTWlIciwVDSppQfR9S+l90Dir0lQAwItyZv6jCX+7mFldBtOoq0ChmwAAAACAF+0JZvcCAAAAgGpUUgAAAAC0CpUUAAAAAK3SzjEpAAAAAF4t3qQAAAAAaBUqKQAAAABahUoKAAAAgFahkgIAAACgVaikAAAAAGgVKikAAAAAWoVKCgAAAIBWoZICAAAAoFWopAAAAABoFSopAAAAAFqFSgoAAACAVqGSAgAAAKBVqKQAAAAAaBUqKQAAAABahUoKAAAAgFahkgIAAACgVaikAAAAAGgVKikAAAAAWoVKCgAAAIBWoZICAAAAoFWopAAAAABoFSopAAAAAFqFSgoAAACAVqGSAgAAAKBVqKQAAAAAaBUqKQAAAABahUoKAAAAgFahkgIAAACgVaikAAAAAGgVKikAAAAAWoVKCgAAAIBWoZICAAAAoFWopAAAAABoFSopAAAAAFqFSgoAAACAVqGSAgAAAKBVqKQAAAAAaBUqKQAAAABahUoKgL2Fk56cnZ3p0pNJaFei3cKZDKNrdiY9LhoAa52eD2X2JElDKJNenDad9Sb6Gxp5QWk7lRTgmVpnJPmlJ73h5IkyF+TNWluBe5QH+9NatnAws2uBXVWnU/Ey5CY7nXAivdS57022nfwHTSVQhbT9+KikAM9U8Hlhf8pbyGI6lkGXtxqtUHmd2ihY7+7iVh65f/DsrVuVz155jSi8v9XcYW0xvnvhDRFHvvak7UdHJQV49hzxgqUsl2YJxPccu34h4+vXnSmjqa68SW4f51LeduzPwAG4fpJOrZebvv0jjmwm1+O4lOo4yUM+lTuyiFfieabtVFKAF6Uj/dFHce1v8vBIf1400JHR3BYg5yP9DcCLMLvTKonhyOWndR4xpZbySjzPtJ1KCvCKhLOJDHvZPuK9XnFw5KofuXlFHs5kMkx9RsPX60YWymz1ObqebafnazLU62HPsz1vVeOL6l7LiBlImYo3ChfYv2WUD1jd5X4IZ/ljSS+6fRsOWIvTjMy4iYp7us79Pxua9QNbOFfTgQ27To/iMGbJ3ZOp8RvpwcfZZ8HsQxIm/en6x3Eqszt7FqJW9FSr+nRLl6+g5HkvHIhNu7Yeb7M0Lq/Jtapz7WOnuFbNjpu0PUVrVQCeId+VpXmENddZeoFduQxS62XprP+QWV9c0nFoLJ6zWq95WSpcslSHT9ZX7cdrU36d8vyl66zPV3HJfrbJtdSLU3EN18v6+gRLL9kPx9Pf7Nqd74eqxdUjxmuQvhfcjRddn4HMPZJenMxn697/1eHKwuTuydRzk06/Vsfj5J6F1Q7WP47TWe9Tciybrsv25zf7mcrznEpDon2oncaVp0NNrlWda58+L2Xhtl2r9Tay6V9Wk+PetN9myW3nFaTtvEkBnr2FjLtJK0ZXBkmDmevLfJR+qetovuqKHwSr/uCBpoixhdzelzXTLPR/5jM2fGq8S3n4mGmdWe2HF+T2A3mz4UCmdlCj4/mieULh+ozfp6firH8tZ9djXRNzfRs+8DSGXdS5H9Z933WD9lgCWQXVdcvljTAU4fWZDtItrmZZt7pGz0D0kyPe6j71bbekhUyvmt///RvztyQOFd17Zt1c9k6SFuZZWI8HDOzgmmbHcSLprl52MELn7aX+Ftvc5Sv9vK/O5Po4wolcpdL6+PwGUdh0GtM8jdtPnWt/imtF2r4n3RkAz5CmWyWtGPGiFRQbaptUS1LqM+nWlUzLTZ3wnmt/zrZAvlbr65Q/l4nUOc20PMbWn9/WQlV2bTbEXdpSvL21bfv9sF6Xvg1XcZQcI16u9b1TtiT3dNl9FKu+9/Kq4qiO26h8vra9SdGlGN0hjuPwVseYefZSz3ru2Kv3tewzqWN2dF3psaXD1Enj9n+TEtt07fe/Vuv9qQrX9LirlO3rhrhfUNrOmxTg2Uta8wLRRC+ymA5KvsQptH1J031dk5akQ1nIeJzEuG61wwZhak77i/PCgMbuqvP4Q2rayJrXckvcx2ZaaONdDuX+Nmnzw2ulBZuolXa92FbX9H26GjsQL92k5TbjFGnZNo686dofE42P4xRmsh6O8jaVBnTk7WWSttSd5asj5xf2x1V61JcPWvqNLKYyiN7q92Q4SZ59tVMad2SnuFY7HTdpexqVFODF6Ej/Zv16ezG+Tg1gM4PmutIdTGWxOGZmqRWmVZeAw76+R+JU13JXqUKLZv7dKJPtyqqXwEdmDcM+2n7/t8yqq5fJE7qpgm+2ML7PLF+d0VwC001qNbXxQqZjffb5tviGSNvzqKQAL0oqEUm3joX3smrscL1Vv9hlus/uoby9WfdnXYzlfdn0IFjrnMu6cTI/ZXS6lepCzk0O0ORaboz7WNb7vP4+BuW4Ub9vvhcDBen7dDV2IL/YsQRHS8sO0Irf5DhOZDWr1zbbZvmKhPK4br6P0yOr0+nLzXyux7d+o2/S/+irupqmcVs9k2vV9LhJ2wuopAAvTGZAZMnAP+dN8mrYTIt4dZQuEp3Rp9VgOtN6d4wv+305+vIulamnK3Xh7HrVSiXuOw2Ztf1apqYajQoMNm4zZWd3PejyoFb7bL6PwRRabEY7v5FRf58cHy9Xekrcq+wUt6GdIrakVb5xWlZSmFt3uUkNEN75+djtOI5n3dWrqiC+alDSs3dVaFBayLi7nvo2nLwvpkfmXJmpalfH2kmd06RL3O5pXNpe16pw7U9xrUjb96YbAPAMVQ/aSw9uTP6WXlexpEbCNRtMVxE+Mz3itoGBL9f6OpUt9rxkzlXJYgakRrEZza6l7kB5GL1Wjo3nWIMr84vjOEs3GwFeuPW9UzbQPGXbM7D6cMP7XxWfwap0Khum+Hxsehas2sdxAqlnv3Kz6fTBPvOrY8xPs7xa6pw/XdIDqXdN42rFUX6tjN2uvV22XCvS9vVyrLSdNynAc7VqRslLD4hMWpzMt80G4rnpzziiicr61fyhdUYy18jjLU5l8Epfp6xb/zYw5yrwo+uTCa05jWumrZzfpFraGl7L/k00LWU6uON64gdz+bjqL3BI3XXrYY7pZz0dd0smdcCrt+0ZWPUlaZ6WmbF6nsaz4qS6FUXbPeDzUfs4jm/d1cuVd1Wb7b9bdyVafJbM9wBefIyOJXuqzTS1qW5QeryfTDqfPVgNZtKt1BiFRmlchR2u1fZrv/u1Im1fO1bafmZqKvZnAAD2Yr4jJx6Qa2adSxVmzDcjd+0sNY6XLcAAAFrtKdJ23qQAAA4m+FzeGzoMUlNmAgCeladI23mTAgA4mHVrW5VcKxwAoPWeIm3nTQoA4GCi70zwTT/pfH9t00897i9NBQUAnpenSNt5kwIAAACgVXiTAgAAAKBVqKQAAAAAaBUqKQAAAABahUoKAAAAgFahkgIAAACgVaikAAAAAGgVKikAAAAAWoVKCgAAAIBWoZICAAAAoFWopAAAgNdtNpSzszPpTUK7AsBTo5ICANuEExn2zrQQM5SZXXUYoZaNetLTwpEpIEWFpJ5uo3E5qRjPWa8nw/TO6jFk/p5Z0scVyiQ61k1LTzJluXAmE91+OkxPN156GE3CJo52/vGShJP4vqKigcMind4YNnGEdPpsqezPAIAcU/Dpjhf2N1f85Y307W/7MZlMV6KoHUfciwuRhweZLqIV4gVzGXWigFvMZHg2kKl+xnEv5eO7c133KHd3t/Lw5qPMR3ZvTebXHWvUrphNZb2TDzd9iTenGenkWu4+R78UPEynssich+L2H++uZDzV43A8CeYjG6/RJGzseOcfL01yrzheoPd9rYdnzbxJGeidWfuz9l6uuG/xUpBOP2k6bSopAIC8YOk5Yhpxlo7n25/dpW//uq/Ac6K4xc3GGPhu6fpyyT46Sy+wq6oE3tLReGtFW6Vk33zXbL8Yb7JeC312TbOwxz7/QIa9t7P34Cb+0tXwWmjTOxUvFen02lOk03T3AoAy4b3cLkxL2VLmo65deSih3N/alrgP2famTv+DaEIvMr2Tra/Mo300jVufarbm7Wd2N9X/pvd5JvEqT3KHIf0PnoYUWXwO4hWNwqqjnn8A2IZ0Ou0p0mkqKQBQpjOS+bLuq/ymAvkc5X2X8rYQf0fOo9f8D/K4pc9zeH8rC802LouRHF44kaso80rtc/ioe1mhcy7xYTxqVq+ahDWOev5xElWD0ZN+973J+npbs6Hp057rS6+hao0J2LC9uK98yZIZEBALNZ7eKnxPhrn44n003WHUYizdDXHhOSOdzniCdJpKCgCcWpIRXJwX+vYa3TdRe5WkG6zKBFEOqtlGYAph6UGOpmBVPsjx4XEms5ldwi25a8rseqx7JOJ+rNv/vivxYXzWrH6bJmHxbHTfFFtejeBzdC8Vr3coj+bByBQK4zEBA1Pwcj3xfV98z9XPTmXQzVdmSpiKS3esFQpXPPtZs0+6EY1Of881Fy/GXenGGxPXdTTUQqa6Ll3x6X/Qz/lxq7IZOxDFa5Z80zOeN9LpnNOn01RSAOBZsgU6LX6NB2N5uLi0hSVPXMcUrAbSLWnZXej6wcAu3a7NKLeW9OIuAFpwe5cuh3XeymWUad3K/bYomoTFy5Bc81yXmKg7iquVAL1379J/SLrFXL5dFbDCyfto0LLrz2V+M5J+vy/90Y3MA1NJWMj4evPbi7jriyv+/EZGuc8+aKGrXyjJ2a4rGv7mRrcZhTW37f26MNnRePq2VVneyFsTr1nqlQrxqpBO74NKCgA8a25cqNICXFQI64/kZh4U+0tHr+WXZrKU1RJErcFxS/Gmnirh5Crq2uJ4H3IztnTkbZyjybgbtwqalr/JZCi9MzsjzkqTsHgZkmuerozEhTbnzbuoVXaaqqUUu8XYMQGOFrq6oYRhahGtJJio011PCpI3M2+0OpJiu60U3vCowriBVaGNt3zYB+n0LqikAMAzd15owU36S+daqnM6mlHOfTf6eXpVHB8Qm8l1lDO58rGk43FnNNdM1BXHtgqalr/x7YNceKalUAOkCohNwuJl6Ly9jN5EPCQd9+1A28u3/bgwlKpkRN1iMl297JiAqGtXV7qZZSBmRtTN7HOQr2DM7uLC3BvuNpwO6XRzVFIA4NTKBiCmxH2YHdlchqo/cHMjO26gki3Qifuuct77Tv9G5vNU6998Ljejc9MYV+jP3SQsXgD7JmLVXcqMR7EVkY65gVfdSuKuKumuXiuOJ34QSFC2bPmOkv47U7jTSk5vKBPTv9+0CEdjTk40kBnPF+n0k6fTVFIA4OQ2DUBM+hVflLS8ZVUP3Ez6QW/LQLcJZRJPFVOYgnMrm2m6mc7RFZqExTNju4/Yykg0RiQp5PTfiZvcv9E9kK84rJ8T6XT0/yVLHLCCvX+dePzL2PTvH8e/+7W/hA+vF+l0xhOk01RSAODk1n31r3KDIZN+xZkWsWTK1mF2JpioJVoVugDMruO+w6VTZ6Zp5vY+ng2mtAW7djw5Zn9Na3XJXPsFTcLiWYq7fJlCWlwoWxdy+mJedJhxKWE0UCV/n1U/J5FofIr9uVTcXcy5eCc3qVZhMyh+/0Hup5/pCKdGOr3yVOm0PrAAgIJg6bvu0rWLZlVLTaGXTrLO8/f8pmn7jdVmcWyc9pt7NefLfmNv8g3ChW/yXX/br9m3OA77DcmZbzfWbWk4R/+WHI/rJuF0qfjWbL/im4fT4jCpeFP7s95+rEnY459/nI69T/X+c3LXOv5G7/heKP+29/Vz4rje0vP9pe/rv/b+zXym8K3x6ecjtZj90GfO8zd9NpHEUfwW7eT5iJ9fc28e6nu20R6k00+ZTlNJAYBSqcypdCkWWhoL/FVhK15M4l6SEQVenPhrLlRM8E0mYQp/SRxxYS5d/jICLditM0a7mMwwHzCRbLMiY0wEmjE7q0zMLHFhrewzTcKe5PzjZOLKiF63/P2U3Ge6VBeyive4KTBmKhlGSUUj3q7e51pY8qMKjnnmksJUaps7VFKiezR1Pxc/ixeBdPrJ0ukz8x+NCAAA4OUwX+Q4mGr5LZB5fgCK6b7SHcvC9WV5Qz9DoI0YkwIAAF6caJyLuigb2Wy/9Z5piIH24k0KAAB4eZK3JeKI417Kx3fn0erHuyu5nS50vSv+8qZyylYAT4tKCgAAeJnCmQzfX8l0Yd6bJEyl5aN8uukXZ0oC0BpUUgAAAAC0CmNSAAAAALQKlRQAAAAArUIlBQAAAECrUEkBAAAA0CpUUgAAAAC0CpUUAAAAAK1CJQUAAABAq1BJAQAAANAqVFIAAAAAtAqVFAAAAACtQiUFACqFMhv2pHd2Jmd26fWGMgvtn09qz30JJ5nPZheNxwZbCWcy0e2lw/WGM92LLWbD1XZ6kw2hdX+GvYpt61Ym0d82LT3ZFD0AHMZrSnvTisd91uuJ7kqJJmHrO1sq+zMAYMUUlLsyXuiPjiPuxYXIw4NMF9EK8YK5jDpRwBM4wL6YjLI71uCumI9nvZMPN31ZRzGT4dlAphq3417Kx3fn8nh3JeOpbs/xJJiPUmHTUvupHC+QecmOhZOedJNA4oq/vJG+/S2mGd7kWu4+219zHqZTWZR+DgAO6bWlvYnifog8yt3drTy8+ahxpz/VJGxDppICAMgKPMc04CzF9e2aWOC7peuP6SD7EnhLR8PWCeq7GmdJ2GS9ZoB2TVa8n87S8+L9KoYLlp6TxOHbn91lozP5BOcfwOv0OtPeJKzGV765lCZhm6O7FwAUhHJ/a1vKPmRbgTr9D6KJssj0bsur8kM59b7M5G6q/zie5DYn/Q+e7oXI4nMQr8iYybVpoXM/ysg0pJUJ7+V2YVoflzIfde3KZmbxzhXOBQAc1itNe6OwZjc+1XhL1CDsDqikAEBBIJ+jvOlS3hYS3o6cR6/sH+TxJGMiTrwv4aPGVqFzLvHmHjX7zpoNzet+V/ybDZWHzkjmyz26yYUTuYoy8bJzgXYKJTR95TNjjHoyrOozv+ovX7JkOrjvOU4A2Op1pr3h/a0stEp0WSORbRJ2F1RSACAvySwuzkv7/3bfRG1aUtqodWgH3peHx5nMZnYJm+auXYk391mz7xRbeXC8D0cdIzK7HuuRmgbDqn7ZaJtw8l66A1OzdMXzffF9T1xnIdNxtzi4VyszZ91xVOCKwnpu1Hqsd5a4nv6+al6O+9/H0XoaZxxWFlMZdJlQAQfyStPeIKqZaZUoMA0G6QH8pnEhO4C/SdhdUEkBgFdkMR7IYGCXbtdmJqmspPNWLqPM8Fbua+UwWmB8r5UHx5NPx3jfv2K7QmgB9t0xa0I4qM7bjxKYLibzGxn1+9Lvj+Rm7utVNLfYfaYQE3flc8VPwo5uZB6Ybi4LLSx2pW9vL1PxiXq3+HOZ34w0zmzY8fVpOmICTTyPtDeUx6hmNpXxYCwPF5e5xoWBdFdvNJuE3Q2VFAB4cuG6hW211Mql6ote9y/NZCmrJdDMxBTqTKv2Oi/pyNs4p5RxN24NM/szmZjpLdezx6zMruMC45HfboSTK80Kj/+2BgfW6UuncGOUtQrbAo/zRv+aYru5rPvi23ECjlZWu6GEYWoRDWviLekSAzyZZ5n2uvH4lZtRqnEhqBiH0yRsM1RSAOCpaWazamFbLdd7Je51dDQzmfumTVvzkqvJqmDXGc01E3XFsa1hZn/Gtw9y4ZkWMg2wKkjOZGj63Li+bOoOvT87MFQzw49HfVuD4zDjUiYyGQ5lGC3X0WDbLNvHP9+dZXYXV07fJFUXO04g6trVlW5mGYiZqRVou+eQ9p4XktpkHM5U7nKZU5OwTVBJAYC8DYMUjbgfriOrctO++jeZVrZ4sfPXH3tfum/000Ud3af5PLU/87ncmKljzOZsH+3V242HO1v4tMtV1AdAFrfX0e+TfWtbtqAq7jveojw30RfMaQViMJbxdCpTu5TVJfrvTKFNKx89c8/MZGZakKOBJyUDcx1P/CCQoGyp/C4JoIFXmfY2mRDgCJMH5FBJAYCCikGKkWRsxEVJ69ExtGhfbGXBzQ0KWSzWhc9oib7ozPwh/v12rxwslEk8pRfTDj878bUzs/+4frAudC1tV5AMe50dV1y9y8bmbeI4/t3PfGHe+nkw/cg6ZUscENjT60x7qycESMagrCtmTcLuRBMMAEBO8iVe+S/Fqvpyr2NqtC/2i8PMuu3frZX+gq8toZN4HW97vPaLzjbHmWx7y5c5Jl+aVme7aBl/6ZZeO11fuPZxWKfGc1X1PESCwPwfOIhXmfZWpbll65uE3QGVFAAoZQtYUULrLl1XF5upbC1YH1yDfUkyh3wBUMM7jhN/NlpsJhvFmc1I4m83ToVdbavmtwrbfShmlIH+Kdm+G2e8GqeTrPOKmXu8L/W+rRntk1w/x/WWvu9H34gdX3ezpO/RdaEts+g96+g97/mZO3T1PJh4PY3X9/Vfe09vLfQBtb3GtDf9LNp90f0v348mYZujkgIAVQItVKUzlChR369laGd196WiNS/QQtw687CLyTgzhb9YoBmds8p4zGK2Vad10KrMKFMZfumSy/SbtCCipbQQk7tvzT0XF8ay1ztunda/a4HJVGiiSs2qQJWvqJo49L5cxatLoTIDHMBrTHtLnq+ooaF0R5qEbebM/EcjBAAAeBrmixwHU62PBjLPz+AWTqTXHcvC9WV53GnkALQIA+cBAMCTCuNRtnJRNgo5+BxNbLSehhjAa8CbFAAA8LSStyXiiONeysd359Hqx7sruZ0udL0rfjItN4BXgUoKAAB4euFMhu+v1tOoRkyl5aN8uukztTDwylBJAQAAANAqjEkBAAAA0CpUUgAAAAC0CpUUAAAAAK1CJQUAAABAq1BJAQAAANAqVFIAAAAAtAqVFAAAAACtQiUFAAAAQKtQSQEAAADQKlRSAADAccyGcnZ2Jr1JaFe0RFv3C8AKlRQAqBCGMxn2elFhJl56MpzM5HDFmlDLSj3preLXQlNvKLNdN6AFrySu6sJXcZtneozDmf2z1ezY6x9Ho3g17KQk3snOJwgvSTiJ7yMqGjgu0uknS6eXAICCwHOWJokUcZaO6y5dN/ldF9e3ofYRLD3Hxuc4Gr9uQ/9NtukFNlhtqfh0cUoj8Jeujd9xvaXv+7p40bE53vqYmh17g+Pw3dX67fGW7KvnLh0b/iCXAMdnr3n5/bif5D7dKe7G+2XvR8fTOx6vB+n0U6bTVFIAoITJAEyGkMlCAs8mvrtkTlmrDCaXigdJBtEwdY/j0/3SDMJ8vpj5JZnU9n1vcuxNjmNzvK5md2tJvIXTkIRveH7wRI5YSdkLlRTU0CR9qyOOj3S6Lrp7AUCJzmgu81FfOvb3SOetXGrKK7KQz0G0Zkeh3N8u9F9HvA/9eJXV6X8QzaREpneSe7O/wUyuxxqf+1FG53ZVXngvZpOO90lGmYMqqn/szY5jc7wP8pjqHRB8juN9041/B4DTIp1eeaJ0mkoKADS2b6IcSJy2X8rbQkbUkfML8282M9hkNhzIVFzxb7IZUFp4f6vZliOXxQ02lD72wx5HWveNyREXcnuf/XB8HLpJai/PTmj64vfSfdyrboyafeerBr+HExmutpNb8p361bb9mg3NevOMqcVYuhviwktCOr3NsdNpKikAUJtN7OVCzvfJQ8JHzRLUxXm2tcpKEv5ab2u0QHalpSfH+yDVWZ/uebTjmhsFpgBXd6BlWsmxH+I4ZtdiGhej1sVUJJ3Rp6iFbzHuSm840QKqFlwnPelGLZG+fNrWzIhWMdexOzDFfFdc19Ei1EKm5toWKiqhTHpdiYN64vu++J6rEUxl0O1JZb0mYSou3XFUGPTsZ81daAptrqe/51qS6+xX/4N+zvfieBwbr1lyceGFIZ1ee6p02nb7AgBsUdWvt7Et/XUr+/kW2P7L6X7ypX3tc4M1XW+pBa14MGayfsvGSo99l+MIzHbjbXvJgEwn2895LdDDsWHs0rqxDdgs6fOe72Of3Du5MR6N+riX3Ou+a7aVu5/sZzP3TsP90g8wJuW12SV9K0U6vSvepABAHeFE3sdNSRtf15+Ubd1yP45KW8iKXNG8Q+Y3Ixn1+9Lvj+RmHmzvW33AYw/vr2QwGOgylvHUxKnFxIs3+ofox6zwXu4eTBhHHMfspGmxe7+hmxDaqtDHPunjvvgs6wZc23feceVdN5QwTC1yLhcm/MPjhtbkUB5Nk7HzRjKdTDr6Wf1nUdJUXG+/gD2QTu+MSgoAbDWTYXcspq+wF9xsfF1/OrpPppuK60uT/KjYTS3pkzyVu9Lc77DHbgZlLuOZJXUJJPBd3fS42JVn1W3HEz+Yy3yunwt8zajj7jiMB3iJbFeVqGtXV7qZZSC2rLSBvZfzFYzZXTSehHFMOD3S6X1QSQGAjUwf+XjQrOvPt864Uott2a1qFa4zY0o4uYoLXg93MhwO18tV1PtYFrfX0e+TKI/YdXDklmPf+zg60unfyNxkgJq9jq+TDM1m7KZFcD6SfrLdTl9GqxbFq+3jE/A8OabAowWjskXvh02PYP+duZe0khN9mdxMZpOh9KJ76RCDkfGqkE5bT5dOU0kBgErxIN7oVb2/bNQStllX4rGKZV1KZnJn0n3NVuoMzl8spjKdppaFyXDMH+Lfb21uVz040naRKWRSdY79cMcRSTLRZKBnvttOJMnI8fKs7yfpaMGobIkDVtB7Nhqd7GqxaSpj011lHP9uWnkP0sCAV4R0utQJ02kqKQBQKp34BwesoBgdeRt1fJ/KVa6ZKWl5E/fd+pV9OImnYx2uZ3fJvo5PLVFrl+YbXhD9Prcls47NMaZXk1UckWTWlsz0lHWPvclxmDh7MinMIxvKLM4l17PPJC1/pZlqklk3yFTxTFTfT5FofIr9uVTcXcy5eCc38/UzMZ/frFt5d7apoIeXiXR67YnSaT05AIAczUNWM5q4bsnibZ5lZTs7W1B6G6uZXXKzqKxmIqqaXSWldNYYIz1zjGO3l8zIkp3hqNmx1z2Oku3rollnSVgNncxSo/tothfNNONpeBvHoWaPwZFtvR/z9/T6fkrPbpTMMJSJpxB3dnak1aL3kKP3pudv+myiar/MR5L4zL2rcVbMloSXhHTaLE+VTlNJAYCCisJOejnEVKSBv57eMVpMwack3tQUklu3WZn5GfFUkesMR8Pp9tJlt52Ove5xmO2nMrA4rjhzK93baOrNdLy6v/nCJtpth8pAdJ/k7lNTsCpc95K440JTqsCki5cqZK3qFTvtlxb0UvfuvgUwPBOk00+WTp+Z/2iEAAAAz5eZaWgwjbrQJN1nVkxXHDP7kevL8rB9NwEcCWNSAADAsxfGneDloqwTfPBZoi79m6ZiAtAqvEkBAADPX/K2RBxx3Ev5+O48Wv14dyW304Wud8Vf3uz9HRIAToNKCgAAeBnCmQzfX62neI2YSstH+XTTj2clAvAsUEkBAAAA0CqMSQEAAADQKlRSAAAAALQKlRQAAAAArUIlBQAAAECrUEkBAAAA0CpUUgAAAAC0CpUUAAAAAK1CJQUAAABAq1BJAQAAANAqVFIAAAAAtAqVFAAoCGXSO5Ozs01LTyahDb6zUGbDnvRS8fZ6Q5k1ineHOMKJDKPj03B2VV4YzjRMbxWnOd7hZKZbK6FhJ7oP67C6D8N82F3PafH4znS/NHrgcPSZyNxjmaX6OSk6xDONdiGdzi6nS6fPlsr+DACIaII7uZa7z/bXnIfpVBbiir+8kb5d15zJDLoyXuiPjiPuxYVG/CDTRbRCvGAuo04UcIPmcYSTnnSjDxgVxzAbytlgqj844rgXciEa59R+xvVleZP+hGaSZwOZRmEv5eO7c3m8u5KxCe94EsxHEu/CLue0GLfIo9zd3crDm48yH+1+9oEMU0npjvWedcU8Rlnv5IPe81sfx4M802gX0um0k6fTppICAKjJd03DzlIzAbtiN4HnlMYTNIi/WRzB0nN0na53PN/+7C7LtmLiNWEC+3sk8JaOiTP3Gd+N48zvbrLe8TKxlNu4v86yThTAXuz9XeOxq3SIZxrtQjqd8gTpNJUUAGggTtT3TZA3JezJ38ozprWGcUSZVxK27jbSyrbnL12TaTme/jUnySxrZOKl59R+vlbmCexr70pKw+cRz8AhrmnDOEinMxiTAgB1hRO5it6uX8rbvbptBPI5etNfFk9HzqPuJg/yuLHPc8M4OiOZLw/c3SR81C1U6JxLvAuPsvEwKs5peH8rC3Hkcr8TjScXSjgbSi/Tz930my+7K0xXEw2b6tfe601y/fGbxHdKh3im0S6k0ytPlE5TSQGAmmbXY02QRdyPSf/dHSWZxsV5aTzdN47+dyGfg/j3UoeIo4nZddyn2v1YMwPtSrwLnzWbrlZ1ToMoZ9fsMzCDR2sODEXrhJP30o36zbvi+b74vieus5DpuCu9XMViNuzKYKxhXU/DaVjP1bW3mUJgk/h28fA4k9nMLmGD+E79POL4SKdXniqdppICALXM5M6UjbRw9O41jNcOk8LaJJ4RxhQMHVf89GDMzlu5jDK4W7nfKTeqOqehPEY5+1TGg7E8XFzmCqQD6TK917PQeftRgmAp8/mNjPp96fdHcjP39Yqb2+Y+VYix19zx5NPNSMNp2NGNfi7bqlw/vt0s9N4aDOzS7drC1r6xAkfywtNpKikAUEM4udKk2JShPuwxo9fzEd5f2cLaOJ4BRjkXb0y+lNKRt3HuJ+Nu3HJmMsxJ1GXHzmazwfZz6opnCqRaaF0XSAPxzCand7luQGilTl86hRbdDa23piC1aV7WpvHVFXWzicbprpZAC1uO3tvmLQ11YrTRS0+nqaQAwFYzuY7focvHg3YWbq/OaJ4qsAVaYHM1wxnLQDO5dMOyCWf+5tiWM5Nhjm8f5MIzrWkawHmjRcgy9c7peeFPST/uqdxRcHwmzDgS09I7lGG0XMttoWDUkdGnuAV2POjG37FQ2V2kTnz762hha27uezW9mlTsC/B0Xno6TSUFALaZ3UUtSeK+O8xblC2DFeN+vo68Kc81YoeIo7aOFthubIFNC5HX2Vwn+ts8ySh1mc/lZnRuglb2xd58Thlo/GKYQe5nXelGLb1TmdqltE7RMS2w8RsMN3qDMZDuWe6L45rEdwjdN/oU1XDS5xEnQTr95Ok0lRQA2CiUSTytiXgfDlJFUZu6pyT9fy9KWqfSDhHHjioy3AybubmlA3i2n9PqAaVJP2gKfO0XX2cz+4/rB+vC0dJ2Balg3mDElZV8YWu3+E7jCZ9HHAnp9JOn0/qAAwCqJF9gVTbH/B6SL/jKzy9f+sVfqbnss1PUN4gjY9P8++ZvztLz80cb2HnyN8VrJftbdc7qnNOqMEe6HjiGqu9n0PW1vv/Bfn51v+0bX1PJc5J7xg7+PKKtGl1T0um1A6XTVFIAYIMkwT98+cIWuKKE3F26ri62QFTIlJIEv5BZNYgjyrxsGF2izEmcpZOsW31z8bpgZv6eDV+MNz4/63Dr7ee+9Cul3jkt2Q/NlLfFjXZJrrXjekvf95eeV3EvRQUmcz/G4XzfW91L6fukdnyNxJUcR++v1X3sJveaLlUFsL2eRzwPpNNPmU5TSQGAKttamvYVaCErXRjSRN0Uvgrbqmihi9SNI51Rli7pTE0zSlP4W2U+upgC3CqDXAs0Y86Ei7Zfsp+JRufUZNga3ypuWzjd/kG0hhZicvenqxcwLgDl7rnctTYFurKW4nrxNRNElaJ0vLqYe77sZjvI84hng3R6i+Ol02fmPxohAAAAALQCA+cBAAAAtAqVFAAAAACtQiUFAAC8IDMZnp3JWa1lqKEBtBFjUgAAAAC0Cm9SAAAAALQKlRQAAAAArUIlBQAAAECrUEkBAAAA0CpUUgAAAAC0CpUUAAAAAK1CJQUAAABAq1BJAQAAANAqVFIAAAAAtAqVFAAAAACtQiUFAKqEM5kMe9I7O5Mzu/R6Q5nMQhugrUKZlex3s93eIY5wIsOeCavh7Kq8UM/psNdbxXl21pPhZKZb22I2XO1Lb9L284/nq3jfn+n9Oqy6oQsO8eyhXV5Getoo7bV53zqs7q8+BNmwoUyi/du09GSv5HoJACjhL11NIkWcpeN6S9/3l77nLp1onSxd3wZrnWDpOfE+iuMsXddduvpv9LseixfYYBs1jyPwkr+bxdWzV7QOY86pxummPrPxhKb2Rxen3kEADZU8874X3aeOV+eBP8Szh3Z5Iemp79YPW/IceEl4x9OjSQRRnhgdT8kS55Xl+14XlRQAKJFkAIX0O/DixLeltZRVxpXbvyDJpGrsd7M41hmwKcjFP1dnqiZMJk9OzueGDD/eH/27ZojxdmqVDIAGkvt498rEIZ49tMtLSU83h83G77vx9vOHlqyvlf4e6J6nkgIAJeIEuaTA0upKyqaCVvK3bS1bDeOIzkcStu420pLPVL2dsq165o8246OSgoOzz/Xu91bD5wbPwCGuacM4jp6eppXtm01vM29MrAZ5X2X+2RBjUgCgRPeNJseykNv7XC/c+1tdq8nvm268olUC+Rzt3KW87cRr1jpyfmH+fZDHjX2EG8bRGcl8OZdRIWxTjpSd0tlwIFNxxb/p2zV4XkIJzXiiTN910xe+7CYMZTZZjz0yS683yfXHbxJfffFz7chl8aav6RDPHtrl5aWnW4WPujcVOucS7+5jbmxKTjiRq6n+W3rMzVBJAYASndEn8bSeshh3pTfUglJoClA96Y41x3F9+bR/LnJ4SQZzca7ZX1FS8focxL+XOkQcjdhMXLO/8/wGbWbneB+EKsrzFE7eS3dgSiyueL4vvu+J6yxkap6rXMViNuzKYKxhXU/DaVjP1bW3mUJgk/iaCKKbUItggRmsvMPEDid/bnB0Ly09zZtdi8nOxP1Ys1LUlXh3P+tWqs2ux3pEJtpR6TE3QSUFAEp1ZDQPxHcdWUzHMuiaAtRCC8yBLG/6eye+iIWTKzFFTnHf5SoioUzea2bneO2sEKKWztuPEgRLmc9vZNTvS78/kpu5r1UMLevc3qcK/6E8mtKcud43Iw2nYUc3+rlsq3L9+Jqw29Y7cTwYy8PFZa4CNJBu/em9gCdTnZ6qcCazmVkm8cxdprLv5N5Sd97KZVQRuZVcJ4KaZnIX74C8O0DLEpUUAKgS3svdg2kTcsRxTMqtaff4/d5dS/YT2owmvTzl/uwhnMj7uCkvm1EatpXvEK1xeEIdrdAXLuCGFllTONp0PzeNrxFXPFMB0krSugIURG9UZXpXOQ0s0Aqb0lMV3l/JYDDQZSzjqQmnOdvFG5OlpHTkbVxLkXE3foto8phJ1A2zG7952SCpJB3q7TeVFAAoMxvKWXesCa4nfjCPWnSXga8FlrhrydlTtaxq4T3OaNLL9TMsQM1kqOfXjAPwgptchqZ/M618ri8MRXkJzDgS03o7lGG0XMttobDTkdGn+M3FeKDPl/lukspuVnXi202xi0wybmAqd9RS0Fqb0tNYZ6R5WDxhli6BBL6rt7XpJZD9LhMTzvzNsW8RTR4zvn2QC888nxrAeSPlw11mcm0rSR8P9fY7Gj4PAEhJ5okvm1Vl02wtT23DzCyq3owr+8RRdzaazTPQJFN2Ok5u7v3kuwXsem/7JDN4av76u4WKS/l9EpjvJrH3R+Fe2yG+Ojbd1/Hfts2WdIhnD+3yMtLTjRpNFWyPpSrsgaYdTuNNCgDkJYMdS1uMkpbVNtrU7SXpK7xtQOUh4tjEfEtx3G1A87KNb0oWi6lMp6llYZvL7fpbpkpqOb3WV9Ooddf1g0wrrhaqKnWiblbLuKXXdDu5Tl5h7BZfHdUDmJPxKttmSzr2c4PTe1np6UbbZuwyZndRVy63dLBJ/Gya58T7cLjX31RSACAvmWqxNGNJCi1tLHAk/YmncpUbN1M6oDKcxNO9DtPdahrG0Ug6Qw0qM9Rst4TUEhVaNRs0kxfo73MG1LfcevrVD/30tdL19qdNOv13El/xxH7xbdKxLQ/Tq0m2sJbMgJSeTvXkzw2exstIT+NwPZkUxnqFWu+I9kCzs/LZx1bMsUUD7T199uy6tLLn5BA0oQcA5Ky+Jdhxlq7nL31fF89dOva1enu/UNC+ko/2PekmZX/PdxtIXs8XuhM0iGMZaDQ2jC6aHWsYZ+kk61Lfchx3bUjFmV+29d+y+8uXOT4fyTV3XC96hjzzDEX3iFlS95L9ErsknJ/q8pXuPVI7vsbWXWbM/Rvdj0n3wnx3nIM8N3geXkJ6WnJv61L13MTxrsOt97W6a1uyLwfs6RWhkgIAFeK+8UlBJV7MOAnPb3khOdDCm5ve77jwV9jr1DcIF/9WM450Bly6JBlgOqOsWCr6ba9QSXmG9Lrn7iNXn5+4UJMuHJl1eo+twulS+qzVjW8XxX2IKkOFXTjEc4Nn40Wkp3pvpxrZ4r/rs5Oq9CQCTWcz4aJ9LTmmRHLc29LvHZyZ/+hOAAAAAEArMCYFAAAAQKtQSQEAAADQKlRSAADACzKToZllqdYy1NAA2ogxKQAAAABahTcpAAAAAFqFSgoAAACAVqGSAgAAAKBVqKQAAAAAaBUqKQAAAABahUoKAAAAgFahkgIAAACgVaikAAAAAGgVKikAAAAAWoVKCgAAAIBWoZICABuFMhv2pHd2JmfJ0uvJcGb/fDLF/ej1hjIL7Z9r2SGOcCLDngmr4eyqvDCcaZjeKs6zMz0/k5lurehYYYGDmg1Xz0lv0uSOO8RzinZ5fWnvyrZ90L+njym7VO93bUsAQAV/6WoyKeIsHddb+r6vi7d0Xf3d822YUwiWnmP2QxfH0e27S1f/jX7XffMCG2yj5nEEXvJ3s7h6NorWYcw50jj13Kw+42Y/caywwGGlnhVdnHoPmDrEc4p2eX1pb6LOPmigpaN/dxwTZ37x9cj3QyUFAEolGcvTFy5WmUU+4/Hd0vVlmsWxzlRNZSz+uTqjNGEyp8hmXPlzd6ywwCHFz4reY178bNStpDR7xvAcHOKaNovj6dPeJvuQxHGsW5tKCgCUsYlv/VbUY9lUWUr+VpGBrDSMIzr2JGzdbaQln6mTeR0rLLAL+/bU3GC2EFkvDUjuzX2eU7TLIa5pwzjakPY22YcjV1IYkwIAJcL7W1mII5dvO3bNUwnk80L/cS6luCsdOb8w/z7I48aOxQ3j6IxkvpzLaO9Dd+RN1/641bHC4mmFEprxHVG/9mQxfeFLe83LbLIeC2KWXm+S69feJL7mZsOBTMUV/6Zv19R1iOcU7fJK096D7cP+qKQAQIkgylk0BwnMwMEnHLwdPmoWpi7ONUsr6r5x9L8L+RzEv5c6RByN2IxZz9/51ozuWGHRBuHkvXQHU/3JFc/3xfc9cZ2FTMfdwoD02bArg7GGdT0Np2E9V9feZgqBTeJrLJzIlUbteB+kaRXl9M8Yjo60t7aHx5nMZnYJD5c7UkkBgIJQHqOcZSrjwVgeLi5zBaKBdE8/vdezEU6u9Mwp993Wwt6xwqIdOm8/ShAsZT6/kVG/L/3+SG7mvlYxtGh2e5+q7NtnzvHk081Iw2nY0Y1+LtuiWz++pkKZvB/Lwmy/DU3IwA6eKj1daJ44GNil2z3Y200qKQBQyRXPFIi00LQuEAXimcav6d3+0yuuhOtWqNVyuNaokwon8n5smudqdJk5Vli0R6cvnUKZvytxA/JnKTQgL27lftO93zS+umbXYm4v9+OotMUbaL2nSE+jrmHR+PbVEvieOBK/3dy3LY9KCgBsUHwNnvQjnsrdoWopWkBatUKtlusDVoJOZSbD7lizJ0crdzdbWueOFRbtY8aRTGQyHMowWq7l1pSPMjoy+hS/qRwPuvF3EVV2q6wTXxN6f5kuZK4v1H/xPLUnPe30teLim3ebmkteTSqe4XqopABAwYkHuvZvMi1R8WIzj865xLvyWJrYx2NntgySPEQcW4Uy6ZlBx6ast23Q5bHConWiL0XsSncwlvF0KlO7lNYpOuZNZdwS62qIqFvlWU8yvUaaxFdT0u3FebizlR67XEV9PmVxex39rnWmaid5xnBSrz7t3UP3jR7V/qikAECJ6gGNyXiVUxU4NnVlmcmdyW00G9w88PEQcWxiMr5u3F3GX25pjT5WWLSPXr8rU4Fw9PoFqQq47TJZwbTExpWVaKSJjK+T2sFu8dW1WKwrPdGyMAVI84f499uNLRbHfsZweq857W0JfcABAHnJF2053jIzvX3V+iNKvgws/30NpV8SZuetN+vSoRvFkbFtrv70XPvbzsixwqKd7HeOFJ4VXb/xnkqkvrMk/fvO8TVU9T0pB3/G0FaNrumLSXvTtu1DmfW2Cs9OQ2fmPxoRACBj3epk3pq47oXIw4NtXTV9eU/Z9Wgmw7P4Fb04rphdkQfT0mtWuOInXcOM2VDO7BStmfVN4tBjnw2v5c7+9hB1p3H0YxcSdV14804+jPrRAOPZ8EyizSVx5mnYGw1rHCss2iu5jo7rycd35/L4eCe346R7Vuq+CyfS697qqssonMij3F2No/tTy3CrVt/a8R2CfZa0oCXz9MN+kGcMz8PrS3vr74MeV28gD/q3i4skUs0j4wPTbXkSzPeciCKqqgAASgRL33Xi1jG7aOFo+SQN+4G/9HRfkv3QHCDal8KuVLTmRerGkbRYVy5Jq9q6xaxyWbV6Hyss2k2vZe6eMy25vmt+TrfOFp81LRUtvcLDVje+A2j4JiVS+xnDs/Gq0l6j7j6Yw/KWrpM+Ll3090O9/eZNCgAAAIBWYeA8AAAAgFahkgIAAACgVaikAACAF8QMVD6Ts1rLUEMDaCPGpAAAAABoFd6kAAAAAGgVKikAAAAAWoVKCgAAAIBWoZICAAAAoFWopAAAAABoFSopAAAAAFqFSgoAAACAVqGSAgAAAKBVqKQAAAAAaBUqKQAAAABahUoKAFQIw5kMez05OzuzS0+Gk5mE9u+nFcps2JPeal/OpNcbyqzRzjSJY8ftzYarz/QmWwJvC6vnf6L7kGw/Cjd8qvOPFyucrO9zc4/b1dVMupDck3XC43kj7Y3CbUt79TmKn4sDPhNLAECR7y5NEiniLB3XXbquY3/XxfVtoFMJlp5jt+04ui+6P/pvsn9eYINt1CSOXbeX+pwuzsYd2xbWX7p2e47rLX3fX3rJNXA8/TRwIIG3dOx9uP2+NcFTaYG4eqfi5SLtrZP2HuuZoJICACVMout4fjZBXhVmTlswWWUAucpRkFSkalSamsSx6/biz2lG6sXhNmWU28L6rm5H1+c3lazfVpAEakuea1MgNP9urATbApwW3uKCHpWUl4y0d6087V1XeEx+eehngkoKANSWJMibWrQObdM2k79tyxSaxLHr9pLCm/7FZqjVGeW2sPbvZYXFVYFy8xEDtaXuqaSQWHl72fvV9es+e3i+dk0L05rEsev2njDtjdYl+1v3nNTHmBQAaLVAPi/0H+dS3nbiNWsdOb8w/z7I48bOwk3i2G17s+FApuKKf9O3a6ptDRs+6hYqdM4l3oVHxqY8C6HMJuv+71Hf9t6kpM96jX74s2H8N/185tonY0ry63fQeXspWhCT6V1Zr/pQJldT/deVd9tvczx7pL0ZZWlvZyTz5VxGhf09DCopAFDX7FrGJhNxPx4tUS5IMo2Lc82mirpvTJFqIZ+D+PdSTeLYZXtaSDRlN8f7IFuzySZhS3Ul3oXPmqWj7WbDrgzGesFdT3zfF99zde1trqClhf+ehovK/6lwi6kMuj1Zjevt34hvPr4Yy3WqDjG7Husd6Yj3aVR6zzbSeSuXcS2lWJEK7+VWn//d7108K6S9OadPe6mkAECVcCazmVkm8UwnphTl1Guxej20gPleC4mOJ5+21txqhk0Kiotbuc+1GuI5CeXRlLrM9b4ZSb/fl/7oRubzbMtrOHkfVf5dfy7zdLjA06rHQsapGkn/xhdTT5kO7AxCs2FUuXG8TwdqOOjI6GO0BbnKzXqUVIYui83cwBN4+WkvlRQAqBDeX8lgMNBlLOOpeYWihaGLNya9P7DQVobSyzMpndu3S+7HGq3YtcN25G2cU8q4G0/7bM7JJOo21I3fZuH5MAWeyvs5lPvo9YQr77qhhGFqkXO5MLdBpmtfX26i1ylTGQyHMoxrKDUKaQ3030UVocXtfWq7M7nTTZ30LSqwyStIe6mkAECFzmhuJhexSyCBKRxNx9kuKIegGUhcGUov14eba/5oZnEh0fVl+8ulJmHjc2/Ot+Ms9JTH52R8+yAXnieuyUOdN9KNg6K1OjL6ZK6XFngGXTnrlX3PkO2HH3Xt6ko3swzEtg1kJd2+plOtqhyom1dGX95FtZR1t7JwcqXb0tuXwShohdeR9lJJAYBaOtLRwtE8Kh1lu6DsTeNdV4aS5SbuN7xloHgQj7SUN5tyjSZxNAibFNychzsZmlbtZLmKelbL4vY6+l3LpY3CJqLzPU+dk/lcbkbn5vRX9ttGy3RGcqPXMPC1gKMXzhR6umcllXzHEz8IJChb5vlKiO1GFtkyJmBH/Q+mq5nWg6IB9MnbHk8+UEd5PUh7nz7t1Y0DAOqy0zZqgaU4ReNR1Jh6svY0mHXiqB92Naf/lsVMcdkk7EarKWDt73hWit/30Hza0tU0wV7d+3+L0mmtU/tVOlVr8/3Gc9Mk3azSJI76YduZ9h7+maCSAgAFJrF1lp6fT7QDTadton7CUnKSyeQzkVXmk96X9Hc+2FVGkzgaba9MaaGuQpOwybGdrIKIw7OFrRr3WyTQQlZ6df4eKFR6dlBaSVnvV7zkC16HL5ChfRqlha8+7aWSAgAnkCS2ZnGWrvkmal2iRDpaTl0wSVrRdHHifXFX+5fbl6TQVtjHBnE0ClviABllXBlcn/v19su+6AytFBVsnKXjekvf93XxVtcxW9Za328mrGfDem6+wJY8l9l7IGk42FZ+q1RRSUnvV/FvVFJeB9LezWmvabiz4XSJ80jzzNt1XrbC1hSVFAAopYmvp4nuKoHWxdGEe89Ed2eBvyq0JRmGKdAV84zy1rxI3TiMJmHzDpBRmm5BmXMfbf+Jzj12ZAowet1W11AXLXgV31Aa28NWtTKv7vldKwyVlZSkwFZWAaKS8mqQ9m5Ie1OVqtJlv+fjzPxHIwIAAACAVmB2LwAAAACtQiUFAAAAQKtQSQEAAC/ETIZnZ3JWaxlqaABtxZgUAAAAAK3CmxQAAAAArUIlBQAAAECrUEkBAAAA0CpUUgAAAAC0CpUUAAAAAK1CJQUAAABAq1BJAQAAANAqVFIAAAAAtAqVFAAAAACtQiUFAAAAQKtQSQGAOmZD6Z2dyZkuvUloV55SqLvQW+1DtB+9ocwa7UqTOOqHDcOZDHu9Vbizs54MJzONoahe2FAmveTvVUtPnuQy4MVqch9XO8RzinZ5TWlvWnE/zvTzw5n9c0LjnWi4dby6vxqo0empsgQAbBEsPUeWJsk0i+MFdv2ppLbvOEvXdZeu/hvvj7OstztN4mgQ1ndX6x0Tzk3C6eL6NpBVO2yw9D3z9/LFiT7jLnOxAzsLvPX9vfU+rnSI5xTt8trS3oS/dFfhvaXv+7p40eccLx2+GM5L4nY8PZr9UEkBgC3iAoxmEFpwNonvqSspqwJULjMJkoynRiGqSRxNw5pMK5vPeqUViSZhKzU4ZqCuzfdmvcJok+cGz8MhrmmTOJqGPU7am1SUtt/3vmvCyTJ/GpL1++aVVFIAYCPbUmRSYZtRnLaSsinDSP62rYDfJI5jby+vSdgk86sXFthPcm8WC2FFh3hu0C6HuKZN4jj29vIqwtrKy/Z8zuaNZW9MkgrQ9gdnI8akAMAGs+FApuKKf9O3a04tkM8L/ce5lLedeM1aR84vzL8P8rixA3CTOA6xvSMJJ3I11X9L9w3tFEpoxnNlxhiZvvBlN1Aos8l67FfUt703kWwX+CbxHYojb7r2x0otfm6wo9eZ9ob3t7LQe/5yWyIbPureVOicS7y7j3uNTaGSAgBVbKHY8T7IU1VRVhnBxblmU0XdN47+dyGfg/j3Uk3iOMT2ZtcyNpmt+1FGW/K5JmFn12Pdsgk6Kt03tE84eS/dgalZuuL5vvi+J66zkOm4W5iAYjbsymCsYV1Pw2lYz9W1t5lCWZP49mcLjVrcOt92wx3iuUG7vNK0N4hueq1iBJM9JpLoSry7n/Up2h2VFAAoFcrkvRaKHU8+bU3tX7lwJrOZWSbxLC+mEOlUvH1qEjZjJnembKqF03dPVmNEU523HyUIljKf38io35d+fyQ3c1+vopZfbu9TBZ5QHk0JzTxvNyMNp2FHN/q5eaYAVT++/YWTK4lvuXdP10gBbHLwtNc+h3rnjwdjebi4zDUGDKSbTO/VeSuXUUXkVu4P3T5gUUkBgDK2lek0rfahzTzSy5FS/SMI769kMBjoMpbxNGp6FufijTmsgiZh05IC45O+1UJznb50Cg/QhlZWU+DZdO83jW9X4UTex83MNSrQwNM4XtrrimcaA25GqcaAQDzznE3vbBfMjryNayky7sZvWUzeNYm6bHbjtzR7opICAAUzGZpWJteXk5RPtEIUZx7p5TrXF7+9OqO5mYTFLoEEvqsZ2VgGmnHle+A0Cbs2k2tbYPzIW61nyIwjMa23QxlGy7XcFgowHRl9iltrx4Nu/H0MlV1L6sS3D33+u6ZroaMFtRsqxWitY6a9xS6OybiYqdwlL1M0ThOPY9+ymLxrfPsgF555ljWA80a2DufaRHcWAJCSTAPpOGY++dSSzFdv13snmapnwwwqSvOHGjO5NInjENtTTaZd3Ra2SVxoF712WlaJr19hKZ+pKDDfxxDNOmSW3L22Q3zNJDMe1ZnRK+1Azw1a5HWmvZu2E/+tzrNhj2XPNJs3KQBQYbGYynSaWha2udauvz3JVD2burIk4zS2DextEschtpfSZHaX0rChTOIpvcT7QJv28xJfO/NGwvWDTCtu1G2kQifqWrKMW3pNV5Lr5J3ibvHVp/H34m4qWrZq+Bb1wM8NWuB1pr3VA/ST8So1Zrub3UXdc919BxDqAw4AqMO2Oj3Vlznmt1v6xV+p+enToZvEUT+saXV2lp6fPx/BqsVtt7ApSUtfResi2qyqZVjX1/rOh3xr7L7xbZJ+g7LlTjvAM4bnodE1fSlpb1WaWzctTs7DAdJsKikAUNcTVVJWhbMo4U+6ntnf8wWzJCMpFNgaxFE77LpgZ7oHROF0iTKovcKuJZloOg/F85FcP8f1lr7vLz2v4ppHBRtnFc5PdfnKlp9qxtfQqrCW7+KZLOm+nQd5xvA8vMa0tyR80tVZf09nf/Fzs45zva/ZcLuikgIAdT1ZJUUFWiBzk4wizgRMQa2wJxWteZG6cRi1wwZL3xQUV5mTLpqhmULdfmHVAVvk8FS0wJO7j8ybirhwky1I+RpuXXDSRQtpZa2/9eJrIl0oq1jS9+ChnjE8D68x7TXhdR/Sz6PZh/zjGGiemIkz2teqOJs7M//RiAEAAACgFRg4DwAAAKBVqKQAAAAAaBUqKQAA4AWZyfDsTM5qLUMNDaCNGJMCAAAAoFV4kwIAAACgVaikAAAAAGgVKikAAAAAWoVKCgAAAIBWoZICAAAAoFWopAAAAABoFSopAAAAAFqFSgoAAACAVqGSAgAAAKBVqKQAAAAAaBUqKQBQJpxI7+xMzkqXocxssNMJZTbsZfap19P9CO2fa2kSR/2wYTiTYa+3Cnd21pPhZKYxFDUJKxp2ovuwDqv7MKwIC+yp0b1Z6RDPKdqFtNcsVWnvYZ6bCksAQFHgLR1NIh3HXbpufvGXgQ12GsHSc2RpkmxxnHgf9N/od3GWXq2daRJH/bCBt17vROcm+V0XPU8Zvls/7NJfuquw3tL3/aWXhHe8E59/vHiN7s0qh3hO0S6kvZvS3kb7sAMqKQBQxlZSDpDO7m2VEeR2Jkgynho72SSOpmEdL1dps+euLFOtDutq1rjmu2Zd8fwn6x1KfDigJvdmlSbPDZ6HQ1zTJnE0DfvUaW+TfdgFlRQAKGMT2nxCfXpJy1pZgp/8bVshqkkch9xenfNXtj3bklf2xiTJAJ/+wuDF2/Qs5B3iuUG7HOKaNonjkNt7yrS3yT5sxpgUAGi1QD4v9B/nUt524jVrHTm/MP8+yOPGDsBN4jjE9hKOvOnaH5sIH3ULFTrnEu/C42H6POPIQglnQ+n11n3b4z7rZVcvlNlEw67Cmb74k9z4rybxndIhnxu0A2lvRuO0d8d9SKGSAgAbPDzOZDazS/gEJYwk07g412yqqPvG0f8u5HMQ/16qSRyH2F6S2WqWdl4WSdrsWsYmrPtRRtvCRroS78Jn3QraLpy8l+5gqj+54vm++L4nrrOQ6bgrvVzFYjbsymCsYV1Pw2lYz9W1t5lCWZP49tbk3jzIc4NWIe3NqZv2NtiHLaikAMAGi/FABgO7dLstabVtt3ByJaYYKe476UdrUsKk0jeJZ48xBU7HFf8mFbLzVi6jzPBW7jnVz1rn7UcJgqXM5zcy6vel3x/JzdzXKoa5vPepFtlQHk0JzfHk081Iw2nY0Y1+bp4pQNWPbwd17k2gxdqQ9m7ch4aopABAmc5I5vG4vdUS+J44ErfaDg86B3FoM4/08kxL5+FE3sfNc6WFu/D+ylb6xjKeRs1t4ly8MacgpSNv45xSxt14OktzTiZRV6Bu3PqH56HTl06hNXVDi6wpHG2695vG10C9exNoqTakvVv2oSkqKQBQU6evFRfftNmKTK8mhyu7zK5t5pFerp/gu1j2NZNhd6zZmyNecFPaitYZzVMVv0Arfno+p2MZaIaYfkFlwpm/OVFXnvicjG8f5MIz3Xs0gPNGi6Z4Hsw4EtN6O5RhtFzLbaGw05HRp7jr1njQlbNeXEAqf8bqxNdc3XsTaJ82pL3b96Ex3VkAQF3JDCcn+66ODbOtKM1LKmaDSWsSx67b22NGl0ZTtNr923faGJyGXtvoeSldymcqCnxvqYUhGyZ3r+0Q315q35uHeE7RLqS9WZvS3sPN6JXGmxQAaLVNXVlmchd1/t02QLFJHLtsL5RJL+4KoBmU7PyWv86sMbO7qL+z++4g7XQ4Kr0vrqZRy6rrB5lWXC3QVDJvLG/mpnulFolMt5Pr5J3ibvEdxNZ78xDPKdqFtDejMu090D6U0QccAFDLurXolF8mmHzBV36bpV/8lZrLPh26SRyNtpdpQdt0Tkw4Z+kVwgS2hTAfb4mTv8XCfqpahnV9dM9se/ORb7ndN74qDe/NAzxjeB4aXdNXmfbW3YfdnJn/aOQAgJWZDHsDeRBHLi6imeHVg0ztYENNqCWYj0qniTwO3Z+zQTxjiuOKa3bpYSrx7rjiL1P9f2fDeNaW/PomcTQIOxueSbS5JFzem3dyMzKh161tGlhcG/hhalrGjbJ41+HW2zf9nbMzPqG9kvvDcT35+O5cHh/v5HZccs3DifS6t7rqMgon8ih3V+Pommv5adU6Wzu+Rprdm4d5xvA8kPaut19Me+vvw46iqgoAICPuF29br5JFfz9Ga1Etgb/03PT+OEstqOVatVRFa16kbhxGrbDrVrTKJdPyFix9z1066c+Yc+oV9zUwYw8ycZvtlxwTWk7vkdx9ZJ6huAU3/ebDrNNrvAqni+OWtv7Wi6+p+vfmwZ4xPA+kvRVpb9N9aI43KQAAAABahYHzAAAAAFqFSgoAAACAVqGSAgAAXhAz+PhMzmotQw0NoI0YkwIAAACgVXiTAgAAAKBVqKQAAAAAaBUqKQAAAABahUoKAAAAgFahkgIAAACgVaikAAAAAGgVKikAAAAAWoVKCgAAAIBWoZICAAAAoFWopAAAAABoFSopAAAAAFqFSgoAAACAVqGSAgAAAKBVqKQAAAAAaBUqKQAAAABahUoKAAAAgFahkgIAAACgVaikAAAAAGgVKikAAAAAWoVKCgAAAIBWoZICAAAAoFWopAAAAABoFSopAAAAAFqFSgoAAACAVqGSAgAAAKBVqKQAAAAAaBUqKQAAAABahUoKAAAAgFahkgIAAACgVaikAAAAAGgVKikAAAAAWoVKCgAAAIBWoZICAAAAoFWopAAAAABoFSopAAAAAFqFSgoAAACAVqGSAgAAAKBVqKQAAAAAaJV2VlJmQzk7O5PeJLQrnqNQJr0zPY6hzOwaoLG2PwvH3r9G8fPMAQDwUhymkhLOZNjrRYWJaNGfh7PnXME4sXAiveTcFZaePOu62pMK9dYcSi8quK6XXm8oE+5PAACA1tq/kmIKgd2BTBcLcVxXXF0c/Xk66Lb8TYhWrEyhtTfRomxLOE50/rLLpZx37N+PpoXnYm+m4tyV7mAqi4WzujddPceLxVTGen+eDWctOd6XeP4BAAB2t3clZXanhUBxxAuWMr+5kRtd5sulBJ5jQ6C2i4/R+csuI+nbP6Mu0+3HVJy13uf6Eiznq3vzZj6XZeBLdHtOB/Ke11QAAACts2clJZTHB/PvRaG1vzPSguHo6K8AgKLZtYy1giKOJ59u+lK4Czt9GX3ytGotshhfM34BAACgZQ40cH4qd7VKeqHMhr3M+AszPqD+8IAmnw9lomGTcGZsR89275kNze8D3Wu1GEs3CaN/X2uwrXCW3VajY2qq7n6VjcfoyTD35mDrubADlzOnJlIxSDkV3uxnst1JJlD9Y5hN9Bgy4SZbKxXm7Z7hfhwVKyiJzkg+uuaH9b0bn4uyY1X2uLJdGGsex4ZzUu9ejGWvZ/FaRp7w/Nfav0gx3sbj2Bo9c7Y7nTkPDTYBAACe0HJfvrs00ZjFcf1lYFcXBUvPMeEcDectfd9f+p67dKLPOksv/UEbp5NZ2eDzS3+p5c8oDnHcpevqEn3WxhnoZ30v/qz+3TNxmWUVx37bcuy24sXVEFsEdl/0/G1Wf78Cz4m276yOz8ueg8S2c2GvRXHXkn3JHV/qfoj305x73bdVoPrH4LtxPJlwJq7M+c9bx785XOocJQE3XId4X9JxNrhHNp2Tmuc/Wcz1dF2NI/k9f5CnPv9N92+1fV00rujZTIfPn3sbfzaeps9cEj637wAAoLX2r6SoQAsSSSEjKlCYQk2uMJAUCAvlv7KCYUnBpMnnC4XPRFQgtD8nBRfH02JT1iG2laxvVElZFdpSy7p02Wi/zLEG+QOrPObqc5Fci8I2V4XNqkpKeYGw/jHY+Mv2aaOkQLr9vBevXcUxlZyfRtdiyzkpi3+l6rOreyb3mVOf/4b7l2w/c34iyXXLxWPjL0sL9nrmAABAqx2ku1enbwbLB+J7btzPfzqWQdd034j/brp33N9Go5jlXTeUMEwtci4X5kMPj/pzlSaft2HFlY/5MTGdvvS3jkI/zLY6o0/x4OwmzKxo02l2uc1tq+451GPtFPo6deWNCbf4LEG84mgc75MUhyQ1PAZjcSv3TboB7aUjby/NTuS6L87uou5YzuVb231sh+NQ5eeknsJnO28l2tWKa3nq819v/9bPi3+TfxD78iF6YBZye79pe+s4DvLMAQCAVjrQmBSjI/1RUlmJCxvTQTJeIZDPplyxmGrlpSvdzBLPwrRZk8/bsM4bLZLv4pTbynF982Yru8yTcRW7nEMtfM4mMhkOZRgt1xKV755Mk2PoRIPbXWcRTxdsxixM6kwZbCti8iCP2wNHLlKzPnTeXkYV7WmqlhKPcXHk8m0Sbpdr0QanOP+bbH5eOucX0b+Lz5uq0JvjAAAAL8MBKykJU1mZi++an3Mt0o4nfhBIULasCuMb7Pv5Jk65rSbq7pcZxHymhc/BWMapNzOtKD/XPYbOSG7mSwl8LSybSu94IN2tg587Epd1F7KxrLtqkXfkTbq0m7wBmF7Z7cwkqqO4H4tvJtp6j2xz1PMPAACwvyNUUsqsuxmZPkidsiUOWGGHz+/cpanJtk7XfarZfoUyuYq/v8b1g9SbmWDn7jAPdV9LbLTbfdDpJ4VlU/NdyPg6XfMt6kYbyb4NKQjv47dKzqWsXpBEOjKKpv2y3Y5sVy/3Xbp70m7H8fROc/6rbX5ewng+c3Eytca8zXEAAICXYb9KSjgpn7o0tK3P4kpctlv39b8qa4aN+sXbn0s1+Xxf3tm3OIWwZtrS1c5WFXaabCtptc+HNVO8vo+/q+NgmuxX0iXmUj7008VOXW9/ytpe8Mt3wQknuxzffvdBp/9O76jtOqOPcbjpIDdlsKX3wbA71uK2eUFS8sbDbmdxey+T+DWKvY8T+97PeacqeJ/m/Ferel6UXpPr+MttUt3qypzymQMAAE9muY9kBh+z2KlAzXSi0e+6ZGffSWbv0fWuZ6da1X9t+EzYkhl9Gn2+bL+SKUpTswolU6zGYcyUrMnfdttWPP3qejrXeFrUBrN7FWY8yqu/X/npY73VNLPl+1R9LtJTxtrji36vOL7Sa5dW8xiic2L2w05/q2GSa7j1NBnpeyCKJ9731X2Q3laJ1fkwS+kG972fsyrPf+VnN8+uVr2tA5//pvuX2n56CuLo97J4yuJv/Mzp/R+tr5pdDQAAtM1+lRQj0AKAKVTZQkNScPCL89+qQMsc2bCmUObl5yveUPCp9XlD98t8P8QqXFTgyn+Piwmzjiu7vabbSsVjCnYaLC545gtMJWpXUoy6+6WFRA23CqPH72qY6n3acC7MNU6dy/j6Vhzf1kKyUecYGpz/KnoPRnGkjiu+D4pTZBfY49hcsK25j7XOScX53/As7FZJMQ54/pvuXyS+N9Nxm3uq9NpWxd/omdOwUTgqKQAAPBdn5j+ayQMAAABAK5xo4DwAAAAA1EMlBQAAAECrUEkBAAAA0CpUUgAAAAC0CpUUAAAAAK1CJQUAAABAq1BJAQAAANAqVFIAAAAAtAqVFAAAAACtQiUFAAAAQKtQSQEAAADQKlRSAAAAALQKlRQAAAAArUIlBcDewklPzs7OdOnJJLQr0W7hTIbRNTuTHhcNgLVOz4cye5KkIZRJL06bznoT/Q2NvKC0nUoK8EytM5L80pPecPJEmQvyZq2twD3Kg/1pLVs4mNm1wK6q06l4GXKTnU44kV7q3Pcm207+g6YSqELafnxUUoBnKvi8sD/lLWQxHcugy1uNVqi8Tm0UrHd3cSuP3D949tatymevvEYU3t9q7rC2GN+98IaII1970vajo5ICPHuOeMFSlkuzBOJ7jl2/kPH1686U0VRX3iS3j3Mpbzv2Z+AAXD9Jp9bLTd/+EUc2k+txXEp1nOQhn8odWcQr8TzTdiopwIvSkf7oo7j2N3l4pD8vGujIaG4LkPOR/gbgRZjdaZXEcOTy0zqPmFJLeSWeZ9pOJQV4RcLZRIa9bB/xXq84OHLVj9y8Ig9nMhmmPqPh63UjC2W2+hxdz7bT8zUZ6vWw59met6rxRXWvZcQMpEzFG4UL7N8yyges7nI/hLP8saQX3b4NB6zFaUZm3ETFPV3n/p8NzfqBLZyr6cCGXadHcRiz5O7J1PiN9ODj7LNg9iEJk/50/eM4ldmdPQtRK3qqVX26pctXUPK8Fw7Epl1bj7dZGpfX5FrVufaxU1yrZsdN2p6itSoAz5DvytI8wprrLL3ArlwGqfWydNZ/yKwvLuk4NBbPWa3XvCwVLlmqwyfrq/bjtSm/Tnn+0nXW56u4ZD/b5Frqxam4hutlfX2CpZfsh+Ppb3btzvdD1eLqEeM1SN8L7saLrs9A5h5JL07ms3Xv/+pwZWFy92TquUmnX6vjcXLPwmoH6x/H6az3KTmWTddl+/Ob/UzleU6lIdE+1E7jytOhJteqzrVPn5eycNuu1Xob2fQvq8lxb9pvs+S28wrSdt6kAM/eQsbdpBWjK4Okwcz1ZT5Kv9R1NF91xQ+CVX/wQFPE2EJu78uaaRb6P/MZGz413qU8fMy0zqz2wwty+4G82XAgUzuo0fF80TyhcH3G79NTcda/lrPrsa6Jub4NH3gawy7q3A/rvu+6QXssgayC6rrl8kYYivD6TAfpFlezrFtdo2cg+skRb3Wf+rZb0kKmV83v//6N+VsSh4ruPbNuLnsnSQvzLKzHAwZ2cE2z4ziRdFcvOxih8/ZSf4tt7vKVft5XZ3J9HOFErlJpfXx+gyhsOo1pnsbtp861P8W1Im3fk+4MgGdI062SVox40QqKDbVNqiUp9Zl060qm5aZOeM+1P2dbIF+r9XXKn8tE6pxmWh5j689va6EquzYb4i5tKd7e2rb9flivS9+GqzhKjhEv1/reKVuSe7rsPopV33t5VXFUx21UPl/b3qToUozuEMdxeKtjzDx7qWc9d+zV+1r2mdQxO7qu9NjSYeqkcfu/SYltuvb7X6v1/lSFa3rcVcr2dUPcLyht500K8OwlrXmBaKIXWUwHJV/iFNq+pOm+rklL0qEsZDxOYly32mGDMDWn/cV5YUBjd9V5/CE1bWTNa7kl7mMzLbTxLodyf5u0+eG10oJN1Eq7Xmyra/o+XY0diJdu0nKbcYq0bBtH3nTtj4nGx3EKM1kPR3mbSgM68vYySVvqzvLVkfML++MqPerLBy39RhZTGURv9XsynCTPvtopjTuyU1yrnY6btD2NSgrwYnSkf7N+vb0YX6cGsJlBc13pDqayWBwzs9QK06pLwGFf3yNxqmu5q1ShRTP/bpTJdmXVS+Ajs4ZhH22//1tm1dXL5AndVME3WxjfZ5avzmgugekmtZraeCHTsT77fFt8Q6TteVRSgBcllYikW8fCe1k1drjeql/sMt1n91De3qz7sy7G8r5sehCsdc5l3TiZnzI63Up1IecmB2hyLTfGfSzrfV5/H4Ny3KjfN9+LgYL0fboaO5Bf7FiCo6VlB2jFb3IcJ7Ka1WubbbN8RUJ5XDffx+mR1en05WY+1+Nbv9E36X/0VV1N07itnsm1anrcpO0FVFKAFyYzILJk4J/zJnk1bKZFvDpKF4nO6NNqMJ1pvTvGl/2+HH15l8rU05W6cHa9aqUS952GzNp+LVNTjUYFBhu3mbKzux50eVCrfTbfx2AKLTajnd/IqL9Pjo+XKz0l7lV2itvQThFb0irfOC0rKcytu9ykBgjv/HzsdhzHs+7qVVUQXzUo6dm7KjQoLWTcXU99G07eF9Mjc67MVLWrY+2kzmnSJW73NC5tr2tVuPanuFak7XvTDQB4hqoH7aUHNyZ/S6+rWFIj4ZoNpqsIn5kecdvAwJdrfZ3KFnteMueqZDEDUqPYjGbXUnegPIxeK8fGc6zBlfnFcZylm40AL9z63ikbaJ6y7RlYfbjh/a+Kz2BVOpUNU3w+Nj0LVu3jOIHUs1+52XT6YJ/51THmp1leLXXOny7pgdS7pnG14ii/VsZu194uW64Vaft6OVbazpsU4LlaNaPkpQdEJi1O5ttmA/Hc9Gcc0URl/Wr+0DojmWvk8RanMnilr1PWrX8bmHMV+NH1yYTWnMY101bOb1ItbQ2vZf8mmpYyHdxxPfGDuXxc9Rc4pO669TDH9LOejrslkzrg1dv2DKz6kjRPy8xYPU/jWXFS3Yqi7R7w+ah9HMe37urlyruqzfbfrbsSLT5L5nsALz5Gx5I91Waa2lQ3KD3eTyadzx6sBjPpVmqMQqM0rsIO12r7td/9WpG2rx0rbT8zNRX7MwAAezHfkRMPyDWzzqUKM+abkbt2lhrHyxZgAACt9hRpO29SAAAHE3wu7w0dBqkpMwEAz8pTpO28SQEAHMy6ta1KrhUOANB6T5G28yYFAHAw0Xcm+KafdL6/tumnHveXpoICAM/LU6TtvEkBAAAA0Cq8SQEAAADQKlRSAAAAALQKlRQAAAAArUIlBQAAAECrUEkBAAAA0CpUUgAAAAC0CpUUAAAAAK1CJQUAAABAq1BJAQAAANAqVFIAAMDrNhvK2dmZ9CahXQHgqVFJAYBtwokMe2daiBnKzK46jFDLRj3paeHIFJCiQlJPt9G4nFSM56zXk2F6Z/UYMn/PLOnjCmUSHeumpSeZslw4k4luPx2mpxsvPYwmYRNHO/94ScJJfF9R0cBhkU5vDJs4Qjp9tlT2ZwBAjin4dMcL+5sr/vJG+va3/ZhMpitR1I4j7sWFyMODTBfRCvGCuYw6UcAtZjI8G8hUP+O4l/Lx3bmue5S7u1t5ePNR5iO7tybz6441alfMprLeyYebvsSb04x0ci13n6NfCh6mU1lkzkNx+493VzKe6nE4ngTzkY3XaBI2drzzj5cmuVccL9D7vtbDs2bepAz0zqz9WXsvV9y3eClIp580nTaVFABAXrD0HDGNOEvH8+3P7tK3f91X4DlR3OJmYwx8t3R9uWQfnaUX2FVVAm/paLy1oq1Ssm++a7ZfjDdZr4U+u6ZZ2GOffyDD3tvZe3ATf+lqeC206Z2Kl4p0eu0p0mm6ewFAmfBebhempWwp81HXrjyUUO5vbUvch2x7U6f/QTShF5neydZX5tE+msatTzVb8/Yzu5vqf9P7PJN4lSe5w5D+B09Diiw+B/GKRmHVUc8/AGxDOp32FOk0lRQAKNMZyXxZ91V+U4F8jvK+S3lbiL8j59Fr/gd53NLnOby/lYVmG5fFSA4vnMhVlHml9jl81L2s0DmX+DAeNatXTcIaRz3/OImqwehJv/veZH29rdnQ9GnP9aXXULXGBGzYXtxXvmTJDAiIhRpPbxW+J8NcfPE+mu4wajGW7oa48JyRTmc8QTpNJQUATi3JCC7OC317je6bqL1K0g1WZYIoB9VsIzCFsPQgR1OwKh/k+PA4k9nMLuGW3DVldj3WPRJxP9btf9+V+DA+a1a/TZOweDa6b4otr0bwObqXitc7lEfzYGQKhfGYgIEpeLme+L4vvufqZ6cy6OYrMyVMxaU71gqFK579rNkn3YhGp7/nmosX4650442J6zoaaiFTXZeu+PQ/6Of8uFXZjB2I4jVLvukZzxvpdM7p02kqKQDwLNkCnRa/xoOxPFxc2sKSJ65jClYD6Za07C50/WBgl27XZpRbS3pxFwAtuL1Ll8M6b+UyyrRu5X5bFE3C4mVIrnmuS0zUHcXVSoDeu3fpPyTdYi7frgpY4eR9NGjZ9ecyvxlJv9+X/uhG5oGpJCxkfL357UXc9cUVf34jo9xnH7TQ1S+U5GzXFQ1/c6PbjMKa2/Z+XZjsaDx926osb+Stidcs9UqFeFVIp/dBJQUAnjU3LlRpAS4qhPVHcjMPiv2lo9fySzNZymoJotbguKV4U0+VcHIVdW1xvA+5GVs68jbO0WTcjVsFTcvfZDKU3pmdEWelSVi8DMk1T1dG4kKb8+Zd1Co7TdVSit1i7JgARwtd3VDCMLWIVhJM1OmuJwXJm5k3Wh1Jsd1WCm94VGHcwKrQxls+7IN0ehdUUgDgmTsvtOAm/aVzLdU5Hc0o574b/Ty9Ko4PiM3kOsqZXPlY0vG4M5prJuqKY1sFTcvf+PZBLjzTUqgBUgXEJmHxMnTeXkZvIh6Sjvt2oO3l235cGEpVMqJuMZmuXnZMQNS1qyvdzDIQMyPqZvY5yFcwZndxYe4NdxtOh3S6OSopAHBqZQMQU+I+zI5sLkPVH7i5kR03UMkW6MR9Vznvfad/I/N5qvVvPpeb0blpjCv0524SFi+AfROx6i5lxqPYikjH3MCrbiVxV5V0V68VxxM/CCQoW7Z8R0n/nSncaSWnN5SJ6d9vWoSjMScnGsiM54t0+snTaSopAHBymwYgJv2KL0pa3rKqB24m/aC3ZaDbhDKJp4opTMG5lc003Uzn6ApNwuKZsd1HbGUkGiOSFHL678RN7t/oHshXHNbPiXQ6+v+SJQ5Ywd6/Tjz+ZWz694/j3/3aX8KH14t0OuMJ0mkqKQBwcuu++le5wZBJv+JMi1gyZeswOxNM1BKtCl0AZtdx3+HSqTPTNHN7H88GU9qCXTueHLO/prW6ZK79giZh8SzFXb5MIS0ulK0LOX0xLzrMuJQwGqiSv8+qn5NIND7F/lwq7i7mXLyTm1SrsBkUv/8g99PPdIRTI51eeap0Wh9YAEBBsPRdd+naRbOqpabQSydZ5/l7ftO0/cZqszg2TvvNvZrzZb+xN/kG4cI3+a6/7dfsWxyH/YbkzLcb67Y0nKN/S47HdZNwulR8a7Zf8c3DaXGYVLyp/VlvP9Yk7PHPP07H3qd6/zm5ax1/o3d8L5R/2/v6OXFcb+n5/tL39V97/2Y+U/jW+PTzkVrMfugz5/mbPptI4ih+i3byfMTPr7k3D/U922gP0umnTKeppABAqVTmVLoUCy2NBf6qsBUvJnEvyYgCL078NRcqJvgmkzCFvySOuDCXLn8ZgRbs1hmjXUxmmA+YSLZZkTEmAs2YnVUmZpa4sFb2mSZhT3L+cTJxZUSvW/5+Su4zXaoLWcV73BQYM5UMo6SiEW9X73MtLPlRBcc8c0lhKrXNHSop0T2aup+Ln8WLQDr9ZOn0mfmPRgQAAPBymC9yHEy1/BbIPD8AxXRf6Y5l4fqyvKGfIdBGjEkBAAAvTjTORV2UjWy233rPNMRAe/EmBQAAvDzJ2xJxxHEv5eO782j1492V3E4Xut4Vf3lTOWUrgKdFJQUAALxM4UyG769kujDvTRKm0vJRPt30izMlAWgNKikAAAAAWoUxKQAAAABahUoKAAAAgFahkgIAAACgVaikAAAAAGgVKikAAAAAWoVKCgAAAIBWoZICAAAAoFWopAAAAABoFSopAAAAAFqFSgoAAACAVqGSAgCVQpkNe9I7O5Mzu/R6Q5mF9s8ntee+hJPMZ7OLxmODrYQzmej20uF6w5nuxRaz4Wo7vcmG0Lo/w17FtnUrk+hvm5aebIoeAA7jNaW9acXjPuv1RHelRJOw9Z0tlf0ZALBiCspdGS/0R8cR9+JC5OFBpotohXjBXEadKOAJHGBfTEbZHWtwV8zHs97Jh5u+rKOYyfBsIFON23Ev5eO7c3m8u5LxVLfneBLMR6mwaan9VI4XyLxkx8JJT7pJIHHFX95I3/4W0wxvci13n+2vOQ/TqSxKPwcAh/Ta0t5EcT9EHuXu7lYe3nzUuNOfahK2IVNJAQBkBZ5jGnCW4vp2TSzw3dL1x3SQfQm8paNh6wT1XY2zJGyyXjNAuyYr3k9n6XnxfhXDBUvPSeLw7c/ustGZfILzD+B1ep1pbxJW4yvfXEqTsM3R3QsACkK5v7UtZR+yrUCd/gfRRFlkerflVfmhnHpfZnI31X8cT3Kbk/4HT/dCZPE5iFdkzOTatNC5H2VkGtLKhPdyuzCtj0uZj7p2ZTOzeOcK5wIADuuVpr1RWLMbn2q8JWoQdgdUUgCgIJDPUd50KW8LCW9HzqNX9g/yeJIxESfel/BRY6vQOZd4c4+afWfNhuZ1vyv+zYbKQ2ck8+Ue3eTCiVxFmXjZuUA7hRKavvKZMUY9GVb1mV/1ly9ZMh3c9xwnAGz1OtPe8P5WFloluqyRyDYJuwsqKQCQl2QWF+el/X+7b6I2LSlt1Dq0A+/Lw+NMZjO7hE1z167Em/us2XeKrTw43oejjhGZXY/1SE2DYVW/bLRNOHkv3YGpWbri+b74vieus5DpuFsc3KuVmbPuOCpwRWE9N2o91jtLXE9/XzUvx/3v42g9jTMOK4upDLpMqIADeaVpbxDVzLRKFJgGg/QAftO4kB3A3yTsLqikAMArshgPZDCwS7drM5NUVtJ5K5dRZngr97VyGC0wvtfKg+PJp2O871+xXSG0APvumDUhHFTn7UcJTBeT+Y2M+n3p90dyM/f1Kppb7D5TiIm78rniJ2FHNzIPTDeXhRYWu9K3t5ep+ES9W/y5zG9GGmc27Pj6NB0xgSaeR9obymNUM5vKeDCWh4vLXOPCQLqrN5pNwu6GSgoAPLlw3cK2WmrlUvVFr/uXZrKU1RJoZmIKdaZVe52XdORtnFPKuBu3hpn9mUzM9Jbr2WNWZtdxgfHIbzfCyZVmhcd/W4MD6/SlU7gxylqFbYHHeaN/TbHdXNZ98e04AUcrq91QwjC1iIY18ZZ0iQGezLNMe914/MrNKNW4EFSMw2kSthkqKQDw1DSzWbWwrZbrvRL3Ojqamcx906atecnVZFWw64zmmom64tjWMLM/49sHufBMC5kGWBUkZzI0fW5cXzZ1h96fHRiqmeHHo76twXGYcSkTmQyHMoyW62iwbZbt45/vzjK7iyunb5Kqix0nEHXt6ko3swzEzNQKtN1zSHvPC0ltMg5nKne5zKlJ2CaopABA3oZBikbcD9eRVblpX/2bTCtbvNj564+9L903+umiju7TfJ7an/lcbszUMWZzto/26u3Gw50tfNrlKuoDIIvb6+j3yb61LVtQFfcdb1Gem+gL5rQCMRjLeDqVqV3K6hL9d6bQppWPnrlnZjIzLcjRwJOSgbmOJ34QSFC2VH6XBNDAq0x7m0wIcITJA3KopABAQcUgxUgyNuKipPXoGFq0L7ay4OYGhSwW68JntERfdGb+EP9+u1cOFsokntKLaYefnfjamdl/XD9YF7qWtitIhr3Ojiuu3mVj8zZxHP/uZ74wb/08mH5knbIlDgjs6XWmvdUTAiRjUNYVsyZhd6IJBgAgJ/kSr/yXYlV9udcxNdoX+8VhZt3279ZKf8HXltBJvI63PV77RWeb40y2veXLHJMvTauzXbSMv3RLr52uL1z7OKxT47mqeh4iQWD+DxzEq0x7q9LcsvVNwu6ASgoAlLIFrCihdZeuq4vNVLYWrA+uwb4kmUO+AKjhHceJPxstNpON4sxmJPG3G6fCrrZV81uF7T4UM8pA/5Rs340zXo3TSdZ5xcw93pd639aM9kmun+N6S9/3o2/Ejq+7WdL36LrQlln0nnX0nvf8zB26eh5MvJ7G6/v6r72ntxb6gNpeY9qbfhbtvuj+l+9Hk7DNUUkBgCqBFqrSGUqUqO/XMrSzuvtS0ZoXaCFunXnYxWScmcJfLNCMzlllPGYx26rTOmhVZpSpDL90yWX6TVoQ0VJaiMndt+aeiwtj2esdt07r37XAZCo0UaVmVaDKV1RNHHpfruLVpVCZAQ7gNaa9Jc9X1NBQuiNNwjZzZv6jEQIAADwN80WOg6nWRwOZ52dwCyfS645l4fqyPO40cgBahIHzAADgSYXxKFu5KBuFHHyOJjZaT0MM4DXgTQoAAHhaydsSccRxL+Xju/No9ePdldxOF7reFT+ZlhvAq0AlBQAAPL1wJsP3V+tpVCOm0vJRPt30mVoYeGWopAAAAABoFcakAAAAAGgVKikAAAAAWoVKCgAAAIBWoZICAAAAoFWopAAAAABoFSopAAAAAFqFSgoAAACAVqGSAgAAAKBVqKQAAAAAaBUqKQAA4DhmQzk7O5PeJLQrWqKt+wVghUoKAFQIw5kMe72oMBMvPRlOZnK4Yk2oZaWe9Fbxa6GpN5TZrhvQglcSV3Xhq7jNMz3G4cz+2Wp27PWPo1G8GnZSEu9k5xOElyScxPcRFQ0cF+n0k6XTSwBAQeA5S5NEijhLx3WXrpv8rovr21D7CJaeY+NzHI1ft6H/Jtv0AhustlR8ujilEfhL18bvuN7S931dvOjYHG99TM2OvcFx+O5q/fZ4S/bVc5eODX+QS4Djs9e8/H7cT3Kf7hR34/2y96Pj6R2P14N0+inTaSopAFDCZAAmQ8hkIYFnE99dMqesVQaTS8WDJINomLrH8el+aQZhPl/M/JJMavu+Nzn2JsexOV5Xs7u1JN7CaUjCNzw/eCJHrKTshUoKamiSvtURx0c6XRfdvQCgRGc0l/moLx37e6TzVi415RVZyOcgWrOjUO5vF/qvI96HfrzK6vQ/iGZSItM7yb3Z32Am12ONz/0oo3O7Ki+8F7NJx/sko8xBFdU/9mbHsTneB3lM9Q4IPsfxvunGvwPAaZFOrzxROk0lBQAa2zdRDiRO2y/lbSEj6sj5hfk3mxlsMhsOZCqu+DfZDCgtvL/VbMuRy+IGG0of+2GPI637xuSIC7m9z344Pg7dJLWXZyc0ffF76T7uVTdGzb7zVYPfw4kMV9vJLflO/Wrbfs2GZr15xtRiLN0NceElIZ3e5tjpNJUUAKjNJvZyIef75CHho2YJ6uI821plJQl/rbc1WiC70tKT432Q6qxP9zzacc2NAlOAqzvQMq3k2A9xHLNrMY2LUetiKpLO6FPUwrcYd6U3nGgBVQuuk550o5ZIXz5ta2ZEq5jr2B2YYr4rrutoEWohU3NtCxWVUCa9rsRBPfF9X3zP1QimMuj2pLJekzAVl+44Kgx69rPmLjSFNtfT33MtyXX2q/9BP+d7cTyOjdcsubjwwpBOrz1VOm27fQEAtqjq19vYlv66lf18C2z/5XQ/+dK+9rnBmq631IJWPBgzWb9lY6XHvstxBGa78ba9ZECmk+3nvBbo4dgwdmnd2AZslvR5z/exT+6d3BiPRn3cS+513zXbyt1P9rOZe6fhfukHGJPy2uySvpUind4Vb1IAoI5wIu/jpqSNr+tPyrZuuR9HpS1kRa5o3iHzm5GM+n3p90dyMw+2960+4LGH91cyGAx0Gct4auLUYuLFG/1D9GNWeC93DyaMI45jdtK02L3f0E0IbVXoY5/0cV98lnUDru0777jyrhtKGKYWOZcLE/7hcUNrciiPpsnYeSOZTiYd/az+syhpKq63X8AeSKd3RiUFALaaybA7FtNX2AtuNr6uPx3dJ9NNxfWlSX5U7KaW9Emeyl1p7nfYYzeDMpfxzJK6BBL4rm56XOzKs+q244kfzGU+188FvmbUcXccxgO8RLarStS1qyvdzDIQW1bawN7L+QrG7C4aT8I4Jpwe6fQ+qKQAwEamj3w8aNb151tnXKnFtuxWtQrXmTElnFzFBa+HOxkOh+vlKup9LIvb6+j3SZRH7Do4csux730cHen0b2RuMkDNXsfXSYZmM3bTIjgfST/Zbqcvo1WL4tX28Ql4nhxT4NGCUdmi98OmR7D/ztxLWsmJvkxuJrPJUHrRvXSIwch4VUinradLp6mkAECleBBv9KreXzZqCdusK/FYxbIuJTO5M+m+Zit1BucvFlOZTlPLwmQ45g/x77c2t6seHGm7yBQyqTrHfrjjiCSZaDLQM99tJ5Jk5Hh51veTdLRgVLbEASvoPRuNTna12DSVsemuMo5/N628B2lgwCtCOl3qhOk0lRQAKJVO/IMDVlCMjryNOr5P5SrXzJS0vIn7bv3KPpzE07EO17O7ZF/Hp5aotUvzDS+Ifp/bklnH5hjTq8kqjkgya0tmesq6x97kOEycPZkU5pENZRbnkuvZZ5KWv9JMNcmsG2SqeCaq76dIND7F/lwq7i7mXLyTm/n6mZjPb9atvDvbVNDDy0Q6vfZE6bSeHABAjuYhqxlNXLdk8TbPsrKdnS0ovY3VzC65WVRWMxFVza6SUjprjJGeOcax20tmZMnOcNTs2OseR8n2ddGssySshk5mqdF9NNuLZprxNLyN41Czx+DItt6P+Xt6fT+lZzdKZhjKxFOIOzs70mrRe8jRe9PzN302UbVf5iNJfObe1TgrZkvCS0I6bZanSqeppABAQUVhJ70cYirSwF9P7xgtpuBTEm9qCsmt26zM/Ix4qsh1hqPhdHvpsttOx173OMz2UxlYHFecuZXubTT1Zjpe3d98YRPttkNlILpPcvepKVgVrntJ3HGhKVVg0sVLFbJW9Yqd9ksLeql7d98CGJ4J0uknS6fPzH80QgAAgOfLzDQ0mEZdaJLuMyumK46Z/cj1ZXnYvpsAjoQxKQAA4NkL407wclHWCT74LFGX/k1TMQFoFd6kAACA5y95WyKOOO6lfHx3Hq1+vLuS2+lC17viL2/2/g4JAKdBJQUAALwM4UyG76/WU7xGTKXlo3y66cezEgF4FqikAAAAAGgVxqQAAAAAaBUqKQAAAABahUoKAAAAgFahkgIAAACgRUT+f/In835apZIlAAAAAElFTkSuQmCC;" parent="1" vertex="1">
                    <mxGeometry x="310" y="40" width="259" height="188.25" as="geometry"/>
                </mxCell>
                <mxCell id="6" value="" style="shape=image;verticalLabelPosition=bottom;labelBackgroundColor=default;verticalAlign=top;aspect=fixed;imageAspect=0;image=data:image/png,iVBORw0KGgoAAAANSUhEUgAAAkUAAADACAYAAAAKnBeDAAAAAXNSR0IArs4c6QAAAARnQU1BAACxjwv8YQUAAAAJcEhZcwAAFiUAABYlAUlSJPAAAB7hSURBVHhe7d3vixvXucDxZ+8/cXPjpm6xtC/MQqA1aZnBLwouQVoIG2g34Bc1DWUUKGTFJUsg16GUbAvBoYwCha4IDu4LQ/YWsgR2dMsN9EWQaE1bCCz7YjWmdd24vn+F7nNmzkgz+q2Rdr3a/X7weEejmaMZzQ89Ouc5o5WOEgAAgAvu3+xfAACAC42gCAAAQBEUAQAAKIIiAAAARVAEAACgCIoAAAAUQREAAIAiKAIAAFAERQAAAIqgCAAAQBEUAQAAKIIiAAAARVAEAACgCIoAAADUSkfZcQB9Hn/6S3n9/lfR+JWbnvzm1Rej8fPpqbQ+fE9+9oUZvyQ/2X5HXnspemKyJ1/K+7+qy+eP7OPLr8jPP3hZHPvwIrlYxwzOrzmuB0Msy3lBTREwpYeP7cg59vgfdkS+kr/bsYme/F7e2EoFRMajz+SLB3b8AjvNY8Z86Hz/hz+Nhjc+/dJOPTvO+vphUK7rwRTO8rWUoGhm+o3Yntijh4+lZefGyXv84Pfy/lu9C64Z3njrY/nkwVO5AHHMM/f4T3+Rh3b8TDC1Vt1j4ZfyyRM7/VzTb/XN+Fu48bB51o7901w/3f9v9a4F0WCuBxOPg+HLZa7l5gtA9/mLcmxdLARFs3ryVP5mR8+Wp/JJ94TWk/VCfEs31bs/ldfvfCafP+pdcI2Hj/4sH915T+4v7fuwLPsz+2En1z353//+tQ7vyttzVLXP56yeoyfpOXnBvWTHRa64+tiOnw2nuH7mGp2utTTM9eBXvx8biD3+9CBb22k8+pc8JvC5UAiKzqXFVnWeVY8/vWvbu0f721dP7dgyW579eeO7SZ7Ac/YvTovz6js2IP31mczXeObr9+gv0hoZ4Hwp922+Cy42gqK5XJKf1OKTPDv8+EImmJ6uvhqKy6/I3dQ+uLv9ity4LPLNS3w4AxfXNblx3Y7ql4s//GnEl6QHf5XP7ahcviRX7CguHnqfzSpKKv3M5lCYoOgdee356MF4Ue8cUz2b/iC/JDc2X5e3Xxrywa3zf/Knv8ofmn+Wh+kqXbvMTV0mqX42TUija0x66/j4wcfy+p0/x5Ove3L3zRdTVdimKSrpaaDf+Ld/3W3+6PUaiHsgOPKx/ELLid6D/nJybGd2fr0gXf+2/NebL0+oXjfNS+/JR/a9uXLzXf32OWUANMM6pntMRE1Duq0Zs26vYZf5my6T5OJcuXxNvrdZktd0mWn3Z1eOdTDHwi/2esfWleuvyI9+8KI8/lXvPU0fA8OMXU8TpH6Q2odP9Pj63V357Re9bTbMdv/oP0viPD/qfZ/imOs37hzV7f6+PQei7fuanme/O5CPdL1i+r7dXJebr44of8K+M0YdM3nPv8jAPh48T9KvO7R3z4z7YO73qs/I9Vvw62T3/zX5+bbIz5L33Twe8qU1fSzf2PZE7tRtkNR3/OS9/qcN2d7+fXtjOzl3dZ992pDf3rfHvj535fq67vdRx+eM+9jKfT2Y4doz7lra+vCX+v6b53K+pwtETdEpMAfD96PeOakDx9DHn995T77/YV9PDHPS6PwfmRPBHpBddpnX+5cZ6Sv5+z+T0X/ZEfWPwW9MvZ4Go+g3rT09sPWE7p5wqXLybmd2fj2Zv/hshu2LPbx/V95/MLmpbOZ1HCNPWell0hetOAfq7hSJm6n9qfKsQ5yHlT22zHv+s63eBXCyp1McL5bu5ze0bHPRS2+zYbbbvO4bI9/38cfcXP5o1kvPs+6Hr6Hv2/360ONv7n2X9/zLcZ4M9O6Zax+oGd+rSUb2Plrw60Re+pbcsKMifx7sFamBzm+7wf01uX6KuXB/s9vbv2/NufvGp6YDie6zbkBkmP0+4r3IuY/zXg8Wdy39Ur7o7u8xtXmnhKDopOkJ94skOh5FD/L3Z02k/eJgyp4Pl+QbX7OjC/Cw/wRIzLydT+UT/WaS33Py2uY1O27YE/GtX0bB0dBr7iL3RZ6ypllmotT+zLMOeuEcXQs1i+fkha/b0XF0Hd9IBzQjmAv9qPd95DE3p8+/GLNe/efXQvZdHvOeJ2oB+2Cm92oOJ/M6L8r1bhOavsYfsx/Wmd6T1791qqkPD8ds78P7pgOJfdBvyPGZax/nvR7kufYsCYKiuXwlH20lPYRSQypCbv0uqWpV5oZ23Rykd+Xn6RN1L9sz4oqpQr3pyd10zlLtlVRbd6/GwHkzLu8nl+PHhqnqjJc7garI1HYkTSSzb+f/yd+7J7ypMk3PP2Wb/ks/jubNsN9SXv9hHByl5d0Xw+QpK7OM2ebtd+0yJgfqWnebp92fudbhj+kP2NT7XvPkJ/3v5QRj13PYcTGwzenjecL7PuSYW4jL13rl6j7oydbITbvvFm/+82Rx+2C692puJ/A6zg9S25kJKJ6mchP1vflBX5Pjaege27pPb/afg6YpLd5f2eNsluNz9D7Oez3Ic+0ZzQStyWtdku99Z3gT32khKDpRplrQjqobmy+L0w1QnsueqI+e9A4e/bD/jX74vW3a0NMBzfMvyvdSH0DPpGeVngDmQynZjvjDKc92/rt8o7stGlz+Kr6vUDT/m+/Ib1LtzeOYeZOk6qykCjp5j3Lui6HylJVtbrpy8/VuDorxgt3n0wewedYhu0y0Dskyemy99ubrmQBnfpO2+WX5TfpDb9T7PvSYWwDz4fvBj3vlvlTKbH/v/Fr0vpvFvOfJovbBtO/VnE7qdTLXzlQTzYNGr4no8rdT59ApyRzbuk+/8+3eeatubOvngN1f5r0Yfv3Pu4/zXg8WeS2NmWM5DqqebT6RQVB0ij6/01ej1E3YG8IkzH36sbyRuSnhLDkfJ+Trk+8vMt12xs1fvZMnvq+QuSePafee5kRKmJP+7Q/ibzc3Lme/3Ty83xh6I82Z9sUE05WV/ca/6G9Ds2/PaXwjm2Kbv/Z85kNgqCmOuXye7yt3VJPgye678eY9Txa0D6Z+r+Z1Uq+jH9ap+yQ9bMbvXbqm5Io7ZSL3SXr+OfmmHTX7K5v6MMfxOXEf5z+uF3ktPQsIiuaSrs5ODVPWcmRcTl0MkoS5KNH6WeQxnKD0dppv2AOBzJhEwkn0283bH7wjdzNV0EMSKydJr+O8FllWXmdhHZDfos+TC+qFdC2MuWfRg3SNxzX50bS9VzG9Jbz2EBSdmhEBVDJ08yTixMok0k7ak+Mhm78xqxcu/YcdO0nTbqdlA5kkR6JrjuTNF15dT/U2GWbGdRwrT1mL7mFxFtZhkhGv988nS/atMv/7Ntf5t5Dz5Lzsg5yef1l+1M13+Uo+6na7V6ecYH1y8u7jvMf1Iq+lZwNB0YkazAfI3lH1qf3dLvMDickBma0K/cbXet9eHj9oyB+6z42Xbm8e6tFncj9JRH6igdiHd+domsuznV/K+zYZOm4CMDkS6TbsCUmVprdF0oTQ91qtDw96F7voPTR/86zjKHnKyvaAeXj/rs0NiSW/3zbqA25wf+ZZh/QytmkxWebJl5n7Pi3G5G02PWa6zuwH03z7bqipz785z5Nzsw8Ww/luOnG7p3cn9mWUdx/nvR4s8loaM/cpipvfnv3vyREUnai+buPRvSLS7a/vSfy7Xfb5AXrApebP3Ktlgof3Td5B/BrdbpF97cpRF3Yzj7kfRea+ILPKu51JT7HefL2TcJpbCdgmhL7Xim8CZl1ft4l78+6LtHxlZS/Ium+T91+HSa89uD/zrEPfMpJaxtwbZqptn82kbe4dz/qN81n0/JnSPPuuK/f5N995cl72wUJk7llkXX5Fbua6N1H2+twd3pqmx9Vi5dvHea8Hi7yWGqYZMzn+89fELgpB0Ul7aUi38bFelJsD3TKnkU0kHCpTfdzvktyYaT37zLyd42V6QuRlenak87sWuY55ypppmSn2Z651yPbmydIL5s30RXIBdB2zOV7DmG7Hz77XyViLOHZO4Pyb6jw5L/tgIbK1KsaZSLCeV959nPd6sIjz4YwiKDoFUbdxmyiZ7QFgbtlu7vGQ/YmKF1413cyvyZXMwWrm9fru25EVLacHceY1NDBI36HV3Fumf554Hd6Rt787IudhylyI2bZTg7+oK332xDK3ozf32Jj4kx36AfNf+lrmXhrZ96lXxrD27Fn3RdqVvsLylBUtM3K7sx9w0+3PWddBv+V9YO6HMvwYeO0ErnPRdoxdR9Pt2E5KzJX/lu7Bk983+96LWfZdYvCYmfX8y3ee9L9urn0wg/73apL+9ZvWdK8zfv9nuozr9s/W62oxx1bX12d57fHy7eP814PFXUtNoJq80Gn37hzEb58BAAAoaooAAAAUQREAAIAiKAIAAFAERQAAAIqgCAAAQBEUAQAAqJXf/s8juuQDAIALj5oiAAAARVAEAACguKM1AACAoqYIAABAERQBAAAogiIAAABFUAQAAKAIigAAABRBEQAAgCIoAgAAUARFwAkIw4ZUXFdWVlbs4Eql1pDQPj+dUBoVV9xuGSviuhVpzFYIAGBK3LwRWLRGRVbKdR1xxPHWZE0OpV5vxc95gXR2S/H4WKHU3KJUzWKOI97amsihltOKJojfbspWIZoRALAgBEXAgoU1V27Jbbm3VZJu3BLWxC1WpSWeBJ1dmRQWmTKKJiLqC6JCDbiKJuCaOrgCAEyL5jNgwQpbTWmmAyKjsC6bjhk5lOOJzV+hHOzZGqHtbOBTKG2Lb8qp70sjngQAWBCCIiyRMKopcd1ejk2cqzMsygilUdN5M/k4tb5AYpbyTlNbjqKYaFPWB5rICrK6Zv5OE1wBAGZBUISlEdZuxU1H4okfBBIEvnhOS+rVorh9gUyjUpRy1TQz+Tqfzut7OnUvE0jMUt7cGnfi/CDv9uRcoPBYQx61tpqtbbKKV01VUUuO2vFjAMBikFOE5RGa3lslKWQihYZUVspSd3xpN7dsEGGTlCU9bYipy8tBy25EQcuxHO/vSdUkWjueBM3J+UTd/KMReUNJvpEXdIS0IgBYHGqKsDwK/QGMUZS44uRIBipOWntyMK7/+qzlzSA82JFyuaxDNQ6IlLN2VZ+IRgEAZxBBEZaMyQOqSa1SkUo03JEoJzmjIFv34qawarkoK+64ewRNU97sTLK1qYSNh7a0A0+kXpVy0ZVnnrIEABjONJ8BSyHwOo4esuawHRy8TmBnS2sHfsdzknmcjt+2Txg5ypuLvl5Utjep5KCjIVRHHL+TXt2ExldaTt+2AADmRk0RlkQotZ26tMTRmKKdqYWJuqiPUChtyW6zE9fU6NLVO0n/s3zlLcTh8Yhaq8S4JryG7JvccFmT1dwJTwCAYQiKsCR63dS3S+loQKfbsXEKpQ0xYVHPfOWNZpK8XakN5DKF0oijmWyvMpNUbW4FUEk37xVkPbqpUV12+trawtqOTlXexuSEbQDAbPTbMbAU4mYj6Tie3wmCoOP76eavVHNX29fpTne+INWElm65mrq8mbQ7fqq5zvO8aBhZbtKkNvB6tgnNDE5cRq8Z8ASa9gAAUZMBsCQ04PAcGxiYQYOOoG2Dm3SgYKZpUNSdTwcNLHydN2va8malZZgAqxvE6OBo2X6gz/SJAjh9XqO1wec0UOtbPxPAkUoEACeD+xQBAAAocooAAAAUQREAAIAiKALGMj/7kf7B2HFDpe8HZwEAy4ScIgAAAEVNEQAAgCIoAgAAUARFAAAAiqAIAABAERQBAAAogiIAAABFUAQAAKAIigAAABRBEQAAgCIoAgAAUARFwAkIw4ZUXDf1u2iuVGoNCe3z0wmlUXHFTf2+mutWpDFbIQCAKfHbZ8CChTVXitWWjjnieGuyJodSr5vHyguks1uKx8cKpeYWJS7GEW9tTeRQy2nF5frtpmwVohkBAAtCUAQsmAmKbsltubdVkm7cEtbELValNWVA0w2s+oKosFGRYrk+Q3AFAJgWzWfAghW2mtJMB0RGYV02HTPSkqN2NGWMUA72bI3QdjbwKZS2xTfl1PelEU8CACwIQRGWSBjVlLhuL8cmztUZlmQTSqOm82bycWp9gcQs5S2KI1eLdnSkthxFMdGmrA/UKBVkdc38PZRjcosAYKEIirA0wtqtuOlIPPGDQILAF89pSb1aFLcvkGlUilKummYmX+fTeX1Pp+5lAolZypufDXRkTVYn5QKFxxryqLXVbG2TVbxqqoqmqXECAMzE5BQBS6EddNptO94VdDTc6Yjjd3pPtTu+0z9tiKnLm1/bd0zuXke8wE4Zo+13NOwZOW9S1jRFAQCmR00RlkehJIWBqpOixBUnRzJQcdLak4Nx/ddnLS+vsCa3om5kngQkRwPAmUVQhCVj8oBqUqtUpBINdyTKSc4oyNa9uCmsWi7KijvuHkHTlDePhlS6vc52hZAIAM4wW2MEnH2BFzcrDR28zrDWpHbgdzzTlBbN43T8dJtYjvJmY5vxtLzZmrrGN+EFnimzb1sAAHOjpghLIpTaTj2qcfGCtgnm7dCOu6iPUChtyW6zI22NJExycvVO0v8sX3nT6918UQMima3VbFwTXkP2TW74NAnbAICZEBRhSfS6qW+X0tGATrdj4xRKG2LCop75yhsvHRC1xwdE5qaO5lYAlXTzXkHWo5sa1WWnrxdcWNvRqcrboCkOABaMO1pjaTQqK2J60DueL7c3VuX4eF/2qqa2x/Ak6Nicneju0Xs6aTOaT+RY9neqYn5pI11rM3V5M0rK1YLFi+4p1OfqhuxudVdCVuxtAbKv15DKSjkOgJJyDuvRNsyzbgCAMUxQBCyHdsf3bNf2aHA6XtC2OTbpHCAzzcnmCzlex9d5s6Ytbxa9PKKRQzpXKNX9fiBFqB0MrJ8GcIPzAQAWgpoiAAAARU4RAACAIigCAABQBEXAWCbhOf2DseOGSt8PzgIAlgk5RQAAAIqaIgAAAEVQBAAAoAiKAAAAFEERAACAIigCAABQBEUAAACKoAgAAEARFAEAACiCIgAAAEVQBCxaoxL97IdbC+0EAMAyICgChghrLoENAFwwBEXAM2d/dNatCSEYADw7BEXAEIWtppjfSm5uFewUAMB5R1AEAACgCIqwHEYlL4c1cUc0PTUqOn3FlewioU5342Xs4LoVaQwuPPL1Km5v2cxQadiZekItx+3O70qlr7x4HctSNw9aVSmOKQsAcLIIirAcilfF0T+to3b8ONE+kpb52zqS7DOhHB/qH2dT1rstYKHU3KKUTQTi+RIEgQS+p8vWpVzsD56GMIFSsaoBjCe+Xdask76IFqePt0vRo0SrWpRi/GLieY7O1ZK6TksHWqVtXS7w43IcW64Z+soCAJyCDrAU2h3fkY4GGJ3ATjECT6d5XkdDm46XfqLtdzTQ6Dh+204wkxxdvm8+w84r6ScCL5o3vXz0Wn2vP+x1kmU1yumkJ3dfx/F1a9KCaP0HpwMAThM1RVgSBVnfNPUpddnvtizFtUHO1Q25qk/Ve09IeLAnLXFks1tNFMrBXiuqjdkohhKGqUFWZc0UfXis46MkNU9XpRhPiBV0Wf0zUIOlHP+eZPK0C+sSbcJArRYA4CwgKMLSKKxvRs1Mh8c2dAkPZK9lAp9SHDClgpr2kQmA0k1nbTGT4qayohQzQ1nqURvcOAVZjaOfbEDT2I/ygZyrmVAJALCECIqwPGxNS2vvIA5+TD6RDXwKJmJp7clB9ERD9jVScTbXNZTp4/gStNvSHjY0twbnTyltePq/BlVuRWqNhjRqFXGjnKF0jRQAYFkRFGGJ2CY0G/w0TOSzthoHMqUN8aQlUStWVHvTH6gUoyY2U9MjhYL+GzLEM44QSm3HRFqevk5dquWylKvx46DdzDaTAQCWEkERlkrchGaCnzjHx9tIemmVxFTkmLyiMEo0SjedGb2cpJ1h3cyi/CI7PlTc/OasbchusxPd2NEMzeaulOYOiHoBG7lGAPDsEBRhudgmtPrOrSifKJ3KU4yzreXOXmto01lh67aYBjDTVd6t1OImsIb+rbiyUizKrbjtbYQ4cGnVy/aeQ3Zw3eg+R7WBGx3NwuYr2aa5irmPEvcpAoBTR1CEJZM0obW6+USJuBapHiVNr60Oq74pyW6nLYFngqdq3ARW1r+Ha+IH7Qk/6ZHUNNl7Etn7CflrJpfJNKcVZZ44prQbiFktU1bdbACJ2wBw6lZMv3w7DmAUc+PGcl0cf0jwZO6qXaxKywuks8tNFwFgWVFTBEwhylNSQ2ug7F216ZYPAMuNmiJgGkltkDjieJtye2M1mny8vyN79ZZO9yTo7Ar1RACwvAiKgGmFDanc2pF6K32nRxMk3ZZ7u6WBxG4AwHIhKAIAAFDkFAEAACiCIgAAAEVQBAAAoAiKAAAAFEERAACAIigCAABQBEUAAACKoAgAAEARFAEAACiCIgAAAEVQBAAAoAiKAAAAFEERAACAIigCAABQBEVYIqGEjYq47oqsrCSDK5VaaJ/vE9akkpk3NVQadiYjlEbFFTf1vOtWpDGiWADA+URQhKUR1m5JsVzXMU/8IJAg8MVzWlKvFsXtD4w0eFopVqWezOt74kRPOOL5+ni7FD0yAVHNLUpcrK9lxvNKqy7loiuj4i0AwPmz0lF2HDjbwoaGMCUpFOzjSEMqK2WpO760m1uSPNWorGig40nQ2dUlrLAmrgZK4reluRXPGdZcKVZb4gUd2e3OqOy8LS+QTuYJAMB5RU0RlkehPyAyinLVVAG1jqQdT1ChHB/qH+eqPptSWJU1/dM6SuYM5WCvpfN5slEMJQxTg+i8ptzDYx0HAFwEBEVYMiavqCa1SkUq0XBHTFyTVZDVOPpJBUqqsS+mlcy5moRKbTkyy0ZNZUUpZoay1AfKBQCcZzSfYXmYJOtyXYbHKn1NZSanyCQKOZ74tzdk9XhfdqpmWUf8dlPi1rNe01twbz1bq5QoFLpNcgCA842aIiyJUGo7cVDjBW0xsXw8tMWPM6hT4nlNQORJXarlspQ1IDKPg25AZPSa3qLgZ9gQzwgAuAAIirAkbFOXsynbpXSootPtWE88r7O2IbvNJHjqSLO5K5lFNeRZ3zRRUV12hnUzi/KL7DgA4NwjKMKSKMmGp39aVblVqUmj0ZBarSKuaf4aaE+La4Ba9XL23kSuG91/qJa6AVFh67bExRbF1XJrWm4jyllyZaVYlFsHREUAcFGQU4QlEmqwckuq3SjINKXdk419c5+hbE5R3NXe3HrotmysxtOO9/dlrx7nJGW74JubN96SHS23G19FuUjbspWtWgIAnGMERTh/bJK1k7ofURf3HwIAjEDzGc6dMLpJkcja6pBanvZRVBvU65YPAECMmiKcP0ltkDjieJty27afHe/vyF7URNbXfR8AAEVQhPMpbEjl1o7UW+ksbBMk3ZZ7uyW62gMABhAUAQAAKHKKAAAAFEERAACAIigCAABQBEUAAACKoAgAAEARFAEAACiCIgAAAEVQBAAAoAiKAAAAFEERlof59fuVFXFroZ1wRpzV9QIAzISgCFBhzSWwAYALjqAIOHUNqWgAtuLWhBAMAM4OgiJAFbaaYn4bubnF7+cDwEVFUAQAAKAIirCUwkZFXHclygNaWXGlMjIXKJRGxRU3mi8eXLcijf7ZRyVLhzWpdF+nb6g07Ew9k9arUTHTy1I3D1pVKY4pCwBwugiKsHRa1aIUyyas8MTzHHGkJXWdNpgkHUrNLUo8qy9BEEjge1pAXcpFVybmVJtAqVjVAMYT3y7rRE84Wpw+3i5FjxLTrFdpW5cL/Lgcx5Zrhr6yAADPQAdYFoHXMYesRhMdv22nGW2/o0FGRxy/k53sRPN7gZ2QSOZPP2HLdlIFB555La+TWdwum55v1vXSBToamg2ZDgB4lqgpwtJx/HuSyYcurMumqXppHUk7nqJCOdhrRbUxG8VQwjA1yKqsmfkPj8f0/grl+FD/OFelGE+IFXRZ/dM66r1SYrr1AgCcVQRFOKfacqQxUdxUVpRiZihL3Tw3VkFW4+gnG9A09qN8IOdqJlQCAJwDBEU43xxfgnZb2sOG5paGPqOVNjz9X4MqtyK1RkMatYq4Uc6QI5vrdN0HgPOGoAjnVFGu2qYrKRT035AhnnGEUGo7GgA5nngaGFXLZSlX48dBu5ltJgMAnAsERTinCrIeJfTUZWdYN7Mov8iODxU3vzlrG7Lb7EQ3djRDs7krpbkDol7ARq4RAJwdBEU4twpbt8U0gJmu8m6lFjeBNfRvxZWVYlFuHYyLiuLApVUv23sO2cF1o/sc1QZudDQLm69km+Yq5j5K3KcIAJ45giKcYyXZ7bQl8DS6qVfjJrCy/j1cEz9oT/hJj6Smyd6TyN5PyF/TaKZlmtOKMk8cU9oNxKyWKatusr5J3AaAZ27F9Mu34wAS5saN5bo4/pDgKayJW6xKywuks8tNFwHgvKCmCBgijG5SJLK2OqQ2qX0kpkc/3fIB4HyhpggYJqkNEkccb1Nub6xGk4/3d2Sv3tLpngSdXaGeCADOD4IiYJSwIZVbO1Jvpe/0aIKk23JvtzShSz8AYNkQFAEAAChyigAAABRBEQAAgCIoAgAAUARFAAAAiqAIAABAERQBAACIyP8DVEz5OIkiOxsAAAAASUVORK5CYII=;" parent="1" vertex="1">
                    <mxGeometry x="230" y="290" width="151" height="49.9" as="geometry"/>
                </mxCell>
                <mxCell id="7" value="" style="shape=flexArrow;endArrow=classic;html=1;fillColor=#d80073;strokeColor=#A50040;" parent="1" edge="1">
                    <mxGeometry width="50" height="50" relative="1" as="geometry">
                        <mxPoint x="220" y="240" as="sourcePoint"/>
                        <mxPoint x="260" y="280" as="targetPoint"/>
                    </mxGeometry>
                </mxCell>
                <mxCell id="8" value="" style="shape=flexArrow;endArrow=classic;html=1;fillColor=#d80073;strokeColor=#A50040;" parent="1" edge="1">
                    <mxGeometry width="50" height="50" relative="1" as="geometry">
                        <mxPoint x="406" y="240" as="sourcePoint"/>
                        <mxPoint x="381" y="280" as="targetPoint"/>
                    </mxGeometry>
                </mxCell>
            </root>
        </mxGraphModel>
    </diagram>
</mxfile>